M48
; DRILL file {KiCad 9.0.8-9.0.8~ubuntu22.04.1} date 2026-04-05T09:22:34-0700
; FORMAT={-:-/ absolute / metric / decimal}
; #@! TF.CreationDate,2026-04-05T09:22:34-07:00
; #@! TF.GenerationSoftware,Kicad,Pcbnew,9.0.8-9.0.8~ubuntu22.04.1
; #@! TF.FileFunction,Plated,1,2,PTH
FMAT,2
METRIC
; #@! TA.AperFunction,Plated,PTH,ViaDrill
T1C0.300
; #@! TA.AperFunction,Plated,PTH,ComponentDrill
T2C0.750
; #@! TA.AperFunction,Plated,PTH,ComponentDrill
T3C2.700
; #@! TA.AperFunction,Plated,PTH,ComponentDrill
T4C4.500
%
G90
G05
T1
X156.5Y-78.1
X156.5Y-79.25
X156.5Y-80.3
X156.55Y-99.3
X156.55Y-100.45
X156.55Y-101.5
X157.5Y-78.1
X157.5Y-79.25
X157.5Y-80.3
X157.55Y-99.3
X157.55Y-100.45
X157.55Y-101.5
X158.5Y-78.1
X158.5Y-79.25
X158.5Y-80.3
X158.55Y-99.3
X158.55Y-100.45
X158.55Y-101.5
X159.5Y-78.1
X159.5Y-79.25
X159.5Y-80.3
X159.55Y-99.3
X159.55Y-100.45
X159.55Y-101.5
X160.5Y-78.1
X160.5Y-79.25
X160.5Y-80.3
X160.55Y-99.3
X160.55Y-100.45
X160.55Y-101.5
X161.5Y-78.1
X161.5Y-79.25
X161.5Y-80.3
X161.55Y-99.3
X161.55Y-100.45
X161.55Y-101.5
X162.5Y-78.1
X162.5Y-79.25
X162.5Y-80.3
X162.55Y-99.3
X162.55Y-100.45
X162.55Y-101.5
X163.5Y-78.1
X163.5Y-79.25
X163.5Y-80.3
X163.55Y-99.3
X163.55Y-100.45
X163.55Y-101.5
X168.45Y-81.45
X168.45Y-82.6
X168.45Y-83.65
X168.5Y-96.35
X168.5Y-97.5
X168.5Y-98.55
X169.45Y-81.45
X169.45Y-82.6
X169.45Y-83.65
X169.5Y-96.35
X169.5Y-97.5
X169.5Y-98.55
X170.45Y-81.45
X170.45Y-82.6
X170.45Y-83.65
X170.5Y-96.35
X170.5Y-97.5
X170.5Y-98.55
X171.45Y-81.45
X171.45Y-82.6
X171.45Y-83.65
X171.5Y-96.35
X171.5Y-97.5
X171.5Y-98.55
X172.45Y-81.45
X172.45Y-82.6
X172.45Y-83.65
X172.5Y-96.35
X172.5Y-97.5
X172.5Y-98.55
X173.45Y-81.45
X173.45Y-82.6
X173.45Y-83.65
X173.5Y-96.35
X173.5Y-97.5
X173.5Y-98.55
X178.4Y-96.3
X178.4Y-97.45
X178.4Y-98.5
X178.6Y-81.5
X178.6Y-82.65
X178.6Y-83.7
X179.4Y-96.3
X179.4Y-97.45
X179.4Y-98.5
X179.6Y-81.5
X179.6Y-82.65
X179.6Y-83.7
X180.4Y-96.3
X180.4Y-97.45
X180.4Y-98.5
X180.6Y-81.5
X180.6Y-82.65
X180.6Y-83.7
X181.4Y-96.3
X181.4Y-97.45
X181.4Y-98.5
X181.6Y-81.5
X181.6Y-82.65
X181.6Y-83.7
X182.4Y-96.3
X182.4Y-97.45
X182.4Y-98.5
X182.6Y-81.5
X182.6Y-82.65
X182.6Y-83.7
X183.4Y-96.3
X183.4Y-97.45
X183.4Y-98.5
X183.6Y-81.5
X183.6Y-82.65
X183.6Y-83.7
T2
X190.0Y-85.0
X190.0Y-95.0
X192.0Y-85.0
X192.0Y-95.0
X194.0Y-85.0
X194.0Y-95.0
X199.0Y-85.0
X199.0Y-95.0
X201.0Y-85.0
X201.0Y-95.0
X203.0Y-85.0
X203.0Y-95.0
T3
X171.0Y-87.5
X171.0Y-92.5
X181.0Y-87.5
X181.0Y-92.5
T4
X160.0Y-86.3
X160.0Y-93.5
M30
