%TF.GenerationSoftware,KiCad,Pcbnew,9.0.8-9.0.8~ubuntu22.04.1*%
%TF.CreationDate,2026-04-05T09:22:40-07:00*%
%TF.ProjectId,Side_Plate,53696465-5f50-46c6-9174-652e6b696361,rev?*%
%TF.SameCoordinates,Original*%
%TF.FileFunction,Copper,L1,Top*%
%TF.FilePolarity,Positive*%
%FSLAX46Y46*%
G04 Gerber Fmt 4.6, Leading zero omitted, Abs format (unit mm)*
G04 Created by KiCad (PCBNEW 9.0.8-9.0.8~ubuntu22.04.1) date 2026-04-05 09:22:40*
%MOMM*%
%LPD*%
G01*
G04 APERTURE LIST*
G04 Aperture macros list*
%AMRoundRect*
0 Rectangle with rounded corners*
0 $1 Rounding radius*
0 $2 $3 $4 $5 $6 $7 $8 $9 X,Y pos of 4 corners*
0 Add a 4 corners polygon primitive as box body*
4,1,4,$2,$3,$4,$5,$6,$7,$8,$9,$2,$3,0*
0 Add four circle primitives for the rounded corners*
1,1,$1+$1,$2,$3*
1,1,$1+$1,$4,$5*
1,1,$1+$1,$6,$7*
1,1,$1+$1,$8,$9*
0 Add four rect primitives between the rounded corners*
20,1,$1+$1,$2,$3,$4,$5,0*
20,1,$1+$1,$4,$5,$6,$7,0*
20,1,$1+$1,$6,$7,$8,$9,0*
20,1,$1+$1,$8,$9,$2,$3,0*%
G04 Aperture macros list end*
%TA.AperFunction,ComponentPad*%
%ADD10O,1.200000X1.750000*%
%TD*%
%TA.AperFunction,ComponentPad*%
%ADD11RoundRect,0.250000X-0.350000X-0.625000X0.350000X-0.625000X0.350000X0.625000X-0.350000X0.625000X0*%
%TD*%
%TA.AperFunction,ComponentPad*%
%ADD12RoundRect,0.760000X1.140000X-1.140000X1.140000X1.140000X-1.140000X1.140000X-1.140000X-1.140000X0*%
%TD*%
%TA.AperFunction,ComponentPad*%
%ADD13C,3.800000*%
%TD*%
%TA.AperFunction,ComponentPad*%
%ADD14RoundRect,1.500000X1.500000X-1.500000X1.500000X1.500000X-1.500000X1.500000X-1.500000X-1.500000X0*%
%TD*%
%TA.AperFunction,ComponentPad*%
%ADD15C,6.000000*%
%TD*%
%TA.AperFunction,ViaPad*%
%ADD16C,0.600000*%
%TD*%
G04 APERTURE END LIST*
D10*
%TO.P,RT1,3,Pin_3*%
%TO.N,Net-(J10-Pin_1)*%
X194000000Y-85000000D03*
%TO.P,RT1,2,Pin_2*%
%TO.N,Net-(J15-Pin_1)*%
X192000000Y-85000000D03*
D11*
%TO.P,RT1,1,Pin_1*%
%TO.N,Net-(J14-Pin_1)*%
X190000000Y-85000000D03*
%TD*%
%TO.P,RT4,1,Pin_1*%
%TO.N,Net-(J20-Pin_1)*%
X199000000Y-95000000D03*
D10*
%TO.P,RT4,2,Pin_2*%
%TO.N,Net-(J21-Pin_1)*%
X201000000Y-95000000D03*
%TO.P,RT4,3,Pin_3*%
%TO.N,Net-(J13-Pin_1)*%
X203000000Y-95000000D03*
%TD*%
D11*
%TO.P,RT2,1,Pin_1*%
%TO.N,Net-(J18-Pin_1)*%
X199000000Y-85000000D03*
D10*
%TO.P,RT2,2,Pin_2*%
%TO.N,Net-(J19-Pin_1)*%
X201000000Y-85000000D03*
%TO.P,RT2,3,Pin_3*%
%TO.N,Net-(J12-Pin_1)*%
X203000000Y-85000000D03*
%TD*%
D11*
%TO.P,RT3,1,Pin_1*%
%TO.N,Net-(J16-Pin_1)*%
X190000000Y-95000000D03*
D10*
%TO.P,RT3,2,Pin_2*%
%TO.N,Net-(J17-Pin_1)*%
X192000000Y-95000000D03*
%TO.P,RT3,3,Pin_3*%
%TO.N,Net-(J11-Pin_1)*%
X194000000Y-95000000D03*
%TD*%
D12*
%TO.P,J1,1,Pin_1*%
%TO.N,/CH0_A*%
X171000000Y-92500000D03*
D13*
%TO.P,J1,2,Pin_2*%
%TO.N,/CH0_B*%
X171000000Y-87500000D03*
%TD*%
D14*
%TO.P,J2,1,Pin_1*%
%TO.N,/GND*%
X160000000Y-93500000D03*
D15*
%TO.P,J2,2,Pin_2*%
%TO.N,/VBUS*%
X160000000Y-86300000D03*
%TD*%
D12*
%TO.P,J3,1,Pin_1*%
%TO.N,/CH1_A*%
X181000000Y-92500000D03*
D13*
%TO.P,J3,2,Pin_2*%
%TO.N,/CH1_B*%
X181000000Y-87500000D03*
%TD*%
D16*
%TO.N,/CH1_A*%
X182400000Y-98500000D03*
X182400000Y-97450000D03*
X181400000Y-98500000D03*
X183400000Y-97450000D03*
X179400000Y-96300000D03*
X183400000Y-96300000D03*
X179400000Y-97450000D03*
X179400000Y-98500000D03*
X180400000Y-97450000D03*
X181400000Y-97450000D03*
X182400000Y-96300000D03*
X183400000Y-98500000D03*
X178400000Y-97450000D03*
X180400000Y-98500000D03*
X178400000Y-96300000D03*
X181400000Y-96300000D03*
X180400000Y-96300000D03*
X178400000Y-98500000D03*
%TO.N,/CH1_B*%
X182600000Y-82650000D03*
X179600000Y-82650000D03*
X178600000Y-82650000D03*
X182600000Y-83700000D03*
X183600000Y-81500000D03*
X181600000Y-83700000D03*
X180600000Y-81500000D03*
X183600000Y-82650000D03*
X179600000Y-81500000D03*
X182600000Y-81500000D03*
X181600000Y-81500000D03*
X180600000Y-83700000D03*
X183600000Y-83700000D03*
X179600000Y-83700000D03*
X178600000Y-81500000D03*
X180600000Y-82650000D03*
X178600000Y-83700000D03*
X181600000Y-82650000D03*
%TO.N,/VBUS*%
X163500000Y-78100000D03*
X163500000Y-79250000D03*
X159500000Y-79250000D03*
X162500000Y-79250000D03*
X156500000Y-78100000D03*
X162500000Y-80300000D03*
X158500000Y-78100000D03*
X161500000Y-79250000D03*
X163500000Y-80300000D03*
X161500000Y-80300000D03*
X157500000Y-80300000D03*
X158500000Y-79250000D03*
X160500000Y-79250000D03*
X157500000Y-78100000D03*
X159500000Y-78100000D03*
X162500000Y-78100000D03*
X159500000Y-80300000D03*
X158500000Y-80300000D03*
X156500000Y-79250000D03*
X156500000Y-80300000D03*
X160500000Y-78100000D03*
X160500000Y-80300000D03*
X161500000Y-78100000D03*
X157500000Y-79250000D03*
%TO.N,/GND*%
X156550000Y-100450000D03*
X156550000Y-101500000D03*
X157550000Y-99300000D03*
X162550000Y-100450000D03*
X160550000Y-100450000D03*
X163550000Y-101500000D03*
X161550000Y-100450000D03*
X162550000Y-99300000D03*
X161550000Y-101500000D03*
X161550000Y-99300000D03*
X159550000Y-101500000D03*
X160550000Y-101500000D03*
X156550000Y-99300000D03*
X158550000Y-99300000D03*
X157550000Y-100450000D03*
X158550000Y-100450000D03*
X157550000Y-101500000D03*
X163550000Y-100450000D03*
X159550000Y-99300000D03*
X160550000Y-99300000D03*
X163550000Y-99300000D03*
X158550000Y-101500000D03*
X162550000Y-101500000D03*
X159550000Y-100450000D03*
%TO.N,/CH0_B*%
X172450000Y-82600000D03*
X171450000Y-82600000D03*
X169450000Y-82600000D03*
X173450000Y-82600000D03*
X173450000Y-83650000D03*
X169450000Y-81450000D03*
X170450000Y-82600000D03*
X169450000Y-83650000D03*
X170450000Y-83650000D03*
X172450000Y-83650000D03*
X170450000Y-81450000D03*
X168450000Y-83650000D03*
X173450000Y-81450000D03*
X171450000Y-81450000D03*
X168450000Y-81450000D03*
X172450000Y-81450000D03*
X171450000Y-83650000D03*
X168450000Y-82600000D03*
%TO.N,/CH0_A*%
X171500000Y-98550000D03*
X169500000Y-97500000D03*
X173500000Y-98550000D03*
X168500000Y-98550000D03*
X171500000Y-96350000D03*
X170500000Y-97500000D03*
X169500000Y-96350000D03*
X171500000Y-97500000D03*
X168500000Y-96350000D03*
X172500000Y-96350000D03*
X172500000Y-97500000D03*
X173500000Y-96350000D03*
X172500000Y-98550000D03*
X173500000Y-97500000D03*
X168500000Y-97500000D03*
X170500000Y-96350000D03*
X170500000Y-98550000D03*
X169500000Y-98550000D03*
%TD*%
%TA.AperFunction,Conductor*%
%TO.N,/CH0_B*%
G36*
X174043039Y-80969685D02*
G01*
X174088794Y-81022489D01*
X174100000Y-81074000D01*
X174100000Y-89426000D01*
X174080315Y-89493039D01*
X174027511Y-89538794D01*
X173976000Y-89550000D01*
X168074000Y-89550000D01*
X168006961Y-89530315D01*
X167961206Y-89477511D01*
X167950000Y-89426000D01*
X167950000Y-81074000D01*
X167969685Y-81006961D01*
X168022489Y-80961206D01*
X168074000Y-80950000D01*
X173976000Y-80950000D01*
X174043039Y-80969685D01*
G37*
%TD.AperFunction*%
%TD*%
%TA.AperFunction,Conductor*%
%TO.N,/GND*%
G36*
X163942896Y-90370044D02*
G01*
X163988982Y-90422559D01*
X164000513Y-90474267D01*
X164049485Y-102325488D01*
X164030078Y-102392608D01*
X163977463Y-102438581D01*
X163925486Y-102450000D01*
X155975553Y-102450000D01*
X155908514Y-102430315D01*
X155862759Y-102377511D01*
X155851563Y-102324457D01*
X155998481Y-90522003D01*
X156018998Y-90455213D01*
X156072367Y-90410119D01*
X156121685Y-90399549D01*
X163875735Y-90350781D01*
X163942896Y-90370044D01*
G37*
%TD.AperFunction*%
%TD*%
%TA.AperFunction,Conductor*%
%TO.N,/VBUS*%
G36*
X164043039Y-77219685D02*
G01*
X164088794Y-77272489D01*
X164100000Y-77324000D01*
X164100000Y-89376000D01*
X164080315Y-89443039D01*
X164027511Y-89488794D01*
X163976000Y-89500000D01*
X156123497Y-89500000D01*
X156056458Y-89480315D01*
X156010703Y-89427511D01*
X155999498Y-89376504D01*
X155950506Y-77324504D01*
X155969918Y-77257385D01*
X156022535Y-77211416D01*
X156074505Y-77200000D01*
X163976000Y-77200000D01*
X164043039Y-77219685D01*
G37*
%TD.AperFunction*%
%TD*%
%TA.AperFunction,Conductor*%
%TO.N,/CH1_B*%
G36*
X184093039Y-80919685D02*
G01*
X184138794Y-80972489D01*
X184150000Y-81024000D01*
X184150000Y-89376000D01*
X184130315Y-89443039D01*
X184077511Y-89488794D01*
X184026000Y-89500000D01*
X178024723Y-89500000D01*
X177957684Y-89480315D01*
X177911929Y-89427511D01*
X177900725Y-89375279D01*
X177949283Y-81023279D01*
X177969357Y-80956355D01*
X178022426Y-80910908D01*
X178073281Y-80900000D01*
X184026000Y-80900000D01*
X184093039Y-80919685D01*
G37*
%TD.AperFunction*%
%TD*%
%TA.AperFunction,Conductor*%
%TO.N,/CH0_A*%
G36*
X174043039Y-90419685D02*
G01*
X174088794Y-90472489D01*
X174100000Y-90524000D01*
X174100000Y-98876000D01*
X174080315Y-98943039D01*
X174027511Y-98988794D01*
X173976000Y-99000000D01*
X167974723Y-99000000D01*
X167907684Y-98980315D01*
X167861929Y-98927511D01*
X167850725Y-98875279D01*
X167899283Y-90523279D01*
X167919357Y-90456355D01*
X167972426Y-90410908D01*
X168023281Y-90400000D01*
X173976000Y-90400000D01*
X174043039Y-90419685D01*
G37*
%TD.AperFunction*%
%TD*%
%TA.AperFunction,Conductor*%
%TO.N,/CH1_A*%
G36*
X183993039Y-90469685D02*
G01*
X184038794Y-90522489D01*
X184050000Y-90574000D01*
X184050000Y-98926000D01*
X184030315Y-98993039D01*
X183977511Y-99038794D01*
X183926000Y-99050000D01*
X177924723Y-99050000D01*
X177857684Y-99030315D01*
X177811929Y-98977511D01*
X177800725Y-98925279D01*
X177849283Y-90573279D01*
X177869357Y-90506355D01*
X177922426Y-90460908D01*
X177973281Y-90450000D01*
X183926000Y-90450000D01*
X183993039Y-90469685D01*
G37*
%TD.AperFunction*%
%TD*%
M02*
