%TF.GenerationSoftware,KiCad,Pcbnew,9.0.8-9.0.8~ubuntu22.04.1*%
%TF.CreationDate,2026-03-28T21:05:31+05:00*%
%TF.ProjectId,SMD_PCB,534d445f-5043-4422-9e6b-696361645f70,rev?*%
%TF.SameCoordinates,Original*%
%TF.FileFunction,Soldermask,Top*%
%TF.FilePolarity,Negative*%
%FSLAX46Y46*%
G04 Gerber Fmt 4.6, Leading zero omitted, Abs format (unit mm)*
G04 Created by KiCad (PCBNEW 9.0.8-9.0.8~ubuntu22.04.1) date 2026-03-28 21:05:31*
%MOMM*%
%LPD*%
G01*
G04 APERTURE LIST*
G04 Aperture macros list*
%AMRoundRect*
0 Rectangle with rounded corners*
0 $1 Rounding radius*
0 $2 $3 $4 $5 $6 $7 $8 $9 X,Y pos of 4 corners*
0 Add a 4 corners polygon primitive as box body*
4,1,4,$2,$3,$4,$5,$6,$7,$8,$9,$2,$3,0*
0 Add four circle primitives for the rounded corners*
1,1,$1+$1,$2,$3*
1,1,$1+$1,$4,$5*
1,1,$1+$1,$6,$7*
1,1,$1+$1,$8,$9*
0 Add four rect primitives between the rounded corners*
20,1,$1+$1,$2,$3,$4,$5,0*
20,1,$1+$1,$4,$5,$6,$7,0*
20,1,$1+$1,$6,$7,$8,$9,0*
20,1,$1+$1,$8,$9,$2,$3,0*%
G04 Aperture macros list end*
%ADD10RoundRect,0.150000X0.150000X-0.875000X0.150000X0.875000X-0.150000X0.875000X-0.150000X-0.875000X0*%
%ADD11RoundRect,0.250000X0.475000X-0.250000X0.475000X0.250000X-0.475000X0.250000X-0.475000X-0.250000X0*%
%ADD12RoundRect,0.250000X-0.450000X0.262500X-0.450000X-0.262500X0.450000X-0.262500X0.450000X0.262500X0*%
%ADD13RoundRect,0.250000X0.350000X-0.350000X0.350000X0.350000X-0.350000X0.350000X-0.350000X-0.350000X0*%
%ADD14C,1.200000*%
%ADD15RoundRect,0.250000X-0.325000X-1.100000X0.325000X-1.100000X0.325000X1.100000X-0.325000X1.100000X0*%
%ADD16RoundRect,0.250000X-0.625000X0.312500X-0.625000X-0.312500X0.625000X-0.312500X0.625000X0.312500X0*%
%ADD17RoundRect,0.250000X0.300000X-2.050000X0.300000X2.050000X-0.300000X2.050000X-0.300000X-2.050000X0*%
%ADD18RoundRect,0.250002X5.149998X-4.449998X5.149998X4.449998X-5.149998X4.449998X-5.149998X-4.449998X0*%
%ADD19RoundRect,0.250000X-0.300000X2.050000X-0.300000X-2.050000X0.300000X-2.050000X0.300000X2.050000X0*%
%ADD20RoundRect,0.250002X-5.149998X4.449998X-5.149998X-4.449998X5.149998X-4.449998X5.149998X4.449998X0*%
%ADD21RoundRect,0.250000X1.000000X0.650000X-1.000000X0.650000X-1.000000X-0.650000X1.000000X-0.650000X0*%
%ADD22RoundRect,0.249999X0.450001X1.800001X-0.450001X1.800001X-0.450001X-1.800001X0.450001X-1.800001X0*%
%ADD23RoundRect,0.150000X-0.150000X0.875000X-0.150000X-0.875000X0.150000X-0.875000X0.150000X0.875000X0*%
%ADD24RoundRect,0.250000X0.450000X-0.262500X0.450000X0.262500X-0.450000X0.262500X-0.450000X-0.262500X0*%
%ADD25C,1.400000*%
%ADD26RoundRect,0.770000X0.980000X-0.980000X0.980000X0.980000X-0.980000X0.980000X-0.980000X-0.980000X0*%
%ADD27C,3.500000*%
%ADD28RoundRect,0.250000X0.325000X0.650000X-0.325000X0.650000X-0.325000X-0.650000X0.325000X-0.650000X0*%
%ADD29RoundRect,0.250000X0.250000X0.475000X-0.250000X0.475000X-0.250000X-0.475000X0.250000X-0.475000X0*%
%ADD30RoundRect,0.250000X-0.650000X0.325000X-0.650000X-0.325000X0.650000X-0.325000X0.650000X0.325000X0*%
%ADD31RoundRect,0.225000X0.375000X-0.225000X0.375000X0.225000X-0.375000X0.225000X-0.375000X-0.225000X0*%
%ADD32RoundRect,0.100000X-0.100000X-0.100000X0.100000X-0.100000X0.100000X0.100000X-0.100000X0.100000X0*%
%ADD33RoundRect,0.075000X-0.075000X0.262500X-0.075000X-0.262500X0.075000X-0.262500X0.075000X0.262500X0*%
%ADD34RoundRect,0.225000X-0.250000X0.225000X-0.250000X-0.225000X0.250000X-0.225000X0.250000X0.225000X0*%
%ADD35RoundRect,0.250000X-0.325000X-0.650000X0.325000X-0.650000X0.325000X0.650000X-0.325000X0.650000X0*%
%ADD36RoundRect,0.250000X0.625000X-0.312500X0.625000X0.312500X-0.625000X0.312500X-0.625000X-0.312500X0*%
%ADD37R,1.700000X1.700000*%
%ADD38C,1.700000*%
%ADD39RoundRect,0.250000X-1.000000X-0.650000X1.000000X-0.650000X1.000000X0.650000X-1.000000X0.650000X0*%
%ADD40RoundRect,0.225000X-0.375000X0.225000X-0.375000X-0.225000X0.375000X-0.225000X0.375000X0.225000X0*%
%ADD41R,0.600000X1.550000*%
%ADD42R,3.100000X2.600000*%
%ADD43RoundRect,0.250000X0.262500X0.450000X-0.262500X0.450000X-0.262500X-0.450000X0.262500X-0.450000X0*%
%ADD44RoundRect,0.225000X0.225000X0.250000X-0.225000X0.250000X-0.225000X-0.250000X0.225000X-0.250000X0*%
%ADD45R,5.400000X2.900000*%
%ADD46RoundRect,0.250000X0.900000X-1.000000X0.900000X1.000000X-0.900000X1.000000X-0.900000X-1.000000X0*%
%ADD47RoundRect,0.250000X0.650000X-0.325000X0.650000X0.325000X-0.650000X0.325000X-0.650000X-0.325000X0*%
G04 APERTURE END LIST*
D10*
%TO.C,B_L2*%
X141833600Y-85144400D03*
X143103600Y-85144400D03*
X144373600Y-85144400D03*
X145643600Y-85144400D03*
X146913600Y-85144400D03*
X148183600Y-85144400D03*
X149453600Y-85144400D03*
X150723600Y-85144400D03*
X150723600Y-75844400D03*
X149453600Y-75844400D03*
X148183600Y-75844400D03*
X146913600Y-75844400D03*
X145643600Y-75844400D03*
X144373600Y-75844400D03*
X143103600Y-75844400D03*
X141833600Y-75844400D03*
%TD*%
D11*
%TO.C,C3*%
X96707400Y-82516400D03*
X96707400Y-80616400D03*
%TD*%
D12*
%TO.C,R1*%
X102346200Y-88362200D03*
X102346200Y-90187200D03*
%TD*%
D13*
%TO.C,J4*%
X148037800Y-62457600D03*
D14*
X150037800Y-62457600D03*
X148037800Y-60457600D03*
X150037800Y-60457600D03*
X148037800Y-58457600D03*
X150037800Y-58457600D03*
X148037800Y-56457600D03*
X150037800Y-56457600D03*
X148037800Y-54457600D03*
X150037800Y-54457600D03*
%TD*%
D15*
%TO.C,C1*%
X95181600Y-92676400D03*
X98131600Y-92676400D03*
%TD*%
D16*
%TO.C,R9*%
X133985000Y-88544400D03*
X133985000Y-91469400D03*
%TD*%
D17*
%TO.C,Q3*%
X121936000Y-62512600D03*
D18*
X124476000Y-53362600D03*
D17*
X127016000Y-62512600D03*
%TD*%
%TO.C,Q2*%
X108972600Y-62512600D03*
D18*
X111512600Y-53362600D03*
D17*
X114052600Y-62512600D03*
%TD*%
D19*
%TO.C,Q8*%
X126786200Y-99051200D03*
D20*
X124246200Y-108201200D03*
D19*
X121706200Y-99051200D03*
%TD*%
D21*
%TO.C,D13*%
X143840200Y-91948000D03*
X139840200Y-91948000D03*
%TD*%
D22*
%TO.C,L3*%
X147598400Y-97842700D03*
X144898400Y-97842700D03*
%TD*%
D23*
%TO.C,A_L2*%
X139827000Y-75844400D03*
X138557000Y-75844400D03*
X137287000Y-75844400D03*
X136017000Y-75844400D03*
X134747000Y-75844400D03*
X133477000Y-75844400D03*
X132207000Y-75844400D03*
X130937000Y-75844400D03*
X130937000Y-85144400D03*
X132207000Y-85144400D03*
X133477000Y-85144400D03*
X134747000Y-85144400D03*
X136017000Y-85144400D03*
X137287000Y-85144400D03*
X138557000Y-85144400D03*
X139827000Y-85144400D03*
%TD*%
D24*
%TO.C,R10*%
X98806000Y-82498700D03*
X98806000Y-80673700D03*
%TD*%
D25*
%TO.C,J1*%
X84683600Y-64235600D03*
X84683600Y-53235600D03*
D26*
X89683600Y-61235600D03*
D27*
X89683600Y-56235600D03*
%TD*%
D28*
%TO.C,C14*%
X141253000Y-88896400D03*
X138303000Y-88896400D03*
%TD*%
D29*
%TO.C,C2*%
X99070200Y-78740000D03*
X97170200Y-78740000D03*
%TD*%
%TO.C,C24*%
X146012200Y-106959400D03*
X144112200Y-106959400D03*
%TD*%
D30*
%TO.C,C16*%
X150241000Y-69633900D03*
X150241000Y-72583900D03*
%TD*%
D23*
%TO.C,A_L1*%
X114477800Y-75844400D03*
X113207800Y-75844400D03*
X111937800Y-75844400D03*
X110667800Y-75844400D03*
X109397800Y-75844400D03*
X108127800Y-75844400D03*
X106857800Y-75844400D03*
X105587800Y-75844400D03*
X105587800Y-85144400D03*
X106857800Y-85144400D03*
X108127800Y-85144400D03*
X109397800Y-85144400D03*
X110667800Y-85144400D03*
X111937800Y-85144400D03*
X113207800Y-85144400D03*
X114477800Y-85144400D03*
%TD*%
D16*
%TO.C,R6*%
X124926000Y-88495400D03*
X124926000Y-91420400D03*
%TD*%
D28*
%TO.C,C13*%
X115684000Y-88593400D03*
X112734000Y-88593400D03*
%TD*%
%TO.C,C19*%
X103717800Y-78604800D03*
X100767800Y-78604800D03*
%TD*%
D31*
%TO.C,D5*%
X133477000Y-72614900D03*
X133477000Y-69314900D03*
%TD*%
D32*
%TO.C,C23*%
X149858600Y-103000000D03*
X150498600Y-103000000D03*
%TD*%
D33*
%TO.C,U4*%
X148877800Y-101700900D03*
X148377800Y-101700900D03*
X147877800Y-101700900D03*
X147877800Y-103125900D03*
X148377800Y-103125900D03*
X148877800Y-103125900D03*
%TD*%
D31*
%TO.C,D6*%
X147680000Y-72663900D03*
X147680000Y-69363900D03*
%TD*%
D21*
%TO.C,D12*%
X118668800Y-91643200D03*
X114668800Y-91643200D03*
%TD*%
D34*
%TO.C,C22*%
X146506200Y-101385700D03*
X146506200Y-102935700D03*
%TD*%
D12*
%TO.C,R12*%
X100888800Y-80669700D03*
X100888800Y-82494700D03*
%TD*%
D35*
%TO.C,C10*%
X140335000Y-72288400D03*
X143285000Y-72288400D03*
%TD*%
%TO.C,C9*%
X135509000Y-72288400D03*
X138459000Y-72288400D03*
%TD*%
D36*
%TO.C,R4*%
X131191000Y-72542400D03*
X131191000Y-69617400D03*
%TD*%
D10*
%TO.C,B_L1*%
X116459000Y-85144400D03*
X117729000Y-85144400D03*
X118999000Y-85144400D03*
X120269000Y-85144400D03*
X121539000Y-85144400D03*
X122809000Y-85144400D03*
X124079000Y-85144400D03*
X125349000Y-85144400D03*
X125349000Y-75844400D03*
X124079000Y-75844400D03*
X122809000Y-75844400D03*
X121539000Y-75844400D03*
X120269000Y-75844400D03*
X118999000Y-75844400D03*
X117729000Y-75844400D03*
X116459000Y-75844400D03*
%TD*%
D37*
%TO.C,J5*%
X128193800Y-68199000D03*
D38*
X128193800Y-70739000D03*
X128193800Y-73279000D03*
X128193800Y-75819000D03*
X128193800Y-78359000D03*
X128193800Y-80899000D03*
X128193800Y-83439000D03*
X128193800Y-85979000D03*
X128193800Y-88519000D03*
X128193800Y-91059000D03*
X128193800Y-93599000D03*
%TD*%
D17*
%TO.C,Q1*%
X96009200Y-62512600D03*
D18*
X98549200Y-53362600D03*
D17*
X101089200Y-62512600D03*
%TD*%
D12*
%TO.C,R13*%
X102066800Y-91840100D03*
X102066800Y-93665100D03*
%TD*%
D39*
%TO.C,D2*%
X112173000Y-69062600D03*
X116173000Y-69062600D03*
%TD*%
D24*
%TO.C,R15*%
X150225000Y-107008300D03*
X150225000Y-105183300D03*
%TD*%
D19*
%TO.C,Q6*%
X101111000Y-99051200D03*
D20*
X98571000Y-108201200D03*
D19*
X96031000Y-99051200D03*
%TD*%
D40*
%TO.C,D10*%
X136271000Y-88388400D03*
X136271000Y-91688400D03*
%TD*%
D39*
%TO.C,D11*%
X137554200Y-69240400D03*
X141554200Y-69240400D03*
%TD*%
D31*
%TO.C,D4*%
X108331000Y-72595100D03*
X108331000Y-69295100D03*
%TD*%
D34*
%TO.C,C4*%
X94904000Y-85221200D03*
X94904000Y-86771200D03*
%TD*%
D41*
%TO.C,U1*%
X96647000Y-89905800D03*
X97917000Y-89905800D03*
X99187000Y-89905800D03*
X100457000Y-89905800D03*
X100457000Y-84505800D03*
X99187000Y-84505800D03*
X97917000Y-84505800D03*
X96647000Y-84505800D03*
D42*
X98552000Y-87205800D03*
%TD*%
D43*
%TO.C,R16*%
X145966400Y-108991400D03*
X144141400Y-108991400D03*
%TD*%
D44*
%TO.C,C21*%
X150949380Y-98344280D03*
X149399380Y-98344280D03*
%TD*%
D40*
%TO.C,D8*%
X108416000Y-88544400D03*
X108416000Y-91844400D03*
%TD*%
%TO.C,D9*%
X148209000Y-88388400D03*
X148209000Y-91688400D03*
%TD*%
D28*
%TO.C,C12*%
X120608000Y-88749400D03*
X117658000Y-88749400D03*
%TD*%
D17*
%TO.C,Q4*%
X134899400Y-62512600D03*
D18*
X137439400Y-53362600D03*
D17*
X139979400Y-62512600D03*
%TD*%
D31*
%TO.C,D3*%
X124968000Y-72691100D03*
X124968000Y-69391100D03*
%TD*%
D36*
%TO.C,R2*%
X122682000Y-72618600D03*
X122682000Y-69693600D03*
%TD*%
D19*
%TO.C,Q7*%
X139623800Y-99051200D03*
D20*
X137083800Y-108201200D03*
D19*
X134543800Y-99051200D03*
%TD*%
D36*
%TO.C,R5*%
X145394000Y-72591400D03*
X145394000Y-69666400D03*
%TD*%
%TO.C,R3*%
X105829000Y-72534400D03*
X105829000Y-69609400D03*
%TD*%
D35*
%TO.C,C5*%
X115316000Y-72110600D03*
X118266000Y-72110600D03*
%TD*%
D29*
%TO.C,C20*%
X151352600Y-100154100D03*
X149452600Y-100154100D03*
%TD*%
D24*
%TO.C,R17*%
X148222400Y-106984800D03*
X148222400Y-105159800D03*
%TD*%
D45*
%TO.C,L1*%
X89814400Y-68328800D03*
X89814400Y-78028800D03*
%TD*%
D25*
%TO.C,J2*%
X84683600Y-108000000D03*
X84683600Y-97000000D03*
D26*
X89683600Y-105000000D03*
D27*
X89683600Y-100000000D03*
%TD*%
D46*
%TO.C,D15*%
X98907600Y-72720200D03*
X98907600Y-68420200D03*
%TD*%
D16*
%TO.C,R8*%
X150495000Y-88388400D03*
X150495000Y-91313400D03*
%TD*%
D24*
%TO.C,R11*%
X102879600Y-82514500D03*
X102879600Y-80689500D03*
%TD*%
D19*
%TO.C,Q5*%
X113948600Y-99051200D03*
D20*
X111408600Y-108201200D03*
D19*
X108868600Y-99051200D03*
%TD*%
D30*
%TO.C,C8*%
X120396000Y-69661100D03*
X120396000Y-72611100D03*
%TD*%
D47*
%TO.C,C11*%
X131699000Y-91494400D03*
X131699000Y-88544400D03*
%TD*%
D25*
%TO.C,J6*%
X84683600Y-93550000D03*
X84683600Y-82550000D03*
D26*
X89683600Y-90550000D03*
D27*
X89683600Y-85550000D03*
%TD*%
D35*
%TO.C,C6*%
X110490000Y-72110600D03*
X113440000Y-72110600D03*
%TD*%
D28*
%TO.C,C15*%
X146079000Y-88896400D03*
X143129000Y-88896400D03*
%TD*%
D40*
%TO.C,D7*%
X122605800Y-88392000D03*
X122605800Y-91692000D03*
%TD*%
D44*
%TO.C,C25*%
X145618200Y-105156000D03*
X144068200Y-105156000D03*
%TD*%
D16*
%TO.C,R7*%
X110702000Y-88339400D03*
X110702000Y-91264400D03*
%TD*%
D24*
%TO.C,R14*%
X100060200Y-93663200D03*
X100060200Y-91838200D03*
%TD*%
D47*
%TO.C,C7*%
X105876000Y-91191400D03*
X105876000Y-88241400D03*
%TD*%
M02*
