%TF.GenerationSoftware,KiCad,Pcbnew,9.0.7-9.0.7~ubuntu22.04.1*%
%TF.CreationDate,2026-03-14T17:58:07+05:00*%
%TF.ProjectId,SMD_PCB,534d445f-5043-4422-9e6b-696361645f70,rev?*%
%TF.SameCoordinates,Original*%
%TF.FileFunction,Legend,Top*%
%TF.FilePolarity,Positive*%
%FSLAX46Y46*%
G04 Gerber Fmt 4.6, Leading zero omitted, Abs format (unit mm)*
G04 Created by KiCad (PCBNEW 9.0.7-9.0.7~ubuntu22.04.1) date 2026-03-14 17:58:07*
%MOMM*%
%LPD*%
G01*
G04 APERTURE LIST*
%ADD10C,0.100000*%
%ADD11C,0.150000*%
%ADD12C,0.200000*%
%ADD13C,0.120000*%
G04 APERTURE END LIST*
D10*
X82804000Y-77698600D02*
X86512400Y-77698600D01*
X111150400Y-113487200D02*
X111150400Y-115697000D01*
X82804000Y-87909400D02*
X86487000Y-87909400D01*
X152298400Y-54483000D02*
X144119600Y-54483000D01*
X82804000Y-75209400D02*
X86537800Y-75209400D01*
X82829400Y-96735900D02*
X91008200Y-96735900D01*
X91008200Y-109969300D01*
X82829400Y-109969300D01*
X82829400Y-96735900D01*
X82778600Y-93040200D02*
X95732600Y-93040200D01*
X95732600Y-95580200D01*
X82778600Y-95580200D01*
X82778600Y-93040200D01*
X82778600Y-72567800D02*
X86537800Y-72567800D01*
X91033600Y-104317800D02*
X82854800Y-104317800D01*
X91008200Y-99136200D02*
X82829400Y-99136200D01*
X82804000Y-90398600D02*
X86537800Y-90398600D01*
X92354400Y-113487200D02*
X117957600Y-113487200D01*
X117957600Y-115697000D01*
X92354400Y-115697000D01*
X92354400Y-113487200D01*
X101371400Y-113512600D02*
X101371400Y-115697000D01*
X82778600Y-67157600D02*
X86537800Y-67157600D01*
X86537800Y-93040200D01*
X82778600Y-93040200D01*
X82778600Y-67157600D01*
X89662000Y-53695600D02*
X82905600Y-53695600D01*
X82905600Y-51384200D02*
X89712800Y-51384200D01*
X89712800Y-66294000D01*
X82905600Y-66294000D01*
X82905600Y-51384200D01*
X82778600Y-80098900D02*
X86537800Y-80098900D01*
X82778600Y-82854800D02*
X86537800Y-82854800D01*
X96723200Y-113487200D02*
X96723200Y-115671600D01*
X114604800Y-113487200D02*
X114604800Y-115671600D01*
X152323800Y-59664600D02*
X144145000Y-59664600D01*
X106248200Y-113512600D02*
X106248200Y-115646200D01*
X82778600Y-70053200D02*
X86487000Y-70053200D01*
X144119600Y-52082700D02*
X152298400Y-52082700D01*
X152298400Y-65316100D01*
X144119600Y-65316100D01*
X144119600Y-52082700D01*
X82778600Y-85445600D02*
X86512400Y-85445600D01*
D11*
X83064552Y-91913904D02*
X83540742Y-91913904D01*
X82969314Y-92199619D02*
X83302647Y-91199619D01*
X83302647Y-91199619D02*
X83635980Y-92199619D01*
X83921695Y-91294857D02*
X83969314Y-91247238D01*
X83969314Y-91247238D02*
X84064552Y-91199619D01*
X84064552Y-91199619D02*
X84302647Y-91199619D01*
X84302647Y-91199619D02*
X84397885Y-91247238D01*
X84397885Y-91247238D02*
X84445504Y-91294857D01*
X84445504Y-91294857D02*
X84493123Y-91390095D01*
X84493123Y-91390095D02*
X84493123Y-91485333D01*
X84493123Y-91485333D02*
X84445504Y-91628190D01*
X84445504Y-91628190D02*
X83874076Y-92199619D01*
X83874076Y-92199619D02*
X84493123Y-92199619D01*
X84683600Y-92294857D02*
X85445504Y-92294857D01*
X85683600Y-92199619D02*
X85683600Y-91199619D01*
X85683600Y-91675809D02*
X86255028Y-91675809D01*
X86255028Y-92199619D02*
X86255028Y-91199619D01*
X83323276Y-73819609D02*
X83466133Y-73867228D01*
X83466133Y-73867228D02*
X83513752Y-73914847D01*
X83513752Y-73914847D02*
X83561371Y-74010085D01*
X83561371Y-74010085D02*
X83561371Y-74152942D01*
X83561371Y-74152942D02*
X83513752Y-74248180D01*
X83513752Y-74248180D02*
X83466133Y-74295800D01*
X83466133Y-74295800D02*
X83370895Y-74343419D01*
X83370895Y-74343419D02*
X82989943Y-74343419D01*
X82989943Y-74343419D02*
X82989943Y-73343419D01*
X82989943Y-73343419D02*
X83323276Y-73343419D01*
X83323276Y-73343419D02*
X83418514Y-73391038D01*
X83418514Y-73391038D02*
X83466133Y-73438657D01*
X83466133Y-73438657D02*
X83513752Y-73533895D01*
X83513752Y-73533895D02*
X83513752Y-73629133D01*
X83513752Y-73629133D02*
X83466133Y-73724371D01*
X83466133Y-73724371D02*
X83418514Y-73771990D01*
X83418514Y-73771990D02*
X83323276Y-73819609D01*
X83323276Y-73819609D02*
X82989943Y-73819609D01*
X84513752Y-74343419D02*
X83942324Y-74343419D01*
X84228038Y-74343419D02*
X84228038Y-73343419D01*
X84228038Y-73343419D02*
X84132800Y-73486276D01*
X84132800Y-73486276D02*
X84037562Y-73581514D01*
X84037562Y-73581514D02*
X83942324Y-73629133D01*
X84704229Y-74438657D02*
X85466133Y-74438657D01*
X85704229Y-74343419D02*
X85704229Y-73343419D01*
X85704229Y-73819609D02*
X86275657Y-73819609D01*
X86275657Y-74343419D02*
X86275657Y-73343419D01*
X101583052Y-114780266D02*
X102344957Y-114780266D01*
X101964004Y-115161219D02*
X101964004Y-114399314D01*
X103297337Y-114161219D02*
X102821147Y-114161219D01*
X102821147Y-114161219D02*
X102773528Y-114637409D01*
X102773528Y-114637409D02*
X102821147Y-114589790D01*
X102821147Y-114589790D02*
X102916385Y-114542171D01*
X102916385Y-114542171D02*
X103154480Y-114542171D01*
X103154480Y-114542171D02*
X103249718Y-114589790D01*
X103249718Y-114589790D02*
X103297337Y-114637409D01*
X103297337Y-114637409D02*
X103344956Y-114732647D01*
X103344956Y-114732647D02*
X103344956Y-114970742D01*
X103344956Y-114970742D02*
X103297337Y-115065980D01*
X103297337Y-115065980D02*
X103249718Y-115113600D01*
X103249718Y-115113600D02*
X103154480Y-115161219D01*
X103154480Y-115161219D02*
X102916385Y-115161219D01*
X102916385Y-115161219D02*
X102821147Y-115113600D01*
X102821147Y-115113600D02*
X102773528Y-115065980D01*
X103773528Y-115065980D02*
X103821147Y-115113600D01*
X103821147Y-115113600D02*
X103773528Y-115161219D01*
X103773528Y-115161219D02*
X103725909Y-115113600D01*
X103725909Y-115113600D02*
X103773528Y-115065980D01*
X103773528Y-115065980D02*
X103773528Y-115161219D01*
X104440194Y-114161219D02*
X104535432Y-114161219D01*
X104535432Y-114161219D02*
X104630670Y-114208838D01*
X104630670Y-114208838D02*
X104678289Y-114256457D01*
X104678289Y-114256457D02*
X104725908Y-114351695D01*
X104725908Y-114351695D02*
X104773527Y-114542171D01*
X104773527Y-114542171D02*
X104773527Y-114780266D01*
X104773527Y-114780266D02*
X104725908Y-114970742D01*
X104725908Y-114970742D02*
X104678289Y-115065980D01*
X104678289Y-115065980D02*
X104630670Y-115113600D01*
X104630670Y-115113600D02*
X104535432Y-115161219D01*
X104535432Y-115161219D02*
X104440194Y-115161219D01*
X104440194Y-115161219D02*
X104344956Y-115113600D01*
X104344956Y-115113600D02*
X104297337Y-115065980D01*
X104297337Y-115065980D02*
X104249718Y-114970742D01*
X104249718Y-114970742D02*
X104202099Y-114780266D01*
X104202099Y-114780266D02*
X104202099Y-114542171D01*
X104202099Y-114542171D02*
X104249718Y-114351695D01*
X104249718Y-114351695D02*
X104297337Y-114256457D01*
X104297337Y-114256457D02*
X104344956Y-114208838D01*
X104344956Y-114208838D02*
X104440194Y-114161219D01*
X105059242Y-114161219D02*
X105392575Y-115161219D01*
X105392575Y-115161219D02*
X105725908Y-114161219D01*
X115544695Y-114208838D02*
X115449457Y-114161219D01*
X115449457Y-114161219D02*
X115306600Y-114161219D01*
X115306600Y-114161219D02*
X115163743Y-114208838D01*
X115163743Y-114208838D02*
X115068505Y-114304076D01*
X115068505Y-114304076D02*
X115020886Y-114399314D01*
X115020886Y-114399314D02*
X114973267Y-114589790D01*
X114973267Y-114589790D02*
X114973267Y-114732647D01*
X114973267Y-114732647D02*
X115020886Y-114923123D01*
X115020886Y-114923123D02*
X115068505Y-115018361D01*
X115068505Y-115018361D02*
X115163743Y-115113600D01*
X115163743Y-115113600D02*
X115306600Y-115161219D01*
X115306600Y-115161219D02*
X115401838Y-115161219D01*
X115401838Y-115161219D02*
X115544695Y-115113600D01*
X115544695Y-115113600D02*
X115592314Y-115065980D01*
X115592314Y-115065980D02*
X115592314Y-114732647D01*
X115592314Y-114732647D02*
X115401838Y-114732647D01*
X116020886Y-115161219D02*
X116020886Y-114161219D01*
X116020886Y-114161219D02*
X116592314Y-115161219D01*
X116592314Y-115161219D02*
X116592314Y-114161219D01*
X117068505Y-115161219D02*
X117068505Y-114161219D01*
X117068505Y-114161219D02*
X117306600Y-114161219D01*
X117306600Y-114161219D02*
X117449457Y-114208838D01*
X117449457Y-114208838D02*
X117544695Y-114304076D01*
X117544695Y-114304076D02*
X117592314Y-114399314D01*
X117592314Y-114399314D02*
X117639933Y-114589790D01*
X117639933Y-114589790D02*
X117639933Y-114732647D01*
X117639933Y-114732647D02*
X117592314Y-114923123D01*
X117592314Y-114923123D02*
X117544695Y-115018361D01*
X117544695Y-115018361D02*
X117449457Y-115113600D01*
X117449457Y-115113600D02*
X117306600Y-115161219D01*
X117306600Y-115161219D02*
X117068505Y-115161219D01*
X83893866Y-108845170D02*
X83893866Y-108083266D01*
X84274819Y-107607075D02*
X83608152Y-107607075D01*
X83274819Y-107607075D02*
X83322438Y-107654694D01*
X83322438Y-107654694D02*
X83370057Y-107607075D01*
X83370057Y-107607075D02*
X83322438Y-107559456D01*
X83322438Y-107559456D02*
X83274819Y-107607075D01*
X83274819Y-107607075D02*
X83370057Y-107607075D01*
X83608152Y-107226123D02*
X84274819Y-106988028D01*
X84274819Y-106988028D02*
X83608152Y-106749933D01*
X84227200Y-105988028D02*
X84274819Y-106083266D01*
X84274819Y-106083266D02*
X84274819Y-106273742D01*
X84274819Y-106273742D02*
X84227200Y-106368980D01*
X84227200Y-106368980D02*
X84131961Y-106416599D01*
X84131961Y-106416599D02*
X83751009Y-106416599D01*
X83751009Y-106416599D02*
X83655771Y-106368980D01*
X83655771Y-106368980D02*
X83608152Y-106273742D01*
X83608152Y-106273742D02*
X83608152Y-106083266D01*
X83608152Y-106083266D02*
X83655771Y-105988028D01*
X83655771Y-105988028D02*
X83751009Y-105940409D01*
X83751009Y-105940409D02*
X83846247Y-105940409D01*
X83846247Y-105940409D02*
X83941485Y-106416599D01*
X112017798Y-114208838D02*
X111922560Y-114161219D01*
X111922560Y-114161219D02*
X111779703Y-114161219D01*
X111779703Y-114161219D02*
X111636846Y-114208838D01*
X111636846Y-114208838D02*
X111541608Y-114304076D01*
X111541608Y-114304076D02*
X111493989Y-114399314D01*
X111493989Y-114399314D02*
X111446370Y-114589790D01*
X111446370Y-114589790D02*
X111446370Y-114732647D01*
X111446370Y-114732647D02*
X111493989Y-114923123D01*
X111493989Y-114923123D02*
X111541608Y-115018361D01*
X111541608Y-115018361D02*
X111636846Y-115113600D01*
X111636846Y-115113600D02*
X111779703Y-115161219D01*
X111779703Y-115161219D02*
X111874941Y-115161219D01*
X111874941Y-115161219D02*
X112017798Y-115113600D01*
X112017798Y-115113600D02*
X112065417Y-115065980D01*
X112065417Y-115065980D02*
X112065417Y-114732647D01*
X112065417Y-114732647D02*
X111874941Y-114732647D01*
X112493989Y-115161219D02*
X112493989Y-114161219D01*
X112493989Y-114161219D02*
X113065417Y-115161219D01*
X113065417Y-115161219D02*
X113065417Y-114161219D01*
X113541608Y-115161219D02*
X113541608Y-114161219D01*
X113541608Y-114161219D02*
X113779703Y-114161219D01*
X113779703Y-114161219D02*
X113922560Y-114208838D01*
X113922560Y-114208838D02*
X114017798Y-114304076D01*
X114017798Y-114304076D02*
X114065417Y-114399314D01*
X114065417Y-114399314D02*
X114113036Y-114589790D01*
X114113036Y-114589790D02*
X114113036Y-114732647D01*
X114113036Y-114732647D02*
X114065417Y-114923123D01*
X114065417Y-114923123D02*
X114017798Y-115018361D01*
X114017798Y-115018361D02*
X113922560Y-115113600D01*
X113922560Y-115113600D02*
X113779703Y-115161219D01*
X113779703Y-115161219D02*
X113541608Y-115161219D01*
X88160266Y-112518047D02*
X88160266Y-113232332D01*
X88160266Y-113232332D02*
X88112647Y-113375189D01*
X88112647Y-113375189D02*
X88017409Y-113470428D01*
X88017409Y-113470428D02*
X87874552Y-113518047D01*
X87874552Y-113518047D02*
X87779314Y-113518047D01*
X88541219Y-112518047D02*
X89160266Y-112518047D01*
X89160266Y-112518047D02*
X88826933Y-112898999D01*
X88826933Y-112898999D02*
X88969790Y-112898999D01*
X88969790Y-112898999D02*
X89065028Y-112946618D01*
X89065028Y-112946618D02*
X89112647Y-112994237D01*
X89112647Y-112994237D02*
X89160266Y-113089475D01*
X89160266Y-113089475D02*
X89160266Y-113327570D01*
X89160266Y-113327570D02*
X89112647Y-113422808D01*
X89112647Y-113422808D02*
X89065028Y-113470428D01*
X89065028Y-113470428D02*
X88969790Y-113518047D01*
X88969790Y-113518047D02*
X88684076Y-113518047D01*
X88684076Y-113518047D02*
X88588838Y-113470428D01*
X88588838Y-113470428D02*
X88541219Y-113422808D01*
X85541218Y-115032752D02*
X85493599Y-115080372D01*
X85493599Y-115080372D02*
X85350742Y-115127991D01*
X85350742Y-115127991D02*
X85255504Y-115127991D01*
X85255504Y-115127991D02*
X85112647Y-115080372D01*
X85112647Y-115080372D02*
X85017409Y-114985133D01*
X85017409Y-114985133D02*
X84969790Y-114889895D01*
X84969790Y-114889895D02*
X84922171Y-114699419D01*
X84922171Y-114699419D02*
X84922171Y-114556562D01*
X84922171Y-114556562D02*
X84969790Y-114366086D01*
X84969790Y-114366086D02*
X85017409Y-114270848D01*
X85017409Y-114270848D02*
X85112647Y-114175610D01*
X85112647Y-114175610D02*
X85255504Y-114127991D01*
X85255504Y-114127991D02*
X85350742Y-114127991D01*
X85350742Y-114127991D02*
X85493599Y-114175610D01*
X85493599Y-114175610D02*
X85541218Y-114223229D01*
X86112647Y-115127991D02*
X86017409Y-115080372D01*
X86017409Y-115080372D02*
X85969790Y-115032752D01*
X85969790Y-115032752D02*
X85922171Y-114937514D01*
X85922171Y-114937514D02*
X85922171Y-114651800D01*
X85922171Y-114651800D02*
X85969790Y-114556562D01*
X85969790Y-114556562D02*
X86017409Y-114508943D01*
X86017409Y-114508943D02*
X86112647Y-114461324D01*
X86112647Y-114461324D02*
X86255504Y-114461324D01*
X86255504Y-114461324D02*
X86350742Y-114508943D01*
X86350742Y-114508943D02*
X86398361Y-114556562D01*
X86398361Y-114556562D02*
X86445980Y-114651800D01*
X86445980Y-114651800D02*
X86445980Y-114937514D01*
X86445980Y-114937514D02*
X86398361Y-115032752D01*
X86398361Y-115032752D02*
X86350742Y-115080372D01*
X86350742Y-115080372D02*
X86255504Y-115127991D01*
X86255504Y-115127991D02*
X86112647Y-115127991D01*
X86874552Y-114461324D02*
X86874552Y-115127991D01*
X86874552Y-114556562D02*
X86922171Y-114508943D01*
X86922171Y-114508943D02*
X87017409Y-114461324D01*
X87017409Y-114461324D02*
X87160266Y-114461324D01*
X87160266Y-114461324D02*
X87255504Y-114508943D01*
X87255504Y-114508943D02*
X87303123Y-114604181D01*
X87303123Y-114604181D02*
X87303123Y-115127991D01*
X87779314Y-114461324D02*
X87779314Y-115127991D01*
X87779314Y-114556562D02*
X87826933Y-114508943D01*
X87826933Y-114508943D02*
X87922171Y-114461324D01*
X87922171Y-114461324D02*
X88065028Y-114461324D01*
X88065028Y-114461324D02*
X88160266Y-114508943D01*
X88160266Y-114508943D02*
X88207885Y-114604181D01*
X88207885Y-114604181D02*
X88207885Y-115127991D01*
X89065028Y-115080372D02*
X88969790Y-115127991D01*
X88969790Y-115127991D02*
X88779314Y-115127991D01*
X88779314Y-115127991D02*
X88684076Y-115080372D01*
X88684076Y-115080372D02*
X88636457Y-114985133D01*
X88636457Y-114985133D02*
X88636457Y-114604181D01*
X88636457Y-114604181D02*
X88684076Y-114508943D01*
X88684076Y-114508943D02*
X88779314Y-114461324D01*
X88779314Y-114461324D02*
X88969790Y-114461324D01*
X88969790Y-114461324D02*
X89065028Y-114508943D01*
X89065028Y-114508943D02*
X89112647Y-114604181D01*
X89112647Y-114604181D02*
X89112647Y-114699419D01*
X89112647Y-114699419D02*
X88636457Y-114794657D01*
X89969790Y-115080372D02*
X89874552Y-115127991D01*
X89874552Y-115127991D02*
X89684076Y-115127991D01*
X89684076Y-115127991D02*
X89588838Y-115080372D01*
X89588838Y-115080372D02*
X89541219Y-115032752D01*
X89541219Y-115032752D02*
X89493600Y-114937514D01*
X89493600Y-114937514D02*
X89493600Y-114651800D01*
X89493600Y-114651800D02*
X89541219Y-114556562D01*
X89541219Y-114556562D02*
X89588838Y-114508943D01*
X89588838Y-114508943D02*
X89684076Y-114461324D01*
X89684076Y-114461324D02*
X89874552Y-114461324D01*
X89874552Y-114461324D02*
X89969790Y-114508943D01*
X90255505Y-114461324D02*
X90636457Y-114461324D01*
X90398362Y-114127991D02*
X90398362Y-114985133D01*
X90398362Y-114985133D02*
X90445981Y-115080372D01*
X90445981Y-115080372D02*
X90541219Y-115127991D01*
X90541219Y-115127991D02*
X90636457Y-115127991D01*
X91112648Y-115127991D02*
X91017410Y-115080372D01*
X91017410Y-115080372D02*
X90969791Y-115032752D01*
X90969791Y-115032752D02*
X90922172Y-114937514D01*
X90922172Y-114937514D02*
X90922172Y-114651800D01*
X90922172Y-114651800D02*
X90969791Y-114556562D01*
X90969791Y-114556562D02*
X91017410Y-114508943D01*
X91017410Y-114508943D02*
X91112648Y-114461324D01*
X91112648Y-114461324D02*
X91255505Y-114461324D01*
X91255505Y-114461324D02*
X91350743Y-114508943D01*
X91350743Y-114508943D02*
X91398362Y-114556562D01*
X91398362Y-114556562D02*
X91445981Y-114651800D01*
X91445981Y-114651800D02*
X91445981Y-114937514D01*
X91445981Y-114937514D02*
X91398362Y-115032752D01*
X91398362Y-115032752D02*
X91350743Y-115080372D01*
X91350743Y-115080372D02*
X91255505Y-115127991D01*
X91255505Y-115127991D02*
X91112648Y-115127991D01*
X91874553Y-115127991D02*
X91874553Y-114461324D01*
X91874553Y-114651800D02*
X91922172Y-114556562D01*
X91922172Y-114556562D02*
X91969791Y-114508943D01*
X91969791Y-114508943D02*
X92065029Y-114461324D01*
X92065029Y-114461324D02*
X92160267Y-114461324D01*
X92624495Y-114780266D02*
X93386400Y-114780266D01*
X93005447Y-115161219D02*
X93005447Y-114399314D01*
X94386399Y-115161219D02*
X93814971Y-115161219D01*
X94100685Y-115161219D02*
X94100685Y-114161219D01*
X94100685Y-114161219D02*
X94005447Y-114304076D01*
X94005447Y-114304076D02*
X93910209Y-114399314D01*
X93910209Y-114399314D02*
X93814971Y-114446933D01*
X94767352Y-114256457D02*
X94814971Y-114208838D01*
X94814971Y-114208838D02*
X94910209Y-114161219D01*
X94910209Y-114161219D02*
X95148304Y-114161219D01*
X95148304Y-114161219D02*
X95243542Y-114208838D01*
X95243542Y-114208838D02*
X95291161Y-114256457D01*
X95291161Y-114256457D02*
X95338780Y-114351695D01*
X95338780Y-114351695D02*
X95338780Y-114446933D01*
X95338780Y-114446933D02*
X95291161Y-114589790D01*
X95291161Y-114589790D02*
X94719733Y-115161219D01*
X94719733Y-115161219D02*
X95338780Y-115161219D01*
X95624495Y-114161219D02*
X95957828Y-115161219D01*
X95957828Y-115161219D02*
X96291161Y-114161219D01*
D12*
X83467142Y-53388528D02*
X83467142Y-51888528D01*
X84181428Y-53388528D02*
X84181428Y-51888528D01*
X84181428Y-51888528D02*
X85038571Y-53388528D01*
X85038571Y-53388528D02*
X85038571Y-51888528D01*
X85752857Y-53388528D02*
X85752857Y-51888528D01*
X85752857Y-51888528D02*
X86324286Y-51888528D01*
X86324286Y-51888528D02*
X86467143Y-51959957D01*
X86467143Y-51959957D02*
X86538572Y-52031385D01*
X86538572Y-52031385D02*
X86610000Y-52174242D01*
X86610000Y-52174242D02*
X86610000Y-52388528D01*
X86610000Y-52388528D02*
X86538572Y-52531385D01*
X86538572Y-52531385D02*
X86467143Y-52602814D01*
X86467143Y-52602814D02*
X86324286Y-52674242D01*
X86324286Y-52674242D02*
X85752857Y-52674242D01*
X87252857Y-51888528D02*
X87252857Y-53102814D01*
X87252857Y-53102814D02*
X87324286Y-53245671D01*
X87324286Y-53245671D02*
X87395715Y-53317100D01*
X87395715Y-53317100D02*
X87538572Y-53388528D01*
X87538572Y-53388528D02*
X87824286Y-53388528D01*
X87824286Y-53388528D02*
X87967143Y-53317100D01*
X87967143Y-53317100D02*
X88038572Y-53245671D01*
X88038572Y-53245671D02*
X88110000Y-53102814D01*
X88110000Y-53102814D02*
X88110000Y-51888528D01*
X88610001Y-51888528D02*
X89467144Y-51888528D01*
X89038572Y-53388528D02*
X89038572Y-51888528D01*
D11*
X83366123Y-76410409D02*
X83508980Y-76458028D01*
X83508980Y-76458028D02*
X83556599Y-76505647D01*
X83556599Y-76505647D02*
X83604218Y-76600885D01*
X83604218Y-76600885D02*
X83604218Y-76743742D01*
X83604218Y-76743742D02*
X83556599Y-76838980D01*
X83556599Y-76838980D02*
X83508980Y-76886600D01*
X83508980Y-76886600D02*
X83413742Y-76934219D01*
X83413742Y-76934219D02*
X83032790Y-76934219D01*
X83032790Y-76934219D02*
X83032790Y-75934219D01*
X83032790Y-75934219D02*
X83366123Y-75934219D01*
X83366123Y-75934219D02*
X83461361Y-75981838D01*
X83461361Y-75981838D02*
X83508980Y-76029457D01*
X83508980Y-76029457D02*
X83556599Y-76124695D01*
X83556599Y-76124695D02*
X83556599Y-76219933D01*
X83556599Y-76219933D02*
X83508980Y-76315171D01*
X83508980Y-76315171D02*
X83461361Y-76362790D01*
X83461361Y-76362790D02*
X83366123Y-76410409D01*
X83366123Y-76410409D02*
X83032790Y-76410409D01*
X84556599Y-76934219D02*
X83985171Y-76934219D01*
X84270885Y-76934219D02*
X84270885Y-75934219D01*
X84270885Y-75934219D02*
X84175647Y-76077076D01*
X84175647Y-76077076D02*
X84080409Y-76172314D01*
X84080409Y-76172314D02*
X83985171Y-76219933D01*
X84747076Y-77029457D02*
X85508980Y-77029457D01*
X86223266Y-76934219D02*
X85747076Y-76934219D01*
X85747076Y-76934219D02*
X85747076Y-75934219D01*
X106538520Y-114780266D02*
X107300425Y-114780266D01*
X106919472Y-115161219D02*
X106919472Y-114399314D01*
X108252805Y-114161219D02*
X107776615Y-114161219D01*
X107776615Y-114161219D02*
X107728996Y-114637409D01*
X107728996Y-114637409D02*
X107776615Y-114589790D01*
X107776615Y-114589790D02*
X107871853Y-114542171D01*
X107871853Y-114542171D02*
X108109948Y-114542171D01*
X108109948Y-114542171D02*
X108205186Y-114589790D01*
X108205186Y-114589790D02*
X108252805Y-114637409D01*
X108252805Y-114637409D02*
X108300424Y-114732647D01*
X108300424Y-114732647D02*
X108300424Y-114970742D01*
X108300424Y-114970742D02*
X108252805Y-115065980D01*
X108252805Y-115065980D02*
X108205186Y-115113600D01*
X108205186Y-115113600D02*
X108109948Y-115161219D01*
X108109948Y-115161219D02*
X107871853Y-115161219D01*
X107871853Y-115161219D02*
X107776615Y-115113600D01*
X107776615Y-115113600D02*
X107728996Y-115065980D01*
X108728996Y-115065980D02*
X108776615Y-115113600D01*
X108776615Y-115113600D02*
X108728996Y-115161219D01*
X108728996Y-115161219D02*
X108681377Y-115113600D01*
X108681377Y-115113600D02*
X108728996Y-115065980D01*
X108728996Y-115065980D02*
X108728996Y-115161219D01*
X109395662Y-114161219D02*
X109490900Y-114161219D01*
X109490900Y-114161219D02*
X109586138Y-114208838D01*
X109586138Y-114208838D02*
X109633757Y-114256457D01*
X109633757Y-114256457D02*
X109681376Y-114351695D01*
X109681376Y-114351695D02*
X109728995Y-114542171D01*
X109728995Y-114542171D02*
X109728995Y-114780266D01*
X109728995Y-114780266D02*
X109681376Y-114970742D01*
X109681376Y-114970742D02*
X109633757Y-115065980D01*
X109633757Y-115065980D02*
X109586138Y-115113600D01*
X109586138Y-115113600D02*
X109490900Y-115161219D01*
X109490900Y-115161219D02*
X109395662Y-115161219D01*
X109395662Y-115161219D02*
X109300424Y-115113600D01*
X109300424Y-115113600D02*
X109252805Y-115065980D01*
X109252805Y-115065980D02*
X109205186Y-114970742D01*
X109205186Y-114970742D02*
X109157567Y-114780266D01*
X109157567Y-114780266D02*
X109157567Y-114542171D01*
X109157567Y-114542171D02*
X109205186Y-114351695D01*
X109205186Y-114351695D02*
X109252805Y-114256457D01*
X109252805Y-114256457D02*
X109300424Y-114208838D01*
X109300424Y-114208838D02*
X109395662Y-114161219D01*
X110014710Y-114161219D02*
X110348043Y-115161219D01*
X110348043Y-115161219D02*
X110681376Y-114161219D01*
D12*
X83071971Y-98702128D02*
X83071971Y-97202128D01*
X83071971Y-97202128D02*
X83643400Y-97202128D01*
X83643400Y-97202128D02*
X83786257Y-97273557D01*
X83786257Y-97273557D02*
X83857686Y-97344985D01*
X83857686Y-97344985D02*
X83929114Y-97487842D01*
X83929114Y-97487842D02*
X83929114Y-97702128D01*
X83929114Y-97702128D02*
X83857686Y-97844985D01*
X83857686Y-97844985D02*
X83786257Y-97916414D01*
X83786257Y-97916414D02*
X83643400Y-97987842D01*
X83643400Y-97987842D02*
X83071971Y-97987842D01*
X84214829Y-98844985D02*
X85357686Y-98844985D01*
X86571971Y-98559271D02*
X86500543Y-98630700D01*
X86500543Y-98630700D02*
X86286257Y-98702128D01*
X86286257Y-98702128D02*
X86143400Y-98702128D01*
X86143400Y-98702128D02*
X85929114Y-98630700D01*
X85929114Y-98630700D02*
X85786257Y-98487842D01*
X85786257Y-98487842D02*
X85714828Y-98344985D01*
X85714828Y-98344985D02*
X85643400Y-98059271D01*
X85643400Y-98059271D02*
X85643400Y-97844985D01*
X85643400Y-97844985D02*
X85714828Y-97559271D01*
X85714828Y-97559271D02*
X85786257Y-97416414D01*
X85786257Y-97416414D02*
X85929114Y-97273557D01*
X85929114Y-97273557D02*
X86143400Y-97202128D01*
X86143400Y-97202128D02*
X86286257Y-97202128D01*
X86286257Y-97202128D02*
X86500543Y-97273557D01*
X86500543Y-97273557D02*
X86571971Y-97344985D01*
X87214828Y-98702128D02*
X87214828Y-97202128D01*
X87214828Y-97916414D02*
X88071971Y-97916414D01*
X88071971Y-98702128D02*
X88071971Y-97202128D01*
X88429115Y-98844985D02*
X89571972Y-98844985D01*
X90429114Y-97916414D02*
X90643400Y-97987842D01*
X90643400Y-97987842D02*
X90714829Y-98059271D01*
X90714829Y-98059271D02*
X90786257Y-98202128D01*
X90786257Y-98202128D02*
X90786257Y-98416414D01*
X90786257Y-98416414D02*
X90714829Y-98559271D01*
X90714829Y-98559271D02*
X90643400Y-98630700D01*
X90643400Y-98630700D02*
X90500543Y-98702128D01*
X90500543Y-98702128D02*
X89929114Y-98702128D01*
X89929114Y-98702128D02*
X89929114Y-97202128D01*
X89929114Y-97202128D02*
X90429114Y-97202128D01*
X90429114Y-97202128D02*
X90571972Y-97273557D01*
X90571972Y-97273557D02*
X90643400Y-97344985D01*
X90643400Y-97344985D02*
X90714829Y-97487842D01*
X90714829Y-97487842D02*
X90714829Y-97630700D01*
X90714829Y-97630700D02*
X90643400Y-97773557D01*
X90643400Y-97773557D02*
X90571972Y-97844985D01*
X90571972Y-97844985D02*
X90429114Y-97916414D01*
X90429114Y-97916414D02*
X89929114Y-97916414D01*
D11*
X83107400Y-89373904D02*
X83583590Y-89373904D01*
X83012162Y-89659619D02*
X83345495Y-88659619D01*
X83345495Y-88659619D02*
X83678828Y-89659619D01*
X83964543Y-88754857D02*
X84012162Y-88707238D01*
X84012162Y-88707238D02*
X84107400Y-88659619D01*
X84107400Y-88659619D02*
X84345495Y-88659619D01*
X84345495Y-88659619D02*
X84440733Y-88707238D01*
X84440733Y-88707238D02*
X84488352Y-88754857D01*
X84488352Y-88754857D02*
X84535971Y-88850095D01*
X84535971Y-88850095D02*
X84535971Y-88945333D01*
X84535971Y-88945333D02*
X84488352Y-89088190D01*
X84488352Y-89088190D02*
X83916924Y-89659619D01*
X83916924Y-89659619D02*
X84535971Y-89659619D01*
X84726448Y-89754857D02*
X85488352Y-89754857D01*
X86202638Y-89659619D02*
X85726448Y-89659619D01*
X85726448Y-89659619D02*
X85726448Y-88659619D01*
X83056600Y-86783104D02*
X83532790Y-86783104D01*
X82961362Y-87068819D02*
X83294695Y-86068819D01*
X83294695Y-86068819D02*
X83628028Y-87068819D01*
X84485171Y-87068819D02*
X83913743Y-87068819D01*
X84199457Y-87068819D02*
X84199457Y-86068819D01*
X84199457Y-86068819D02*
X84104219Y-86211676D01*
X84104219Y-86211676D02*
X84008981Y-86306914D01*
X84008981Y-86306914D02*
X83913743Y-86354533D01*
X84675648Y-87164057D02*
X85437552Y-87164057D01*
X86151838Y-87068819D02*
X85675648Y-87068819D01*
X85675648Y-87068819D02*
X85675648Y-86068819D01*
X83919266Y-103130170D02*
X83919266Y-102368266D01*
X84300219Y-102749218D02*
X83538314Y-102749218D01*
X84300219Y-101892075D02*
X83633552Y-101892075D01*
X83300219Y-101892075D02*
X83347838Y-101939694D01*
X83347838Y-101939694D02*
X83395457Y-101892075D01*
X83395457Y-101892075D02*
X83347838Y-101844456D01*
X83347838Y-101844456D02*
X83300219Y-101892075D01*
X83300219Y-101892075D02*
X83395457Y-101892075D01*
X83633552Y-101511123D02*
X84300219Y-101273028D01*
X84300219Y-101273028D02*
X83633552Y-101034933D01*
X84252600Y-100273028D02*
X84300219Y-100368266D01*
X84300219Y-100368266D02*
X84300219Y-100558742D01*
X84300219Y-100558742D02*
X84252600Y-100653980D01*
X84252600Y-100653980D02*
X84157361Y-100701599D01*
X84157361Y-100701599D02*
X83776409Y-100701599D01*
X83776409Y-100701599D02*
X83681171Y-100653980D01*
X83681171Y-100653980D02*
X83633552Y-100558742D01*
X83633552Y-100558742D02*
X83633552Y-100368266D01*
X83633552Y-100368266D02*
X83681171Y-100273028D01*
X83681171Y-100273028D02*
X83776409Y-100225409D01*
X83776409Y-100225409D02*
X83871647Y-100225409D01*
X83871647Y-100225409D02*
X83966885Y-100701599D01*
X83156610Y-70879619D02*
X83775657Y-70879619D01*
X83775657Y-70879619D02*
X83442324Y-71260571D01*
X83442324Y-71260571D02*
X83585181Y-71260571D01*
X83585181Y-71260571D02*
X83680419Y-71308190D01*
X83680419Y-71308190D02*
X83728038Y-71355809D01*
X83728038Y-71355809D02*
X83775657Y-71451047D01*
X83775657Y-71451047D02*
X83775657Y-71689142D01*
X83775657Y-71689142D02*
X83728038Y-71784380D01*
X83728038Y-71784380D02*
X83680419Y-71832000D01*
X83680419Y-71832000D02*
X83585181Y-71879619D01*
X83585181Y-71879619D02*
X83299467Y-71879619D01*
X83299467Y-71879619D02*
X83204229Y-71832000D01*
X83204229Y-71832000D02*
X83156610Y-71784380D01*
X84204229Y-71784380D02*
X84251848Y-71832000D01*
X84251848Y-71832000D02*
X84204229Y-71879619D01*
X84204229Y-71879619D02*
X84156610Y-71832000D01*
X84156610Y-71832000D02*
X84204229Y-71784380D01*
X84204229Y-71784380D02*
X84204229Y-71879619D01*
X84585181Y-70879619D02*
X85204228Y-70879619D01*
X85204228Y-70879619D02*
X84870895Y-71260571D01*
X84870895Y-71260571D02*
X85013752Y-71260571D01*
X85013752Y-71260571D02*
X85108990Y-71308190D01*
X85108990Y-71308190D02*
X85156609Y-71355809D01*
X85156609Y-71355809D02*
X85204228Y-71451047D01*
X85204228Y-71451047D02*
X85204228Y-71689142D01*
X85204228Y-71689142D02*
X85156609Y-71784380D01*
X85156609Y-71784380D02*
X85108990Y-71832000D01*
X85108990Y-71832000D02*
X85013752Y-71879619D01*
X85013752Y-71879619D02*
X84728038Y-71879619D01*
X84728038Y-71879619D02*
X84632800Y-71832000D01*
X84632800Y-71832000D02*
X84585181Y-71784380D01*
X85489943Y-70879619D02*
X85823276Y-71879619D01*
X85823276Y-71879619D02*
X86156609Y-70879619D01*
X83416923Y-78975809D02*
X83559780Y-79023428D01*
X83559780Y-79023428D02*
X83607399Y-79071047D01*
X83607399Y-79071047D02*
X83655018Y-79166285D01*
X83655018Y-79166285D02*
X83655018Y-79309142D01*
X83655018Y-79309142D02*
X83607399Y-79404380D01*
X83607399Y-79404380D02*
X83559780Y-79452000D01*
X83559780Y-79452000D02*
X83464542Y-79499619D01*
X83464542Y-79499619D02*
X83083590Y-79499619D01*
X83083590Y-79499619D02*
X83083590Y-78499619D01*
X83083590Y-78499619D02*
X83416923Y-78499619D01*
X83416923Y-78499619D02*
X83512161Y-78547238D01*
X83512161Y-78547238D02*
X83559780Y-78594857D01*
X83559780Y-78594857D02*
X83607399Y-78690095D01*
X83607399Y-78690095D02*
X83607399Y-78785333D01*
X83607399Y-78785333D02*
X83559780Y-78880571D01*
X83559780Y-78880571D02*
X83512161Y-78928190D01*
X83512161Y-78928190D02*
X83416923Y-78975809D01*
X83416923Y-78975809D02*
X83083590Y-78975809D01*
X84035971Y-78594857D02*
X84083590Y-78547238D01*
X84083590Y-78547238D02*
X84178828Y-78499619D01*
X84178828Y-78499619D02*
X84416923Y-78499619D01*
X84416923Y-78499619D02*
X84512161Y-78547238D01*
X84512161Y-78547238D02*
X84559780Y-78594857D01*
X84559780Y-78594857D02*
X84607399Y-78690095D01*
X84607399Y-78690095D02*
X84607399Y-78785333D01*
X84607399Y-78785333D02*
X84559780Y-78928190D01*
X84559780Y-78928190D02*
X83988352Y-79499619D01*
X83988352Y-79499619D02*
X84607399Y-79499619D01*
X84797876Y-79594857D02*
X85559780Y-79594857D01*
X86274066Y-79499619D02*
X85797876Y-79499619D01*
X85797876Y-79499619D02*
X85797876Y-78499619D01*
X85496495Y-53909238D02*
X85401257Y-53861619D01*
X85401257Y-53861619D02*
X85258400Y-53861619D01*
X85258400Y-53861619D02*
X85115543Y-53909238D01*
X85115543Y-53909238D02*
X85020305Y-54004476D01*
X85020305Y-54004476D02*
X84972686Y-54099714D01*
X84972686Y-54099714D02*
X84925067Y-54290190D01*
X84925067Y-54290190D02*
X84925067Y-54433047D01*
X84925067Y-54433047D02*
X84972686Y-54623523D01*
X84972686Y-54623523D02*
X85020305Y-54718761D01*
X85020305Y-54718761D02*
X85115543Y-54814000D01*
X85115543Y-54814000D02*
X85258400Y-54861619D01*
X85258400Y-54861619D02*
X85353638Y-54861619D01*
X85353638Y-54861619D02*
X85496495Y-54814000D01*
X85496495Y-54814000D02*
X85544114Y-54766380D01*
X85544114Y-54766380D02*
X85544114Y-54433047D01*
X85544114Y-54433047D02*
X85353638Y-54433047D01*
X85972686Y-54861619D02*
X85972686Y-53861619D01*
X85972686Y-53861619D02*
X86544114Y-54861619D01*
X86544114Y-54861619D02*
X86544114Y-53861619D01*
X87020305Y-54861619D02*
X87020305Y-53861619D01*
X87020305Y-53861619D02*
X87258400Y-53861619D01*
X87258400Y-53861619D02*
X87401257Y-53909238D01*
X87401257Y-53909238D02*
X87496495Y-54004476D01*
X87496495Y-54004476D02*
X87544114Y-54099714D01*
X87544114Y-54099714D02*
X87591733Y-54290190D01*
X87591733Y-54290190D02*
X87591733Y-54433047D01*
X87591733Y-54433047D02*
X87544114Y-54623523D01*
X87544114Y-54623523D02*
X87496495Y-54718761D01*
X87496495Y-54718761D02*
X87401257Y-54814000D01*
X87401257Y-54814000D02*
X87258400Y-54861619D01*
X87258400Y-54861619D02*
X87020305Y-54861619D01*
D12*
X144469314Y-54048928D02*
X144469314Y-52548928D01*
X144469314Y-52548928D02*
X145040743Y-52548928D01*
X145040743Y-52548928D02*
X145183600Y-52620357D01*
X145183600Y-52620357D02*
X145255029Y-52691785D01*
X145255029Y-52691785D02*
X145326457Y-52834642D01*
X145326457Y-52834642D02*
X145326457Y-53048928D01*
X145326457Y-53048928D02*
X145255029Y-53191785D01*
X145255029Y-53191785D02*
X145183600Y-53263214D01*
X145183600Y-53263214D02*
X145040743Y-53334642D01*
X145040743Y-53334642D02*
X144469314Y-53334642D01*
X145612172Y-54191785D02*
X146755029Y-54191785D01*
X147969314Y-53906071D02*
X147897886Y-53977500D01*
X147897886Y-53977500D02*
X147683600Y-54048928D01*
X147683600Y-54048928D02*
X147540743Y-54048928D01*
X147540743Y-54048928D02*
X147326457Y-53977500D01*
X147326457Y-53977500D02*
X147183600Y-53834642D01*
X147183600Y-53834642D02*
X147112171Y-53691785D01*
X147112171Y-53691785D02*
X147040743Y-53406071D01*
X147040743Y-53406071D02*
X147040743Y-53191785D01*
X147040743Y-53191785D02*
X147112171Y-52906071D01*
X147112171Y-52906071D02*
X147183600Y-52763214D01*
X147183600Y-52763214D02*
X147326457Y-52620357D01*
X147326457Y-52620357D02*
X147540743Y-52548928D01*
X147540743Y-52548928D02*
X147683600Y-52548928D01*
X147683600Y-52548928D02*
X147897886Y-52620357D01*
X147897886Y-52620357D02*
X147969314Y-52691785D01*
X148612171Y-54048928D02*
X148612171Y-52548928D01*
X148612171Y-53263214D02*
X149469314Y-53263214D01*
X149469314Y-54048928D02*
X149469314Y-52548928D01*
X149826458Y-54191785D02*
X150969315Y-54191785D01*
X151255029Y-53620357D02*
X151969315Y-53620357D01*
X151112172Y-54048928D02*
X151612172Y-52548928D01*
X151612172Y-52548928D02*
X152112172Y-54048928D01*
D11*
X84191695Y-65656666D02*
X84953600Y-65656666D01*
X84572647Y-66037619D02*
X84572647Y-65275714D01*
X85953599Y-66037619D02*
X85382171Y-66037619D01*
X85667885Y-66037619D02*
X85667885Y-65037619D01*
X85667885Y-65037619D02*
X85572647Y-65180476D01*
X85572647Y-65180476D02*
X85477409Y-65275714D01*
X85477409Y-65275714D02*
X85382171Y-65323333D01*
X86334552Y-65132857D02*
X86382171Y-65085238D01*
X86382171Y-65085238D02*
X86477409Y-65037619D01*
X86477409Y-65037619D02*
X86715504Y-65037619D01*
X86715504Y-65037619D02*
X86810742Y-65085238D01*
X86810742Y-65085238D02*
X86858361Y-65132857D01*
X86858361Y-65132857D02*
X86905980Y-65228095D01*
X86905980Y-65228095D02*
X86905980Y-65323333D01*
X86905980Y-65323333D02*
X86858361Y-65466190D01*
X86858361Y-65466190D02*
X86286933Y-66037619D01*
X86286933Y-66037619D02*
X86905980Y-66037619D01*
X87191695Y-65037619D02*
X87525028Y-66037619D01*
X87525028Y-66037619D02*
X87858361Y-65037619D01*
X83323276Y-81490409D02*
X83466133Y-81538028D01*
X83466133Y-81538028D02*
X83513752Y-81585647D01*
X83513752Y-81585647D02*
X83561371Y-81680885D01*
X83561371Y-81680885D02*
X83561371Y-81823742D01*
X83561371Y-81823742D02*
X83513752Y-81918980D01*
X83513752Y-81918980D02*
X83466133Y-81966600D01*
X83466133Y-81966600D02*
X83370895Y-82014219D01*
X83370895Y-82014219D02*
X82989943Y-82014219D01*
X82989943Y-82014219D02*
X82989943Y-81014219D01*
X82989943Y-81014219D02*
X83323276Y-81014219D01*
X83323276Y-81014219D02*
X83418514Y-81061838D01*
X83418514Y-81061838D02*
X83466133Y-81109457D01*
X83466133Y-81109457D02*
X83513752Y-81204695D01*
X83513752Y-81204695D02*
X83513752Y-81299933D01*
X83513752Y-81299933D02*
X83466133Y-81395171D01*
X83466133Y-81395171D02*
X83418514Y-81442790D01*
X83418514Y-81442790D02*
X83323276Y-81490409D01*
X83323276Y-81490409D02*
X82989943Y-81490409D01*
X83942324Y-81109457D02*
X83989943Y-81061838D01*
X83989943Y-81061838D02*
X84085181Y-81014219D01*
X84085181Y-81014219D02*
X84323276Y-81014219D01*
X84323276Y-81014219D02*
X84418514Y-81061838D01*
X84418514Y-81061838D02*
X84466133Y-81109457D01*
X84466133Y-81109457D02*
X84513752Y-81204695D01*
X84513752Y-81204695D02*
X84513752Y-81299933D01*
X84513752Y-81299933D02*
X84466133Y-81442790D01*
X84466133Y-81442790D02*
X83894705Y-82014219D01*
X83894705Y-82014219D02*
X84513752Y-82014219D01*
X84704229Y-82109457D02*
X85466133Y-82109457D01*
X85704229Y-82014219D02*
X85704229Y-81014219D01*
X85704229Y-81490409D02*
X86275657Y-81490409D01*
X86275657Y-82014219D02*
X86275657Y-81014219D01*
X97103773Y-114780266D02*
X97865678Y-114780266D01*
X97484725Y-115161219D02*
X97484725Y-114399314D01*
X98865677Y-115161219D02*
X98294249Y-115161219D01*
X98579963Y-115161219D02*
X98579963Y-114161219D01*
X98579963Y-114161219D02*
X98484725Y-114304076D01*
X98484725Y-114304076D02*
X98389487Y-114399314D01*
X98389487Y-114399314D02*
X98294249Y-114446933D01*
X99246630Y-114256457D02*
X99294249Y-114208838D01*
X99294249Y-114208838D02*
X99389487Y-114161219D01*
X99389487Y-114161219D02*
X99627582Y-114161219D01*
X99627582Y-114161219D02*
X99722820Y-114208838D01*
X99722820Y-114208838D02*
X99770439Y-114256457D01*
X99770439Y-114256457D02*
X99818058Y-114351695D01*
X99818058Y-114351695D02*
X99818058Y-114446933D01*
X99818058Y-114446933D02*
X99770439Y-114589790D01*
X99770439Y-114589790D02*
X99199011Y-115161219D01*
X99199011Y-115161219D02*
X99818058Y-115161219D01*
X100103773Y-114161219D02*
X100437106Y-115161219D01*
X100437106Y-115161219D02*
X100770439Y-114161219D01*
X83896295Y-68336438D02*
X83801057Y-68288819D01*
X83801057Y-68288819D02*
X83658200Y-68288819D01*
X83658200Y-68288819D02*
X83515343Y-68336438D01*
X83515343Y-68336438D02*
X83420105Y-68431676D01*
X83420105Y-68431676D02*
X83372486Y-68526914D01*
X83372486Y-68526914D02*
X83324867Y-68717390D01*
X83324867Y-68717390D02*
X83324867Y-68860247D01*
X83324867Y-68860247D02*
X83372486Y-69050723D01*
X83372486Y-69050723D02*
X83420105Y-69145961D01*
X83420105Y-69145961D02*
X83515343Y-69241200D01*
X83515343Y-69241200D02*
X83658200Y-69288819D01*
X83658200Y-69288819D02*
X83753438Y-69288819D01*
X83753438Y-69288819D02*
X83896295Y-69241200D01*
X83896295Y-69241200D02*
X83943914Y-69193580D01*
X83943914Y-69193580D02*
X83943914Y-68860247D01*
X83943914Y-68860247D02*
X83753438Y-68860247D01*
X84372486Y-69288819D02*
X84372486Y-68288819D01*
X84372486Y-68288819D02*
X84943914Y-69288819D01*
X84943914Y-69288819D02*
X84943914Y-68288819D01*
X85420105Y-69288819D02*
X85420105Y-68288819D01*
X85420105Y-68288819D02*
X85658200Y-68288819D01*
X85658200Y-68288819D02*
X85801057Y-68336438D01*
X85801057Y-68336438D02*
X85896295Y-68431676D01*
X85896295Y-68431676D02*
X85943914Y-68526914D01*
X85943914Y-68526914D02*
X85991533Y-68717390D01*
X85991533Y-68717390D02*
X85991533Y-68860247D01*
X85991533Y-68860247D02*
X85943914Y-69050723D01*
X85943914Y-69050723D02*
X85896295Y-69145961D01*
X85896295Y-69145961D02*
X85801057Y-69241200D01*
X85801057Y-69241200D02*
X85658200Y-69288819D01*
X85658200Y-69288819D02*
X85420105Y-69288819D01*
X145184066Y-64191970D02*
X145184066Y-63430066D01*
X145565019Y-62953875D02*
X144898352Y-62953875D01*
X144565019Y-62953875D02*
X144612638Y-63001494D01*
X144612638Y-63001494D02*
X144660257Y-62953875D01*
X144660257Y-62953875D02*
X144612638Y-62906256D01*
X144612638Y-62906256D02*
X144565019Y-62953875D01*
X144565019Y-62953875D02*
X144660257Y-62953875D01*
X144898352Y-62572923D02*
X145565019Y-62334828D01*
X145565019Y-62334828D02*
X144898352Y-62096733D01*
X145517400Y-61334828D02*
X145565019Y-61430066D01*
X145565019Y-61430066D02*
X145565019Y-61620542D01*
X145565019Y-61620542D02*
X145517400Y-61715780D01*
X145517400Y-61715780D02*
X145422161Y-61763399D01*
X145422161Y-61763399D02*
X145041209Y-61763399D01*
X145041209Y-61763399D02*
X144945971Y-61715780D01*
X144945971Y-61715780D02*
X144898352Y-61620542D01*
X144898352Y-61620542D02*
X144898352Y-61430066D01*
X144898352Y-61430066D02*
X144945971Y-61334828D01*
X144945971Y-61334828D02*
X145041209Y-61287209D01*
X145041209Y-61287209D02*
X145136447Y-61287209D01*
X145136447Y-61287209D02*
X145231685Y-61763399D01*
X82941314Y-94210614D02*
X83341314Y-94210614D01*
X83512742Y-94996328D02*
X82941314Y-94996328D01*
X82941314Y-94996328D02*
X82941314Y-93496328D01*
X82941314Y-93496328D02*
X83512742Y-93496328D01*
X83969885Y-94924900D02*
X84141314Y-94996328D01*
X84141314Y-94996328D02*
X84427028Y-94996328D01*
X84427028Y-94996328D02*
X84541314Y-94924900D01*
X84541314Y-94924900D02*
X84598456Y-94853471D01*
X84598456Y-94853471D02*
X84655599Y-94710614D01*
X84655599Y-94710614D02*
X84655599Y-94567757D01*
X84655599Y-94567757D02*
X84598456Y-94424900D01*
X84598456Y-94424900D02*
X84541314Y-94353471D01*
X84541314Y-94353471D02*
X84427028Y-94282042D01*
X84427028Y-94282042D02*
X84198456Y-94210614D01*
X84198456Y-94210614D02*
X84084171Y-94139185D01*
X84084171Y-94139185D02*
X84027028Y-94067757D01*
X84027028Y-94067757D02*
X83969885Y-93924900D01*
X83969885Y-93924900D02*
X83969885Y-93782042D01*
X83969885Y-93782042D02*
X84027028Y-93639185D01*
X84027028Y-93639185D02*
X84084171Y-93567757D01*
X84084171Y-93567757D02*
X84198456Y-93496328D01*
X84198456Y-93496328D02*
X84484171Y-93496328D01*
X84484171Y-93496328D02*
X84655599Y-93567757D01*
X85169885Y-94996328D02*
X85169885Y-93496328D01*
X85169885Y-93496328D02*
X85627028Y-93496328D01*
X85627028Y-93496328D02*
X85741313Y-93567757D01*
X85741313Y-93567757D02*
X85798456Y-93639185D01*
X85798456Y-93639185D02*
X85855599Y-93782042D01*
X85855599Y-93782042D02*
X85855599Y-93996328D01*
X85855599Y-93996328D02*
X85798456Y-94139185D01*
X85798456Y-94139185D02*
X85741313Y-94210614D01*
X85741313Y-94210614D02*
X85627028Y-94282042D01*
X85627028Y-94282042D02*
X85169885Y-94282042D01*
X87912742Y-93567757D02*
X87798457Y-93496328D01*
X87798457Y-93496328D02*
X87627028Y-93496328D01*
X87627028Y-93496328D02*
X87455599Y-93567757D01*
X87455599Y-93567757D02*
X87341314Y-93710614D01*
X87341314Y-93710614D02*
X87284171Y-93853471D01*
X87284171Y-93853471D02*
X87227028Y-94139185D01*
X87227028Y-94139185D02*
X87227028Y-94353471D01*
X87227028Y-94353471D02*
X87284171Y-94639185D01*
X87284171Y-94639185D02*
X87341314Y-94782042D01*
X87341314Y-94782042D02*
X87455599Y-94924900D01*
X87455599Y-94924900D02*
X87627028Y-94996328D01*
X87627028Y-94996328D02*
X87741314Y-94996328D01*
X87741314Y-94996328D02*
X87912742Y-94924900D01*
X87912742Y-94924900D02*
X87969885Y-94853471D01*
X87969885Y-94853471D02*
X87969885Y-94353471D01*
X87969885Y-94353471D02*
X87741314Y-94353471D01*
X88998457Y-94996328D02*
X88998457Y-94210614D01*
X88998457Y-94210614D02*
X88941314Y-94067757D01*
X88941314Y-94067757D02*
X88827028Y-93996328D01*
X88827028Y-93996328D02*
X88598457Y-93996328D01*
X88598457Y-93996328D02*
X88484171Y-94067757D01*
X88998457Y-94924900D02*
X88884171Y-94996328D01*
X88884171Y-94996328D02*
X88598457Y-94996328D01*
X88598457Y-94996328D02*
X88484171Y-94924900D01*
X88484171Y-94924900D02*
X88427028Y-94782042D01*
X88427028Y-94782042D02*
X88427028Y-94639185D01*
X88427028Y-94639185D02*
X88484171Y-94496328D01*
X88484171Y-94496328D02*
X88598457Y-94424900D01*
X88598457Y-94424900D02*
X88884171Y-94424900D01*
X88884171Y-94424900D02*
X88998457Y-94353471D01*
X89398456Y-93996328D02*
X89855599Y-93996328D01*
X89569885Y-93496328D02*
X89569885Y-94782042D01*
X89569885Y-94782042D02*
X89627028Y-94924900D01*
X89627028Y-94924900D02*
X89741313Y-94996328D01*
X89741313Y-94996328D02*
X89855599Y-94996328D01*
X90712742Y-94924900D02*
X90598456Y-94996328D01*
X90598456Y-94996328D02*
X90369885Y-94996328D01*
X90369885Y-94996328D02*
X90255599Y-94924900D01*
X90255599Y-94924900D02*
X90198456Y-94782042D01*
X90198456Y-94782042D02*
X90198456Y-94210614D01*
X90198456Y-94210614D02*
X90255599Y-94067757D01*
X90255599Y-94067757D02*
X90369885Y-93996328D01*
X90369885Y-93996328D02*
X90598456Y-93996328D01*
X90598456Y-93996328D02*
X90712742Y-94067757D01*
X90712742Y-94067757D02*
X90769885Y-94210614D01*
X90769885Y-94210614D02*
X90769885Y-94353471D01*
X90769885Y-94353471D02*
X90198456Y-94496328D01*
X92198456Y-94996328D02*
X92198456Y-93496328D01*
X92198456Y-93496328D02*
X92655599Y-93496328D01*
X92655599Y-93496328D02*
X92769884Y-93567757D01*
X92769884Y-93567757D02*
X92827027Y-93639185D01*
X92827027Y-93639185D02*
X92884170Y-93782042D01*
X92884170Y-93782042D02*
X92884170Y-93996328D01*
X92884170Y-93996328D02*
X92827027Y-94139185D01*
X92827027Y-94139185D02*
X92769884Y-94210614D01*
X92769884Y-94210614D02*
X92655599Y-94282042D01*
X92655599Y-94282042D02*
X92198456Y-94282042D01*
X93284170Y-93496328D02*
X93569884Y-94996328D01*
X93569884Y-94996328D02*
X93798456Y-93924900D01*
X93798456Y-93924900D02*
X94027027Y-94996328D01*
X94027027Y-94996328D02*
X94312742Y-93496328D01*
X94769885Y-94996328D02*
X94769885Y-93496328D01*
X94769885Y-93496328D02*
X95169885Y-94567757D01*
X95169885Y-94567757D02*
X95569885Y-93496328D01*
X95569885Y-93496328D02*
X95569885Y-94996328D01*
X145209466Y-58476970D02*
X145209466Y-57715066D01*
X145590419Y-58096018D02*
X144828514Y-58096018D01*
X145590419Y-57238875D02*
X144923752Y-57238875D01*
X144590419Y-57238875D02*
X144638038Y-57286494D01*
X144638038Y-57286494D02*
X144685657Y-57238875D01*
X144685657Y-57238875D02*
X144638038Y-57191256D01*
X144638038Y-57191256D02*
X144590419Y-57238875D01*
X144590419Y-57238875D02*
X144685657Y-57238875D01*
X144923752Y-56857923D02*
X145590419Y-56619828D01*
X145590419Y-56619828D02*
X144923752Y-56381733D01*
X145542800Y-55619828D02*
X145590419Y-55715066D01*
X145590419Y-55715066D02*
X145590419Y-55905542D01*
X145590419Y-55905542D02*
X145542800Y-56000780D01*
X145542800Y-56000780D02*
X145447561Y-56048399D01*
X145447561Y-56048399D02*
X145066609Y-56048399D01*
X145066609Y-56048399D02*
X144971371Y-56000780D01*
X144971371Y-56000780D02*
X144923752Y-55905542D01*
X144923752Y-55905542D02*
X144923752Y-55715066D01*
X144923752Y-55715066D02*
X144971371Y-55619828D01*
X144971371Y-55619828D02*
X145066609Y-55572209D01*
X145066609Y-55572209D02*
X145161847Y-55572209D01*
X145161847Y-55572209D02*
X145257085Y-56048399D01*
X83089952Y-84268504D02*
X83566142Y-84268504D01*
X82994714Y-84554219D02*
X83328047Y-83554219D01*
X83328047Y-83554219D02*
X83661380Y-84554219D01*
X84518523Y-84554219D02*
X83947095Y-84554219D01*
X84232809Y-84554219D02*
X84232809Y-83554219D01*
X84232809Y-83554219D02*
X84137571Y-83697076D01*
X84137571Y-83697076D02*
X84042333Y-83792314D01*
X84042333Y-83792314D02*
X83947095Y-83839933D01*
X84709000Y-84649457D02*
X85470904Y-84649457D01*
X85709000Y-84554219D02*
X85709000Y-83554219D01*
X85709000Y-84030409D02*
X86280428Y-84030409D01*
X86280428Y-84554219D02*
X86280428Y-83554219D01*
X127123623Y-80019009D02*
X127266480Y-80066628D01*
X127266480Y-80066628D02*
X127314099Y-80114247D01*
X127314099Y-80114247D02*
X127361718Y-80209485D01*
X127361718Y-80209485D02*
X127361718Y-80352342D01*
X127361718Y-80352342D02*
X127314099Y-80447580D01*
X127314099Y-80447580D02*
X127266480Y-80495200D01*
X127266480Y-80495200D02*
X127171242Y-80542819D01*
X127171242Y-80542819D02*
X126790290Y-80542819D01*
X126790290Y-80542819D02*
X126790290Y-79542819D01*
X126790290Y-79542819D02*
X127123623Y-79542819D01*
X127123623Y-79542819D02*
X127218861Y-79590438D01*
X127218861Y-79590438D02*
X127266480Y-79638057D01*
X127266480Y-79638057D02*
X127314099Y-79733295D01*
X127314099Y-79733295D02*
X127314099Y-79828533D01*
X127314099Y-79828533D02*
X127266480Y-79923771D01*
X127266480Y-79923771D02*
X127218861Y-79971390D01*
X127218861Y-79971390D02*
X127123623Y-80019009D01*
X127123623Y-80019009D02*
X126790290Y-80019009D01*
X127552195Y-80638057D02*
X128314099Y-80638057D01*
X129028385Y-80542819D02*
X128552195Y-80542819D01*
X128552195Y-80542819D02*
X128552195Y-79542819D01*
X129314100Y-79638057D02*
X129361719Y-79590438D01*
X129361719Y-79590438D02*
X129456957Y-79542819D01*
X129456957Y-79542819D02*
X129695052Y-79542819D01*
X129695052Y-79542819D02*
X129790290Y-79590438D01*
X129790290Y-79590438D02*
X129837909Y-79638057D01*
X129837909Y-79638057D02*
X129885528Y-79733295D01*
X129885528Y-79733295D02*
X129885528Y-79828533D01*
X129885528Y-79828533D02*
X129837909Y-79971390D01*
X129837909Y-79971390D02*
X129266481Y-80542819D01*
X129266481Y-80542819D02*
X129885528Y-80542819D01*
X133381761Y-48124257D02*
X133286523Y-48076638D01*
X133286523Y-48076638D02*
X133191285Y-47981400D01*
X133191285Y-47981400D02*
X133048428Y-47838542D01*
X133048428Y-47838542D02*
X132953190Y-47790923D01*
X132953190Y-47790923D02*
X132857952Y-47790923D01*
X132905571Y-48029019D02*
X132810333Y-47981400D01*
X132810333Y-47981400D02*
X132715095Y-47886161D01*
X132715095Y-47886161D02*
X132667476Y-47695685D01*
X132667476Y-47695685D02*
X132667476Y-47362352D01*
X132667476Y-47362352D02*
X132715095Y-47171876D01*
X132715095Y-47171876D02*
X132810333Y-47076638D01*
X132810333Y-47076638D02*
X132905571Y-47029019D01*
X132905571Y-47029019D02*
X133096047Y-47029019D01*
X133096047Y-47029019D02*
X133191285Y-47076638D01*
X133191285Y-47076638D02*
X133286523Y-47171876D01*
X133286523Y-47171876D02*
X133334142Y-47362352D01*
X133334142Y-47362352D02*
X133334142Y-47695685D01*
X133334142Y-47695685D02*
X133286523Y-47886161D01*
X133286523Y-47886161D02*
X133191285Y-47981400D01*
X133191285Y-47981400D02*
X133096047Y-48029019D01*
X133096047Y-48029019D02*
X132905571Y-48029019D01*
X134191285Y-47362352D02*
X134191285Y-48029019D01*
X133953190Y-46981400D02*
X133715095Y-47695685D01*
X133715095Y-47695685D02*
X134334142Y-47695685D01*
X115911333Y-93317219D02*
X115578000Y-92841028D01*
X115339905Y-93317219D02*
X115339905Y-92317219D01*
X115339905Y-92317219D02*
X115720857Y-92317219D01*
X115720857Y-92317219D02*
X115816095Y-92364838D01*
X115816095Y-92364838D02*
X115863714Y-92412457D01*
X115863714Y-92412457D02*
X115911333Y-92507695D01*
X115911333Y-92507695D02*
X115911333Y-92650552D01*
X115911333Y-92650552D02*
X115863714Y-92745790D01*
X115863714Y-92745790D02*
X115816095Y-92793409D01*
X115816095Y-92793409D02*
X115720857Y-92841028D01*
X115720857Y-92841028D02*
X115339905Y-92841028D01*
X116387524Y-93317219D02*
X116578000Y-93317219D01*
X116578000Y-93317219D02*
X116673238Y-93269600D01*
X116673238Y-93269600D02*
X116720857Y-93221980D01*
X116720857Y-93221980D02*
X116816095Y-93079123D01*
X116816095Y-93079123D02*
X116863714Y-92888647D01*
X116863714Y-92888647D02*
X116863714Y-92507695D01*
X116863714Y-92507695D02*
X116816095Y-92412457D01*
X116816095Y-92412457D02*
X116768476Y-92364838D01*
X116768476Y-92364838D02*
X116673238Y-92317219D01*
X116673238Y-92317219D02*
X116482762Y-92317219D01*
X116482762Y-92317219D02*
X116387524Y-92364838D01*
X116387524Y-92364838D02*
X116339905Y-92412457D01*
X116339905Y-92412457D02*
X116292286Y-92507695D01*
X116292286Y-92507695D02*
X116292286Y-92745790D01*
X116292286Y-92745790D02*
X116339905Y-92841028D01*
X116339905Y-92841028D02*
X116387524Y-92888647D01*
X116387524Y-92888647D02*
X116482762Y-92936266D01*
X116482762Y-92936266D02*
X116673238Y-92936266D01*
X116673238Y-92936266D02*
X116768476Y-92888647D01*
X116768476Y-92888647D02*
X116816095Y-92841028D01*
X116816095Y-92841028D02*
X116863714Y-92745790D01*
X147242305Y-115288219D02*
X147242305Y-114288219D01*
X147242305Y-114288219D02*
X147480400Y-114288219D01*
X147480400Y-114288219D02*
X147623257Y-114335838D01*
X147623257Y-114335838D02*
X147718495Y-114431076D01*
X147718495Y-114431076D02*
X147766114Y-114526314D01*
X147766114Y-114526314D02*
X147813733Y-114716790D01*
X147813733Y-114716790D02*
X147813733Y-114859647D01*
X147813733Y-114859647D02*
X147766114Y-115050123D01*
X147766114Y-115050123D02*
X147718495Y-115145361D01*
X147718495Y-115145361D02*
X147623257Y-115240600D01*
X147623257Y-115240600D02*
X147480400Y-115288219D01*
X147480400Y-115288219D02*
X147242305Y-115288219D01*
X148194686Y-114383457D02*
X148242305Y-114335838D01*
X148242305Y-114335838D02*
X148337543Y-114288219D01*
X148337543Y-114288219D02*
X148575638Y-114288219D01*
X148575638Y-114288219D02*
X148670876Y-114335838D01*
X148670876Y-114335838D02*
X148718495Y-114383457D01*
X148718495Y-114383457D02*
X148766114Y-114478695D01*
X148766114Y-114478695D02*
X148766114Y-114573933D01*
X148766114Y-114573933D02*
X148718495Y-114716790D01*
X148718495Y-114716790D02*
X148147067Y-115288219D01*
X148147067Y-115288219D02*
X148766114Y-115288219D01*
X91065361Y-47997257D02*
X90970123Y-47949638D01*
X90970123Y-47949638D02*
X90874885Y-47854400D01*
X90874885Y-47854400D02*
X90732028Y-47711542D01*
X90732028Y-47711542D02*
X90636790Y-47663923D01*
X90636790Y-47663923D02*
X90541552Y-47663923D01*
X90589171Y-47902019D02*
X90493933Y-47854400D01*
X90493933Y-47854400D02*
X90398695Y-47759161D01*
X90398695Y-47759161D02*
X90351076Y-47568685D01*
X90351076Y-47568685D02*
X90351076Y-47235352D01*
X90351076Y-47235352D02*
X90398695Y-47044876D01*
X90398695Y-47044876D02*
X90493933Y-46949638D01*
X90493933Y-46949638D02*
X90589171Y-46902019D01*
X90589171Y-46902019D02*
X90779647Y-46902019D01*
X90779647Y-46902019D02*
X90874885Y-46949638D01*
X90874885Y-46949638D02*
X90970123Y-47044876D01*
X90970123Y-47044876D02*
X91017742Y-47235352D01*
X91017742Y-47235352D02*
X91017742Y-47568685D01*
X91017742Y-47568685D02*
X90970123Y-47759161D01*
X90970123Y-47759161D02*
X90874885Y-47854400D01*
X90874885Y-47854400D02*
X90779647Y-47902019D01*
X90779647Y-47902019D02*
X90589171Y-47902019D01*
X91970123Y-47902019D02*
X91398695Y-47902019D01*
X91684409Y-47902019D02*
X91684409Y-46902019D01*
X91684409Y-46902019D02*
X91589171Y-47044876D01*
X91589171Y-47044876D02*
X91493933Y-47140114D01*
X91493933Y-47140114D02*
X91398695Y-47187733D01*
X115975000Y-80257104D02*
X116451190Y-80257104D01*
X115879762Y-80542819D02*
X116213095Y-79542819D01*
X116213095Y-79542819D02*
X116546428Y-80542819D01*
X116641667Y-80638057D02*
X117403571Y-80638057D01*
X118117857Y-80542819D02*
X117641667Y-80542819D01*
X117641667Y-80542819D02*
X117641667Y-79542819D01*
X118403572Y-79638057D02*
X118451191Y-79590438D01*
X118451191Y-79590438D02*
X118546429Y-79542819D01*
X118546429Y-79542819D02*
X118784524Y-79542819D01*
X118784524Y-79542819D02*
X118879762Y-79590438D01*
X118879762Y-79590438D02*
X118927381Y-79638057D01*
X118927381Y-79638057D02*
X118975000Y-79733295D01*
X118975000Y-79733295D02*
X118975000Y-79828533D01*
X118975000Y-79828533D02*
X118927381Y-79971390D01*
X118927381Y-79971390D02*
X118355953Y-80542819D01*
X118355953Y-80542819D02*
X118975000Y-80542819D01*
X97590124Y-93282419D02*
X97590124Y-94091942D01*
X97590124Y-94091942D02*
X97637743Y-94187180D01*
X97637743Y-94187180D02*
X97685362Y-94234800D01*
X97685362Y-94234800D02*
X97780600Y-94282419D01*
X97780600Y-94282419D02*
X97971076Y-94282419D01*
X97971076Y-94282419D02*
X98066314Y-94234800D01*
X98066314Y-94234800D02*
X98113933Y-94187180D01*
X98113933Y-94187180D02*
X98161552Y-94091942D01*
X98161552Y-94091942D02*
X98161552Y-93282419D01*
X98971076Y-93758609D02*
X98637743Y-93758609D01*
X98637743Y-94282419D02*
X98637743Y-93282419D01*
X98637743Y-93282419D02*
X99113933Y-93282419D01*
X99399648Y-93282419D02*
X100018695Y-93282419D01*
X100018695Y-93282419D02*
X99685362Y-93663371D01*
X99685362Y-93663371D02*
X99828219Y-93663371D01*
X99828219Y-93663371D02*
X99923457Y-93710990D01*
X99923457Y-93710990D02*
X99971076Y-93758609D01*
X99971076Y-93758609D02*
X100018695Y-93853847D01*
X100018695Y-93853847D02*
X100018695Y-94091942D01*
X100018695Y-94091942D02*
X99971076Y-94187180D01*
X99971076Y-94187180D02*
X99923457Y-94234800D01*
X99923457Y-94234800D02*
X99828219Y-94282419D01*
X99828219Y-94282419D02*
X99542505Y-94282419D01*
X99542505Y-94282419D02*
X99447267Y-94234800D01*
X99447267Y-94234800D02*
X99399648Y-94187180D01*
X126803161Y-96358857D02*
X126707923Y-96311238D01*
X126707923Y-96311238D02*
X126612685Y-96216000D01*
X126612685Y-96216000D02*
X126469828Y-96073142D01*
X126469828Y-96073142D02*
X126374590Y-96025523D01*
X126374590Y-96025523D02*
X126279352Y-96025523D01*
X126326971Y-96263619D02*
X126231733Y-96216000D01*
X126231733Y-96216000D02*
X126136495Y-96120761D01*
X126136495Y-96120761D02*
X126088876Y-95930285D01*
X126088876Y-95930285D02*
X126088876Y-95596952D01*
X126088876Y-95596952D02*
X126136495Y-95406476D01*
X126136495Y-95406476D02*
X126231733Y-95311238D01*
X126231733Y-95311238D02*
X126326971Y-95263619D01*
X126326971Y-95263619D02*
X126517447Y-95263619D01*
X126517447Y-95263619D02*
X126612685Y-95311238D01*
X126612685Y-95311238D02*
X126707923Y-95406476D01*
X126707923Y-95406476D02*
X126755542Y-95596952D01*
X126755542Y-95596952D02*
X126755542Y-95930285D01*
X126755542Y-95930285D02*
X126707923Y-96120761D01*
X126707923Y-96120761D02*
X126612685Y-96216000D01*
X126612685Y-96216000D02*
X126517447Y-96263619D01*
X126517447Y-96263619D02*
X126326971Y-96263619D01*
X127326971Y-95692190D02*
X127231733Y-95644571D01*
X127231733Y-95644571D02*
X127184114Y-95596952D01*
X127184114Y-95596952D02*
X127136495Y-95501714D01*
X127136495Y-95501714D02*
X127136495Y-95454095D01*
X127136495Y-95454095D02*
X127184114Y-95358857D01*
X127184114Y-95358857D02*
X127231733Y-95311238D01*
X127231733Y-95311238D02*
X127326971Y-95263619D01*
X127326971Y-95263619D02*
X127517447Y-95263619D01*
X127517447Y-95263619D02*
X127612685Y-95311238D01*
X127612685Y-95311238D02*
X127660304Y-95358857D01*
X127660304Y-95358857D02*
X127707923Y-95454095D01*
X127707923Y-95454095D02*
X127707923Y-95501714D01*
X127707923Y-95501714D02*
X127660304Y-95596952D01*
X127660304Y-95596952D02*
X127612685Y-95644571D01*
X127612685Y-95644571D02*
X127517447Y-95692190D01*
X127517447Y-95692190D02*
X127326971Y-95692190D01*
X127326971Y-95692190D02*
X127231733Y-95739809D01*
X127231733Y-95739809D02*
X127184114Y-95787428D01*
X127184114Y-95787428D02*
X127136495Y-95882666D01*
X127136495Y-95882666D02*
X127136495Y-96073142D01*
X127136495Y-96073142D02*
X127184114Y-96168380D01*
X127184114Y-96168380D02*
X127231733Y-96216000D01*
X127231733Y-96216000D02*
X127326971Y-96263619D01*
X127326971Y-96263619D02*
X127517447Y-96263619D01*
X127517447Y-96263619D02*
X127612685Y-96216000D01*
X127612685Y-96216000D02*
X127660304Y-96168380D01*
X127660304Y-96168380D02*
X127707923Y-96073142D01*
X127707923Y-96073142D02*
X127707923Y-95882666D01*
X127707923Y-95882666D02*
X127660304Y-95787428D01*
X127660304Y-95787428D02*
X127612685Y-95739809D01*
X127612685Y-95739809D02*
X127517447Y-95692190D01*
X122786924Y-93561819D02*
X122786924Y-94371342D01*
X122786924Y-94371342D02*
X122834543Y-94466580D01*
X122834543Y-94466580D02*
X122882162Y-94514200D01*
X122882162Y-94514200D02*
X122977400Y-94561819D01*
X122977400Y-94561819D02*
X123167876Y-94561819D01*
X123167876Y-94561819D02*
X123263114Y-94514200D01*
X123263114Y-94514200D02*
X123310733Y-94466580D01*
X123310733Y-94466580D02*
X123358352Y-94371342D01*
X123358352Y-94371342D02*
X123358352Y-93561819D01*
X124167876Y-94038009D02*
X123834543Y-94038009D01*
X123834543Y-94561819D02*
X123834543Y-93561819D01*
X123834543Y-93561819D02*
X124310733Y-93561819D01*
X125120257Y-93895152D02*
X125120257Y-94561819D01*
X124882162Y-93514200D02*
X124644067Y-94228485D01*
X124644067Y-94228485D02*
X125263114Y-94228485D01*
X83283466Y-111570419D02*
X83283466Y-112284704D01*
X83283466Y-112284704D02*
X83235847Y-112427561D01*
X83235847Y-112427561D02*
X83140609Y-112522800D01*
X83140609Y-112522800D02*
X82997752Y-112570419D01*
X82997752Y-112570419D02*
X82902514Y-112570419D01*
X83807276Y-112570419D02*
X83997752Y-112570419D01*
X83997752Y-112570419D02*
X84092990Y-112522800D01*
X84092990Y-112522800D02*
X84140609Y-112475180D01*
X84140609Y-112475180D02*
X84235847Y-112332323D01*
X84235847Y-112332323D02*
X84283466Y-112141847D01*
X84283466Y-112141847D02*
X84283466Y-111760895D01*
X84283466Y-111760895D02*
X84235847Y-111665657D01*
X84235847Y-111665657D02*
X84188228Y-111618038D01*
X84188228Y-111618038D02*
X84092990Y-111570419D01*
X84092990Y-111570419D02*
X83902514Y-111570419D01*
X83902514Y-111570419D02*
X83807276Y-111618038D01*
X83807276Y-111618038D02*
X83759657Y-111665657D01*
X83759657Y-111665657D02*
X83712038Y-111760895D01*
X83712038Y-111760895D02*
X83712038Y-111998990D01*
X83712038Y-111998990D02*
X83759657Y-112094228D01*
X83759657Y-112094228D02*
X83807276Y-112141847D01*
X83807276Y-112141847D02*
X83902514Y-112189466D01*
X83902514Y-112189466D02*
X84092990Y-112189466D01*
X84092990Y-112189466D02*
X84188228Y-112141847D01*
X84188228Y-112141847D02*
X84235847Y-112094228D01*
X84235847Y-112094228D02*
X84283466Y-111998990D01*
X121027142Y-87022580D02*
X120979523Y-87070200D01*
X120979523Y-87070200D02*
X120836666Y-87117819D01*
X120836666Y-87117819D02*
X120741428Y-87117819D01*
X120741428Y-87117819D02*
X120598571Y-87070200D01*
X120598571Y-87070200D02*
X120503333Y-86974961D01*
X120503333Y-86974961D02*
X120455714Y-86879723D01*
X120455714Y-86879723D02*
X120408095Y-86689247D01*
X120408095Y-86689247D02*
X120408095Y-86546390D01*
X120408095Y-86546390D02*
X120455714Y-86355914D01*
X120455714Y-86355914D02*
X120503333Y-86260676D01*
X120503333Y-86260676D02*
X120598571Y-86165438D01*
X120598571Y-86165438D02*
X120741428Y-86117819D01*
X120741428Y-86117819D02*
X120836666Y-86117819D01*
X120836666Y-86117819D02*
X120979523Y-86165438D01*
X120979523Y-86165438D02*
X121027142Y-86213057D01*
X121979523Y-87117819D02*
X121408095Y-87117819D01*
X121693809Y-87117819D02*
X121693809Y-86117819D01*
X121693809Y-86117819D02*
X121598571Y-86260676D01*
X121598571Y-86260676D02*
X121503333Y-86355914D01*
X121503333Y-86355914D02*
X121408095Y-86403533D01*
X122836666Y-86451152D02*
X122836666Y-87117819D01*
X122598571Y-86070200D02*
X122360476Y-86784485D01*
X122360476Y-86784485D02*
X122979523Y-86784485D01*
X109902666Y-65908819D02*
X109902666Y-66623104D01*
X109902666Y-66623104D02*
X109855047Y-66765961D01*
X109855047Y-66765961D02*
X109759809Y-66861200D01*
X109759809Y-66861200D02*
X109616952Y-66908819D01*
X109616952Y-66908819D02*
X109521714Y-66908819D01*
X110807428Y-66242152D02*
X110807428Y-66908819D01*
X110569333Y-65861200D02*
X110331238Y-66575485D01*
X110331238Y-66575485D02*
X110950285Y-66575485D01*
X134739142Y-115421580D02*
X134691523Y-115469200D01*
X134691523Y-115469200D02*
X134548666Y-115516819D01*
X134548666Y-115516819D02*
X134453428Y-115516819D01*
X134453428Y-115516819D02*
X134310571Y-115469200D01*
X134310571Y-115469200D02*
X134215333Y-115373961D01*
X134215333Y-115373961D02*
X134167714Y-115278723D01*
X134167714Y-115278723D02*
X134120095Y-115088247D01*
X134120095Y-115088247D02*
X134120095Y-114945390D01*
X134120095Y-114945390D02*
X134167714Y-114754914D01*
X134167714Y-114754914D02*
X134215333Y-114659676D01*
X134215333Y-114659676D02*
X134310571Y-114564438D01*
X134310571Y-114564438D02*
X134453428Y-114516819D01*
X134453428Y-114516819D02*
X134548666Y-114516819D01*
X134548666Y-114516819D02*
X134691523Y-114564438D01*
X134691523Y-114564438D02*
X134739142Y-114612057D01*
X135691523Y-115516819D02*
X135120095Y-115516819D01*
X135405809Y-115516819D02*
X135405809Y-114516819D01*
X135405809Y-114516819D02*
X135310571Y-114659676D01*
X135310571Y-114659676D02*
X135215333Y-114754914D01*
X135215333Y-114754914D02*
X135120095Y-114802533D01*
X136262952Y-114945390D02*
X136167714Y-114897771D01*
X136167714Y-114897771D02*
X136120095Y-114850152D01*
X136120095Y-114850152D02*
X136072476Y-114754914D01*
X136072476Y-114754914D02*
X136072476Y-114707295D01*
X136072476Y-114707295D02*
X136120095Y-114612057D01*
X136120095Y-114612057D02*
X136167714Y-114564438D01*
X136167714Y-114564438D02*
X136262952Y-114516819D01*
X136262952Y-114516819D02*
X136453428Y-114516819D01*
X136453428Y-114516819D02*
X136548666Y-114564438D01*
X136548666Y-114564438D02*
X136596285Y-114612057D01*
X136596285Y-114612057D02*
X136643904Y-114707295D01*
X136643904Y-114707295D02*
X136643904Y-114754914D01*
X136643904Y-114754914D02*
X136596285Y-114850152D01*
X136596285Y-114850152D02*
X136548666Y-114897771D01*
X136548666Y-114897771D02*
X136453428Y-114945390D01*
X136453428Y-114945390D02*
X136262952Y-114945390D01*
X136262952Y-114945390D02*
X136167714Y-114993009D01*
X136167714Y-114993009D02*
X136120095Y-115040628D01*
X136120095Y-115040628D02*
X136072476Y-115135866D01*
X136072476Y-115135866D02*
X136072476Y-115326342D01*
X136072476Y-115326342D02*
X136120095Y-115421580D01*
X136120095Y-115421580D02*
X136167714Y-115469200D01*
X136167714Y-115469200D02*
X136262952Y-115516819D01*
X136262952Y-115516819D02*
X136453428Y-115516819D01*
X136453428Y-115516819D02*
X136548666Y-115469200D01*
X136548666Y-115469200D02*
X136596285Y-115421580D01*
X136596285Y-115421580D02*
X136643904Y-115326342D01*
X136643904Y-115326342D02*
X136643904Y-115135866D01*
X136643904Y-115135866D02*
X136596285Y-115040628D01*
X136596285Y-115040628D02*
X136548666Y-114993009D01*
X136548666Y-114993009D02*
X136453428Y-114945390D01*
X131614942Y-68101380D02*
X131567323Y-68149000D01*
X131567323Y-68149000D02*
X131424466Y-68196619D01*
X131424466Y-68196619D02*
X131329228Y-68196619D01*
X131329228Y-68196619D02*
X131186371Y-68149000D01*
X131186371Y-68149000D02*
X131091133Y-68053761D01*
X131091133Y-68053761D02*
X131043514Y-67958523D01*
X131043514Y-67958523D02*
X130995895Y-67768047D01*
X130995895Y-67768047D02*
X130995895Y-67625190D01*
X130995895Y-67625190D02*
X131043514Y-67434714D01*
X131043514Y-67434714D02*
X131091133Y-67339476D01*
X131091133Y-67339476D02*
X131186371Y-67244238D01*
X131186371Y-67244238D02*
X131329228Y-67196619D01*
X131329228Y-67196619D02*
X131424466Y-67196619D01*
X131424466Y-67196619D02*
X131567323Y-67244238D01*
X131567323Y-67244238D02*
X131614942Y-67291857D01*
X132567323Y-68196619D02*
X131995895Y-68196619D01*
X132281609Y-68196619D02*
X132281609Y-67196619D01*
X132281609Y-67196619D02*
X132186371Y-67339476D01*
X132186371Y-67339476D02*
X132091133Y-67434714D01*
X132091133Y-67434714D02*
X131995895Y-67482333D01*
X133424466Y-67196619D02*
X133233990Y-67196619D01*
X133233990Y-67196619D02*
X133138752Y-67244238D01*
X133138752Y-67244238D02*
X133091133Y-67291857D01*
X133091133Y-67291857D02*
X132995895Y-67434714D01*
X132995895Y-67434714D02*
X132948276Y-67625190D01*
X132948276Y-67625190D02*
X132948276Y-68006142D01*
X132948276Y-68006142D02*
X132995895Y-68101380D01*
X132995895Y-68101380D02*
X133043514Y-68149000D01*
X133043514Y-68149000D02*
X133138752Y-68196619D01*
X133138752Y-68196619D02*
X133329228Y-68196619D01*
X133329228Y-68196619D02*
X133424466Y-68149000D01*
X133424466Y-68149000D02*
X133472085Y-68101380D01*
X133472085Y-68101380D02*
X133519704Y-68006142D01*
X133519704Y-68006142D02*
X133519704Y-67768047D01*
X133519704Y-67768047D02*
X133472085Y-67672809D01*
X133472085Y-67672809D02*
X133424466Y-67625190D01*
X133424466Y-67625190D02*
X133329228Y-67577571D01*
X133329228Y-67577571D02*
X133138752Y-67577571D01*
X133138752Y-67577571D02*
X133043514Y-67625190D01*
X133043514Y-67625190D02*
X132995895Y-67672809D01*
X132995895Y-67672809D02*
X132948276Y-67768047D01*
X90625800Y-80257104D02*
X91101990Y-80257104D01*
X90530562Y-80542819D02*
X90863895Y-79542819D01*
X90863895Y-79542819D02*
X91197228Y-80542819D01*
X91292467Y-80638057D02*
X92054371Y-80638057D01*
X92768657Y-80542819D02*
X92292467Y-80542819D01*
X92292467Y-80542819D02*
X92292467Y-79542819D01*
X93625800Y-80542819D02*
X93054372Y-80542819D01*
X93340086Y-80542819D02*
X93340086Y-79542819D01*
X93340086Y-79542819D02*
X93244848Y-79685676D01*
X93244848Y-79685676D02*
X93149610Y-79780914D01*
X93149610Y-79780914D02*
X93054372Y-79828533D01*
X106970533Y-93266419D02*
X106637200Y-92790228D01*
X106399105Y-93266419D02*
X106399105Y-92266419D01*
X106399105Y-92266419D02*
X106780057Y-92266419D01*
X106780057Y-92266419D02*
X106875295Y-92314038D01*
X106875295Y-92314038D02*
X106922914Y-92361657D01*
X106922914Y-92361657D02*
X106970533Y-92456895D01*
X106970533Y-92456895D02*
X106970533Y-92599752D01*
X106970533Y-92599752D02*
X106922914Y-92694990D01*
X106922914Y-92694990D02*
X106875295Y-92742609D01*
X106875295Y-92742609D02*
X106780057Y-92790228D01*
X106780057Y-92790228D02*
X106399105Y-92790228D01*
X107827676Y-92266419D02*
X107637200Y-92266419D01*
X107637200Y-92266419D02*
X107541962Y-92314038D01*
X107541962Y-92314038D02*
X107494343Y-92361657D01*
X107494343Y-92361657D02*
X107399105Y-92504514D01*
X107399105Y-92504514D02*
X107351486Y-92694990D01*
X107351486Y-92694990D02*
X107351486Y-93075942D01*
X107351486Y-93075942D02*
X107399105Y-93171180D01*
X107399105Y-93171180D02*
X107446724Y-93218800D01*
X107446724Y-93218800D02*
X107541962Y-93266419D01*
X107541962Y-93266419D02*
X107732438Y-93266419D01*
X107732438Y-93266419D02*
X107827676Y-93218800D01*
X107827676Y-93218800D02*
X107875295Y-93171180D01*
X107875295Y-93171180D02*
X107922914Y-93075942D01*
X107922914Y-93075942D02*
X107922914Y-92837847D01*
X107922914Y-92837847D02*
X107875295Y-92742609D01*
X107875295Y-92742609D02*
X107827676Y-92694990D01*
X107827676Y-92694990D02*
X107732438Y-92647371D01*
X107732438Y-92647371D02*
X107541962Y-92647371D01*
X107541962Y-92647371D02*
X107446724Y-92694990D01*
X107446724Y-92694990D02*
X107399105Y-92742609D01*
X107399105Y-92742609D02*
X107351486Y-92837847D01*
X95458142Y-86973580D02*
X95410523Y-87021200D01*
X95410523Y-87021200D02*
X95267666Y-87068819D01*
X95267666Y-87068819D02*
X95172428Y-87068819D01*
X95172428Y-87068819D02*
X95029571Y-87021200D01*
X95029571Y-87021200D02*
X94934333Y-86925961D01*
X94934333Y-86925961D02*
X94886714Y-86830723D01*
X94886714Y-86830723D02*
X94839095Y-86640247D01*
X94839095Y-86640247D02*
X94839095Y-86497390D01*
X94839095Y-86497390D02*
X94886714Y-86306914D01*
X94886714Y-86306914D02*
X94934333Y-86211676D01*
X94934333Y-86211676D02*
X95029571Y-86116438D01*
X95029571Y-86116438D02*
X95172428Y-86068819D01*
X95172428Y-86068819D02*
X95267666Y-86068819D01*
X95267666Y-86068819D02*
X95410523Y-86116438D01*
X95410523Y-86116438D02*
X95458142Y-86164057D01*
X96410523Y-87068819D02*
X95839095Y-87068819D01*
X96124809Y-87068819D02*
X96124809Y-86068819D01*
X96124809Y-86068819D02*
X96029571Y-86211676D01*
X96029571Y-86211676D02*
X95934333Y-86306914D01*
X95934333Y-86306914D02*
X95839095Y-86354533D01*
X96743857Y-86068819D02*
X97362904Y-86068819D01*
X97362904Y-86068819D02*
X97029571Y-86449771D01*
X97029571Y-86449771D02*
X97172428Y-86449771D01*
X97172428Y-86449771D02*
X97267666Y-86497390D01*
X97267666Y-86497390D02*
X97315285Y-86545009D01*
X97315285Y-86545009D02*
X97362904Y-86640247D01*
X97362904Y-86640247D02*
X97362904Y-86878342D01*
X97362904Y-86878342D02*
X97315285Y-86973580D01*
X97315285Y-86973580D02*
X97267666Y-87021200D01*
X97267666Y-87021200D02*
X97172428Y-87068819D01*
X97172428Y-87068819D02*
X96886714Y-87068819D01*
X96886714Y-87068819D02*
X96791476Y-87021200D01*
X96791476Y-87021200D02*
X96743857Y-86973580D01*
X114704905Y-67993419D02*
X114704905Y-66993419D01*
X114704905Y-66993419D02*
X114943000Y-66993419D01*
X114943000Y-66993419D02*
X115085857Y-67041038D01*
X115085857Y-67041038D02*
X115181095Y-67136276D01*
X115181095Y-67136276D02*
X115228714Y-67231514D01*
X115228714Y-67231514D02*
X115276333Y-67421990D01*
X115276333Y-67421990D02*
X115276333Y-67564847D01*
X115276333Y-67564847D02*
X115228714Y-67755323D01*
X115228714Y-67755323D02*
X115181095Y-67850561D01*
X115181095Y-67850561D02*
X115085857Y-67945800D01*
X115085857Y-67945800D02*
X114943000Y-67993419D01*
X114943000Y-67993419D02*
X114704905Y-67993419D01*
X116181095Y-66993419D02*
X115704905Y-66993419D01*
X115704905Y-66993419D02*
X115657286Y-67469609D01*
X115657286Y-67469609D02*
X115704905Y-67421990D01*
X115704905Y-67421990D02*
X115800143Y-67374371D01*
X115800143Y-67374371D02*
X116038238Y-67374371D01*
X116038238Y-67374371D02*
X116133476Y-67421990D01*
X116133476Y-67421990D02*
X116181095Y-67469609D01*
X116181095Y-67469609D02*
X116228714Y-67564847D01*
X116228714Y-67564847D02*
X116228714Y-67802942D01*
X116228714Y-67802942D02*
X116181095Y-67898180D01*
X116181095Y-67898180D02*
X116133476Y-67945800D01*
X116133476Y-67945800D02*
X116038238Y-67993419D01*
X116038238Y-67993419D02*
X115800143Y-67993419D01*
X115800143Y-67993419D02*
X115704905Y-67945800D01*
X115704905Y-67945800D02*
X115657286Y-67898180D01*
X128928905Y-68095019D02*
X128928905Y-67095019D01*
X128928905Y-67095019D02*
X129167000Y-67095019D01*
X129167000Y-67095019D02*
X129309857Y-67142638D01*
X129309857Y-67142638D02*
X129405095Y-67237876D01*
X129405095Y-67237876D02*
X129452714Y-67333114D01*
X129452714Y-67333114D02*
X129500333Y-67523590D01*
X129500333Y-67523590D02*
X129500333Y-67666447D01*
X129500333Y-67666447D02*
X129452714Y-67856923D01*
X129452714Y-67856923D02*
X129405095Y-67952161D01*
X129405095Y-67952161D02*
X129309857Y-68047400D01*
X129309857Y-68047400D02*
X129167000Y-68095019D01*
X129167000Y-68095019D02*
X128928905Y-68095019D01*
X130357476Y-67095019D02*
X130167000Y-67095019D01*
X130167000Y-67095019D02*
X130071762Y-67142638D01*
X130071762Y-67142638D02*
X130024143Y-67190257D01*
X130024143Y-67190257D02*
X129928905Y-67333114D01*
X129928905Y-67333114D02*
X129881286Y-67523590D01*
X129881286Y-67523590D02*
X129881286Y-67904542D01*
X129881286Y-67904542D02*
X129928905Y-67999780D01*
X129928905Y-67999780D02*
X129976524Y-68047400D01*
X129976524Y-68047400D02*
X130071762Y-68095019D01*
X130071762Y-68095019D02*
X130262238Y-68095019D01*
X130262238Y-68095019D02*
X130357476Y-68047400D01*
X130357476Y-68047400D02*
X130405095Y-67999780D01*
X130405095Y-67999780D02*
X130452714Y-67904542D01*
X130452714Y-67904542D02*
X130452714Y-67666447D01*
X130452714Y-67666447D02*
X130405095Y-67571209D01*
X130405095Y-67571209D02*
X130357476Y-67523590D01*
X130357476Y-67523590D02*
X130262238Y-67475971D01*
X130262238Y-67475971D02*
X130071762Y-67475971D01*
X130071762Y-67475971D02*
X129976524Y-67523590D01*
X129976524Y-67523590D02*
X129928905Y-67571209D01*
X129928905Y-67571209D02*
X129881286Y-67666447D01*
X136404361Y-66336057D02*
X136309123Y-66288438D01*
X136309123Y-66288438D02*
X136213885Y-66193200D01*
X136213885Y-66193200D02*
X136071028Y-66050342D01*
X136071028Y-66050342D02*
X135975790Y-66002723D01*
X135975790Y-66002723D02*
X135880552Y-66002723D01*
X135928171Y-66240819D02*
X135832933Y-66193200D01*
X135832933Y-66193200D02*
X135737695Y-66097961D01*
X135737695Y-66097961D02*
X135690076Y-65907485D01*
X135690076Y-65907485D02*
X135690076Y-65574152D01*
X135690076Y-65574152D02*
X135737695Y-65383676D01*
X135737695Y-65383676D02*
X135832933Y-65288438D01*
X135832933Y-65288438D02*
X135928171Y-65240819D01*
X135928171Y-65240819D02*
X136118647Y-65240819D01*
X136118647Y-65240819D02*
X136213885Y-65288438D01*
X136213885Y-65288438D02*
X136309123Y-65383676D01*
X136309123Y-65383676D02*
X136356742Y-65574152D01*
X136356742Y-65574152D02*
X136356742Y-65907485D01*
X136356742Y-65907485D02*
X136309123Y-66097961D01*
X136309123Y-66097961D02*
X136213885Y-66193200D01*
X136213885Y-66193200D02*
X136118647Y-66240819D01*
X136118647Y-66240819D02*
X135928171Y-66240819D01*
X136690076Y-65240819D02*
X137356742Y-65240819D01*
X137356742Y-65240819D02*
X136928171Y-66240819D01*
X150644266Y-91021819D02*
X150644266Y-91736104D01*
X150644266Y-91736104D02*
X150596647Y-91878961D01*
X150596647Y-91878961D02*
X150501409Y-91974200D01*
X150501409Y-91974200D02*
X150358552Y-92021819D01*
X150358552Y-92021819D02*
X150263314Y-92021819D01*
X151025219Y-91021819D02*
X151644266Y-91021819D01*
X151644266Y-91021819D02*
X151310933Y-91402771D01*
X151310933Y-91402771D02*
X151453790Y-91402771D01*
X151453790Y-91402771D02*
X151549028Y-91450390D01*
X151549028Y-91450390D02*
X151596647Y-91498009D01*
X151596647Y-91498009D02*
X151644266Y-91593247D01*
X151644266Y-91593247D02*
X151644266Y-91831342D01*
X151644266Y-91831342D02*
X151596647Y-91926580D01*
X151596647Y-91926580D02*
X151549028Y-91974200D01*
X151549028Y-91974200D02*
X151453790Y-92021819D01*
X151453790Y-92021819D02*
X151168076Y-92021819D01*
X151168076Y-92021819D02*
X151072838Y-91974200D01*
X151072838Y-91974200D02*
X151025219Y-91926580D01*
X123271142Y-73970580D02*
X123223523Y-74018200D01*
X123223523Y-74018200D02*
X123080666Y-74065819D01*
X123080666Y-74065819D02*
X122985428Y-74065819D01*
X122985428Y-74065819D02*
X122842571Y-74018200D01*
X122842571Y-74018200D02*
X122747333Y-73922961D01*
X122747333Y-73922961D02*
X122699714Y-73827723D01*
X122699714Y-73827723D02*
X122652095Y-73637247D01*
X122652095Y-73637247D02*
X122652095Y-73494390D01*
X122652095Y-73494390D02*
X122699714Y-73303914D01*
X122699714Y-73303914D02*
X122747333Y-73208676D01*
X122747333Y-73208676D02*
X122842571Y-73113438D01*
X122842571Y-73113438D02*
X122985428Y-73065819D01*
X122985428Y-73065819D02*
X123080666Y-73065819D01*
X123080666Y-73065819D02*
X123223523Y-73113438D01*
X123223523Y-73113438D02*
X123271142Y-73161057D01*
X124223523Y-74065819D02*
X123652095Y-74065819D01*
X123937809Y-74065819D02*
X123937809Y-73065819D01*
X123937809Y-73065819D02*
X123842571Y-73208676D01*
X123842571Y-73208676D02*
X123747333Y-73303914D01*
X123747333Y-73303914D02*
X123652095Y-73351533D01*
X124842571Y-73065819D02*
X124937809Y-73065819D01*
X124937809Y-73065819D02*
X125033047Y-73113438D01*
X125033047Y-73113438D02*
X125080666Y-73161057D01*
X125080666Y-73161057D02*
X125128285Y-73256295D01*
X125128285Y-73256295D02*
X125175904Y-73446771D01*
X125175904Y-73446771D02*
X125175904Y-73684866D01*
X125175904Y-73684866D02*
X125128285Y-73875342D01*
X125128285Y-73875342D02*
X125080666Y-73970580D01*
X125080666Y-73970580D02*
X125033047Y-74018200D01*
X125033047Y-74018200D02*
X124937809Y-74065819D01*
X124937809Y-74065819D02*
X124842571Y-74065819D01*
X124842571Y-74065819D02*
X124747333Y-74018200D01*
X124747333Y-74018200D02*
X124699714Y-73970580D01*
X124699714Y-73970580D02*
X124652095Y-73875342D01*
X124652095Y-73875342D02*
X124604476Y-73684866D01*
X124604476Y-73684866D02*
X124604476Y-73446771D01*
X124604476Y-73446771D02*
X124652095Y-73256295D01*
X124652095Y-73256295D02*
X124699714Y-73161057D01*
X124699714Y-73161057D02*
X124747333Y-73113438D01*
X124747333Y-73113438D02*
X124842571Y-73065819D01*
X118910333Y-73970580D02*
X118862714Y-74018200D01*
X118862714Y-74018200D02*
X118719857Y-74065819D01*
X118719857Y-74065819D02*
X118624619Y-74065819D01*
X118624619Y-74065819D02*
X118481762Y-74018200D01*
X118481762Y-74018200D02*
X118386524Y-73922961D01*
X118386524Y-73922961D02*
X118338905Y-73827723D01*
X118338905Y-73827723D02*
X118291286Y-73637247D01*
X118291286Y-73637247D02*
X118291286Y-73494390D01*
X118291286Y-73494390D02*
X118338905Y-73303914D01*
X118338905Y-73303914D02*
X118386524Y-73208676D01*
X118386524Y-73208676D02*
X118481762Y-73113438D01*
X118481762Y-73113438D02*
X118624619Y-73065819D01*
X118624619Y-73065819D02*
X118719857Y-73065819D01*
X118719857Y-73065819D02*
X118862714Y-73113438D01*
X118862714Y-73113438D02*
X118910333Y-73161057D01*
X119386524Y-74065819D02*
X119577000Y-74065819D01*
X119577000Y-74065819D02*
X119672238Y-74018200D01*
X119672238Y-74018200D02*
X119719857Y-73970580D01*
X119719857Y-73970580D02*
X119815095Y-73827723D01*
X119815095Y-73827723D02*
X119862714Y-73637247D01*
X119862714Y-73637247D02*
X119862714Y-73256295D01*
X119862714Y-73256295D02*
X119815095Y-73161057D01*
X119815095Y-73161057D02*
X119767476Y-73113438D01*
X119767476Y-73113438D02*
X119672238Y-73065819D01*
X119672238Y-73065819D02*
X119481762Y-73065819D01*
X119481762Y-73065819D02*
X119386524Y-73113438D01*
X119386524Y-73113438D02*
X119338905Y-73161057D01*
X119338905Y-73161057D02*
X119291286Y-73256295D01*
X119291286Y-73256295D02*
X119291286Y-73494390D01*
X119291286Y-73494390D02*
X119338905Y-73589628D01*
X119338905Y-73589628D02*
X119386524Y-73637247D01*
X119386524Y-73637247D02*
X119481762Y-73684866D01*
X119481762Y-73684866D02*
X119672238Y-73684866D01*
X119672238Y-73684866D02*
X119767476Y-73637247D01*
X119767476Y-73637247D02*
X119815095Y-73589628D01*
X119815095Y-73589628D02*
X119862714Y-73494390D01*
X113091933Y-67968019D02*
X112758600Y-67491828D01*
X112520505Y-67968019D02*
X112520505Y-66968019D01*
X112520505Y-66968019D02*
X112901457Y-66968019D01*
X112901457Y-66968019D02*
X112996695Y-67015638D01*
X112996695Y-67015638D02*
X113044314Y-67063257D01*
X113044314Y-67063257D02*
X113091933Y-67158495D01*
X113091933Y-67158495D02*
X113091933Y-67301352D01*
X113091933Y-67301352D02*
X113044314Y-67396590D01*
X113044314Y-67396590D02*
X112996695Y-67444209D01*
X112996695Y-67444209D02*
X112901457Y-67491828D01*
X112901457Y-67491828D02*
X112520505Y-67491828D01*
X113949076Y-67301352D02*
X113949076Y-67968019D01*
X113710981Y-66920400D02*
X113472886Y-67634685D01*
X113472886Y-67634685D02*
X114091933Y-67634685D01*
X101749023Y-80019009D02*
X101891880Y-80066628D01*
X101891880Y-80066628D02*
X101939499Y-80114247D01*
X101939499Y-80114247D02*
X101987118Y-80209485D01*
X101987118Y-80209485D02*
X101987118Y-80352342D01*
X101987118Y-80352342D02*
X101939499Y-80447580D01*
X101939499Y-80447580D02*
X101891880Y-80495200D01*
X101891880Y-80495200D02*
X101796642Y-80542819D01*
X101796642Y-80542819D02*
X101415690Y-80542819D01*
X101415690Y-80542819D02*
X101415690Y-79542819D01*
X101415690Y-79542819D02*
X101749023Y-79542819D01*
X101749023Y-79542819D02*
X101844261Y-79590438D01*
X101844261Y-79590438D02*
X101891880Y-79638057D01*
X101891880Y-79638057D02*
X101939499Y-79733295D01*
X101939499Y-79733295D02*
X101939499Y-79828533D01*
X101939499Y-79828533D02*
X101891880Y-79923771D01*
X101891880Y-79923771D02*
X101844261Y-79971390D01*
X101844261Y-79971390D02*
X101749023Y-80019009D01*
X101749023Y-80019009D02*
X101415690Y-80019009D01*
X102177595Y-80638057D02*
X102939499Y-80638057D01*
X103653785Y-80542819D02*
X103177595Y-80542819D01*
X103177595Y-80542819D02*
X103177595Y-79542819D01*
X104510928Y-80542819D02*
X103939500Y-80542819D01*
X104225214Y-80542819D02*
X104225214Y-79542819D01*
X104225214Y-79542819D02*
X104129976Y-79685676D01*
X104129976Y-79685676D02*
X104034738Y-79780914D01*
X104034738Y-79780914D02*
X103939500Y-79828533D01*
X83486666Y-57074819D02*
X83486666Y-57789104D01*
X83486666Y-57789104D02*
X83439047Y-57931961D01*
X83439047Y-57931961D02*
X83343809Y-58027200D01*
X83343809Y-58027200D02*
X83200952Y-58074819D01*
X83200952Y-58074819D02*
X83105714Y-58074819D01*
X83915238Y-57170057D02*
X83962857Y-57122438D01*
X83962857Y-57122438D02*
X84058095Y-57074819D01*
X84058095Y-57074819D02*
X84296190Y-57074819D01*
X84296190Y-57074819D02*
X84391428Y-57122438D01*
X84391428Y-57122438D02*
X84439047Y-57170057D01*
X84439047Y-57170057D02*
X84486666Y-57265295D01*
X84486666Y-57265295D02*
X84486666Y-57360533D01*
X84486666Y-57360533D02*
X84439047Y-57503390D01*
X84439047Y-57503390D02*
X83867619Y-58074819D01*
X83867619Y-58074819D02*
X84486666Y-58074819D01*
X117403714Y-93342619D02*
X117403714Y-92342619D01*
X117403714Y-92342619D02*
X117641809Y-92342619D01*
X117641809Y-92342619D02*
X117784666Y-92390238D01*
X117784666Y-92390238D02*
X117879904Y-92485476D01*
X117879904Y-92485476D02*
X117927523Y-92580714D01*
X117927523Y-92580714D02*
X117975142Y-92771190D01*
X117975142Y-92771190D02*
X117975142Y-92914047D01*
X117975142Y-92914047D02*
X117927523Y-93104523D01*
X117927523Y-93104523D02*
X117879904Y-93199761D01*
X117879904Y-93199761D02*
X117784666Y-93295000D01*
X117784666Y-93295000D02*
X117641809Y-93342619D01*
X117641809Y-93342619D02*
X117403714Y-93342619D01*
X118927523Y-93342619D02*
X118356095Y-93342619D01*
X118641809Y-93342619D02*
X118641809Y-92342619D01*
X118641809Y-92342619D02*
X118546571Y-92485476D01*
X118546571Y-92485476D02*
X118451333Y-92580714D01*
X118451333Y-92580714D02*
X118356095Y-92628333D01*
X119546571Y-92342619D02*
X119641809Y-92342619D01*
X119641809Y-92342619D02*
X119737047Y-92390238D01*
X119737047Y-92390238D02*
X119784666Y-92437857D01*
X119784666Y-92437857D02*
X119832285Y-92533095D01*
X119832285Y-92533095D02*
X119879904Y-92723571D01*
X119879904Y-92723571D02*
X119879904Y-92961666D01*
X119879904Y-92961666D02*
X119832285Y-93152142D01*
X119832285Y-93152142D02*
X119784666Y-93247380D01*
X119784666Y-93247380D02*
X119737047Y-93295000D01*
X119737047Y-93295000D02*
X119641809Y-93342619D01*
X119641809Y-93342619D02*
X119546571Y-93342619D01*
X119546571Y-93342619D02*
X119451333Y-93295000D01*
X119451333Y-93295000D02*
X119403714Y-93247380D01*
X119403714Y-93247380D02*
X119356095Y-93152142D01*
X119356095Y-93152142D02*
X119308476Y-92961666D01*
X119308476Y-92961666D02*
X119308476Y-92723571D01*
X119308476Y-92723571D02*
X119356095Y-92533095D01*
X119356095Y-92533095D02*
X119403714Y-92437857D01*
X119403714Y-92437857D02*
X119451333Y-92390238D01*
X119451333Y-92390238D02*
X119546571Y-92342619D01*
X89635105Y-68196619D02*
X89635105Y-67196619D01*
X89635105Y-67196619D02*
X89873200Y-67196619D01*
X89873200Y-67196619D02*
X90016057Y-67244238D01*
X90016057Y-67244238D02*
X90111295Y-67339476D01*
X90111295Y-67339476D02*
X90158914Y-67434714D01*
X90158914Y-67434714D02*
X90206533Y-67625190D01*
X90206533Y-67625190D02*
X90206533Y-67768047D01*
X90206533Y-67768047D02*
X90158914Y-67958523D01*
X90158914Y-67958523D02*
X90111295Y-68053761D01*
X90111295Y-68053761D02*
X90016057Y-68149000D01*
X90016057Y-68149000D02*
X89873200Y-68196619D01*
X89873200Y-68196619D02*
X89635105Y-68196619D01*
X91063676Y-67529952D02*
X91063676Y-68196619D01*
X90825581Y-67149000D02*
X90587486Y-67863285D01*
X90587486Y-67863285D02*
X91206533Y-67863285D01*
X150949066Y-56554019D02*
X150949066Y-57268304D01*
X150949066Y-57268304D02*
X150901447Y-57411161D01*
X150901447Y-57411161D02*
X150806209Y-57506400D01*
X150806209Y-57506400D02*
X150663352Y-57554019D01*
X150663352Y-57554019D02*
X150568114Y-57554019D01*
X151901447Y-56554019D02*
X151425257Y-56554019D01*
X151425257Y-56554019D02*
X151377638Y-57030209D01*
X151377638Y-57030209D02*
X151425257Y-56982590D01*
X151425257Y-56982590D02*
X151520495Y-56934971D01*
X151520495Y-56934971D02*
X151758590Y-56934971D01*
X151758590Y-56934971D02*
X151853828Y-56982590D01*
X151853828Y-56982590D02*
X151901447Y-57030209D01*
X151901447Y-57030209D02*
X151949066Y-57125447D01*
X151949066Y-57125447D02*
X151949066Y-57363542D01*
X151949066Y-57363542D02*
X151901447Y-57458780D01*
X151901447Y-57458780D02*
X151853828Y-57506400D01*
X151853828Y-57506400D02*
X151758590Y-57554019D01*
X151758590Y-57554019D02*
X151520495Y-57554019D01*
X151520495Y-57554019D02*
X151425257Y-57506400D01*
X151425257Y-57506400D02*
X151377638Y-57458780D01*
X150949066Y-62091219D02*
X150949066Y-62805504D01*
X150949066Y-62805504D02*
X150901447Y-62948361D01*
X150901447Y-62948361D02*
X150806209Y-63043600D01*
X150806209Y-63043600D02*
X150663352Y-63091219D01*
X150663352Y-63091219D02*
X150568114Y-63091219D01*
X151330019Y-62091219D02*
X151996685Y-62091219D01*
X151996685Y-62091219D02*
X151568114Y-63091219D01*
X89660505Y-87272019D02*
X89660505Y-86272019D01*
X89660505Y-86272019D02*
X89898600Y-86272019D01*
X89898600Y-86272019D02*
X90041457Y-86319638D01*
X90041457Y-86319638D02*
X90136695Y-86414876D01*
X90136695Y-86414876D02*
X90184314Y-86510114D01*
X90184314Y-86510114D02*
X90231933Y-86700590D01*
X90231933Y-86700590D02*
X90231933Y-86843447D01*
X90231933Y-86843447D02*
X90184314Y-87033923D01*
X90184314Y-87033923D02*
X90136695Y-87129161D01*
X90136695Y-87129161D02*
X90041457Y-87224400D01*
X90041457Y-87224400D02*
X89898600Y-87272019D01*
X89898600Y-87272019D02*
X89660505Y-87272019D01*
X90803362Y-86700590D02*
X90708124Y-86652971D01*
X90708124Y-86652971D02*
X90660505Y-86605352D01*
X90660505Y-86605352D02*
X90612886Y-86510114D01*
X90612886Y-86510114D02*
X90612886Y-86462495D01*
X90612886Y-86462495D02*
X90660505Y-86367257D01*
X90660505Y-86367257D02*
X90708124Y-86319638D01*
X90708124Y-86319638D02*
X90803362Y-86272019D01*
X90803362Y-86272019D02*
X90993838Y-86272019D01*
X90993838Y-86272019D02*
X91089076Y-86319638D01*
X91089076Y-86319638D02*
X91136695Y-86367257D01*
X91136695Y-86367257D02*
X91184314Y-86462495D01*
X91184314Y-86462495D02*
X91184314Y-86510114D01*
X91184314Y-86510114D02*
X91136695Y-86605352D01*
X91136695Y-86605352D02*
X91089076Y-86652971D01*
X91089076Y-86652971D02*
X90993838Y-86700590D01*
X90993838Y-86700590D02*
X90803362Y-86700590D01*
X90803362Y-86700590D02*
X90708124Y-86748209D01*
X90708124Y-86748209D02*
X90660505Y-86795828D01*
X90660505Y-86795828D02*
X90612886Y-86891066D01*
X90612886Y-86891066D02*
X90612886Y-87081542D01*
X90612886Y-87081542D02*
X90660505Y-87176780D01*
X90660505Y-87176780D02*
X90708124Y-87224400D01*
X90708124Y-87224400D02*
X90803362Y-87272019D01*
X90803362Y-87272019D02*
X90993838Y-87272019D01*
X90993838Y-87272019D02*
X91089076Y-87224400D01*
X91089076Y-87224400D02*
X91136695Y-87176780D01*
X91136695Y-87176780D02*
X91184314Y-87081542D01*
X91184314Y-87081542D02*
X91184314Y-86891066D01*
X91184314Y-86891066D02*
X91136695Y-86795828D01*
X91136695Y-86795828D02*
X91089076Y-86748209D01*
X91089076Y-86748209D02*
X90993838Y-86700590D01*
X129563905Y-93266419D02*
X129563905Y-92266419D01*
X129563905Y-92266419D02*
X129802000Y-92266419D01*
X129802000Y-92266419D02*
X129944857Y-92314038D01*
X129944857Y-92314038D02*
X130040095Y-92409276D01*
X130040095Y-92409276D02*
X130087714Y-92504514D01*
X130087714Y-92504514D02*
X130135333Y-92694990D01*
X130135333Y-92694990D02*
X130135333Y-92837847D01*
X130135333Y-92837847D02*
X130087714Y-93028323D01*
X130087714Y-93028323D02*
X130040095Y-93123561D01*
X130040095Y-93123561D02*
X129944857Y-93218800D01*
X129944857Y-93218800D02*
X129802000Y-93266419D01*
X129802000Y-93266419D02*
X129563905Y-93266419D01*
X130611524Y-93266419D02*
X130802000Y-93266419D01*
X130802000Y-93266419D02*
X130897238Y-93218800D01*
X130897238Y-93218800D02*
X130944857Y-93171180D01*
X130944857Y-93171180D02*
X131040095Y-93028323D01*
X131040095Y-93028323D02*
X131087714Y-92837847D01*
X131087714Y-92837847D02*
X131087714Y-92456895D01*
X131087714Y-92456895D02*
X131040095Y-92361657D01*
X131040095Y-92361657D02*
X130992476Y-92314038D01*
X130992476Y-92314038D02*
X130897238Y-92266419D01*
X130897238Y-92266419D02*
X130706762Y-92266419D01*
X130706762Y-92266419D02*
X130611524Y-92314038D01*
X130611524Y-92314038D02*
X130563905Y-92361657D01*
X130563905Y-92361657D02*
X130516286Y-92456895D01*
X130516286Y-92456895D02*
X130516286Y-92694990D01*
X130516286Y-92694990D02*
X130563905Y-92790228D01*
X130563905Y-92790228D02*
X130611524Y-92837847D01*
X130611524Y-92837847D02*
X130706762Y-92885466D01*
X130706762Y-92885466D02*
X130897238Y-92885466D01*
X130897238Y-92885466D02*
X130992476Y-92837847D01*
X130992476Y-92837847D02*
X131040095Y-92790228D01*
X131040095Y-92790228D02*
X131087714Y-92694990D01*
X100583142Y-86973580D02*
X100535523Y-87021200D01*
X100535523Y-87021200D02*
X100392666Y-87068819D01*
X100392666Y-87068819D02*
X100297428Y-87068819D01*
X100297428Y-87068819D02*
X100154571Y-87021200D01*
X100154571Y-87021200D02*
X100059333Y-86925961D01*
X100059333Y-86925961D02*
X100011714Y-86830723D01*
X100011714Y-86830723D02*
X99964095Y-86640247D01*
X99964095Y-86640247D02*
X99964095Y-86497390D01*
X99964095Y-86497390D02*
X100011714Y-86306914D01*
X100011714Y-86306914D02*
X100059333Y-86211676D01*
X100059333Y-86211676D02*
X100154571Y-86116438D01*
X100154571Y-86116438D02*
X100297428Y-86068819D01*
X100297428Y-86068819D02*
X100392666Y-86068819D01*
X100392666Y-86068819D02*
X100535523Y-86116438D01*
X100535523Y-86116438D02*
X100583142Y-86164057D01*
X101535523Y-87068819D02*
X100964095Y-87068819D01*
X101249809Y-87068819D02*
X101249809Y-86068819D01*
X101249809Y-86068819D02*
X101154571Y-86211676D01*
X101154571Y-86211676D02*
X101059333Y-86306914D01*
X101059333Y-86306914D02*
X100964095Y-86354533D01*
X101916476Y-86164057D02*
X101964095Y-86116438D01*
X101964095Y-86116438D02*
X102059333Y-86068819D01*
X102059333Y-86068819D02*
X102297428Y-86068819D01*
X102297428Y-86068819D02*
X102392666Y-86116438D01*
X102392666Y-86116438D02*
X102440285Y-86164057D01*
X102440285Y-86164057D02*
X102487904Y-86259295D01*
X102487904Y-86259295D02*
X102487904Y-86354533D01*
X102487904Y-86354533D02*
X102440285Y-86497390D01*
X102440285Y-86497390D02*
X101868857Y-87068819D01*
X101868857Y-87068819D02*
X102487904Y-87068819D01*
X106221305Y-68298219D02*
X106221305Y-67298219D01*
X106221305Y-67298219D02*
X106459400Y-67298219D01*
X106459400Y-67298219D02*
X106602257Y-67345838D01*
X106602257Y-67345838D02*
X106697495Y-67441076D01*
X106697495Y-67441076D02*
X106745114Y-67536314D01*
X106745114Y-67536314D02*
X106792733Y-67726790D01*
X106792733Y-67726790D02*
X106792733Y-67869647D01*
X106792733Y-67869647D02*
X106745114Y-68060123D01*
X106745114Y-68060123D02*
X106697495Y-68155361D01*
X106697495Y-68155361D02*
X106602257Y-68250600D01*
X106602257Y-68250600D02*
X106459400Y-68298219D01*
X106459400Y-68298219D02*
X106221305Y-68298219D01*
X107126067Y-67298219D02*
X107745114Y-67298219D01*
X107745114Y-67298219D02*
X107411781Y-67679171D01*
X107411781Y-67679171D02*
X107554638Y-67679171D01*
X107554638Y-67679171D02*
X107649876Y-67726790D01*
X107649876Y-67726790D02*
X107697495Y-67774409D01*
X107697495Y-67774409D02*
X107745114Y-67869647D01*
X107745114Y-67869647D02*
X107745114Y-68107742D01*
X107745114Y-68107742D02*
X107697495Y-68202980D01*
X107697495Y-68202980D02*
X107649876Y-68250600D01*
X107649876Y-68250600D02*
X107554638Y-68298219D01*
X107554638Y-68298219D02*
X107268924Y-68298219D01*
X107268924Y-68298219D02*
X107173686Y-68250600D01*
X107173686Y-68250600D02*
X107126067Y-68202980D01*
X104481333Y-68450619D02*
X104148000Y-67974428D01*
X103909905Y-68450619D02*
X103909905Y-67450619D01*
X103909905Y-67450619D02*
X104290857Y-67450619D01*
X104290857Y-67450619D02*
X104386095Y-67498238D01*
X104386095Y-67498238D02*
X104433714Y-67545857D01*
X104433714Y-67545857D02*
X104481333Y-67641095D01*
X104481333Y-67641095D02*
X104481333Y-67783952D01*
X104481333Y-67783952D02*
X104433714Y-67879190D01*
X104433714Y-67879190D02*
X104386095Y-67926809D01*
X104386095Y-67926809D02*
X104290857Y-67974428D01*
X104290857Y-67974428D02*
X103909905Y-67974428D01*
X104862286Y-67545857D02*
X104909905Y-67498238D01*
X104909905Y-67498238D02*
X105005143Y-67450619D01*
X105005143Y-67450619D02*
X105243238Y-67450619D01*
X105243238Y-67450619D02*
X105338476Y-67498238D01*
X105338476Y-67498238D02*
X105386095Y-67545857D01*
X105386095Y-67545857D02*
X105433714Y-67641095D01*
X105433714Y-67641095D02*
X105433714Y-67736333D01*
X105433714Y-67736333D02*
X105386095Y-67879190D01*
X105386095Y-67879190D02*
X104814667Y-68450619D01*
X104814667Y-68450619D02*
X105433714Y-68450619D01*
X105162361Y-47921057D02*
X105067123Y-47873438D01*
X105067123Y-47873438D02*
X104971885Y-47778200D01*
X104971885Y-47778200D02*
X104829028Y-47635342D01*
X104829028Y-47635342D02*
X104733790Y-47587723D01*
X104733790Y-47587723D02*
X104638552Y-47587723D01*
X104686171Y-47825819D02*
X104590933Y-47778200D01*
X104590933Y-47778200D02*
X104495695Y-47682961D01*
X104495695Y-47682961D02*
X104448076Y-47492485D01*
X104448076Y-47492485D02*
X104448076Y-47159152D01*
X104448076Y-47159152D02*
X104495695Y-46968676D01*
X104495695Y-46968676D02*
X104590933Y-46873438D01*
X104590933Y-46873438D02*
X104686171Y-46825819D01*
X104686171Y-46825819D02*
X104876647Y-46825819D01*
X104876647Y-46825819D02*
X104971885Y-46873438D01*
X104971885Y-46873438D02*
X105067123Y-46968676D01*
X105067123Y-46968676D02*
X105114742Y-47159152D01*
X105114742Y-47159152D02*
X105114742Y-47492485D01*
X105114742Y-47492485D02*
X105067123Y-47682961D01*
X105067123Y-47682961D02*
X104971885Y-47778200D01*
X104971885Y-47778200D02*
X104876647Y-47825819D01*
X104876647Y-47825819D02*
X104686171Y-47825819D01*
X105495695Y-46921057D02*
X105543314Y-46873438D01*
X105543314Y-46873438D02*
X105638552Y-46825819D01*
X105638552Y-46825819D02*
X105876647Y-46825819D01*
X105876647Y-46825819D02*
X105971885Y-46873438D01*
X105971885Y-46873438D02*
X106019504Y-46921057D01*
X106019504Y-46921057D02*
X106067123Y-47016295D01*
X106067123Y-47016295D02*
X106067123Y-47111533D01*
X106067123Y-47111533D02*
X106019504Y-47254390D01*
X106019504Y-47254390D02*
X105448076Y-47825819D01*
X105448076Y-47825819D02*
X106067123Y-47825819D01*
X127265133Y-68247419D02*
X126931800Y-67771228D01*
X126693705Y-68247419D02*
X126693705Y-67247419D01*
X126693705Y-67247419D02*
X127074657Y-67247419D01*
X127074657Y-67247419D02*
X127169895Y-67295038D01*
X127169895Y-67295038D02*
X127217514Y-67342657D01*
X127217514Y-67342657D02*
X127265133Y-67437895D01*
X127265133Y-67437895D02*
X127265133Y-67580752D01*
X127265133Y-67580752D02*
X127217514Y-67675990D01*
X127217514Y-67675990D02*
X127169895Y-67723609D01*
X127169895Y-67723609D02*
X127074657Y-67771228D01*
X127074657Y-67771228D02*
X126693705Y-67771228D01*
X128169895Y-67247419D02*
X127693705Y-67247419D01*
X127693705Y-67247419D02*
X127646086Y-67723609D01*
X127646086Y-67723609D02*
X127693705Y-67675990D01*
X127693705Y-67675990D02*
X127788943Y-67628371D01*
X127788943Y-67628371D02*
X128027038Y-67628371D01*
X128027038Y-67628371D02*
X128122276Y-67675990D01*
X128122276Y-67675990D02*
X128169895Y-67723609D01*
X128169895Y-67723609D02*
X128217514Y-67818847D01*
X128217514Y-67818847D02*
X128217514Y-68056942D01*
X128217514Y-68056942D02*
X128169895Y-68152180D01*
X128169895Y-68152180D02*
X128122276Y-68199800D01*
X128122276Y-68199800D02*
X128027038Y-68247419D01*
X128027038Y-68247419D02*
X127788943Y-68247419D01*
X127788943Y-68247419D02*
X127693705Y-68199800D01*
X127693705Y-68199800D02*
X127646086Y-68152180D01*
X136993333Y-95196819D02*
X136517143Y-95196819D01*
X136517143Y-95196819D02*
X136517143Y-94196819D01*
X137279048Y-94292057D02*
X137326667Y-94244438D01*
X137326667Y-94244438D02*
X137421905Y-94196819D01*
X137421905Y-94196819D02*
X137660000Y-94196819D01*
X137660000Y-94196819D02*
X137755238Y-94244438D01*
X137755238Y-94244438D02*
X137802857Y-94292057D01*
X137802857Y-94292057D02*
X137850476Y-94387295D01*
X137850476Y-94387295D02*
X137850476Y-94482533D01*
X137850476Y-94482533D02*
X137802857Y-94625390D01*
X137802857Y-94625390D02*
X137231429Y-95196819D01*
X137231429Y-95196819D02*
X137850476Y-95196819D01*
X87666533Y-68171219D02*
X87333200Y-67695028D01*
X87095105Y-68171219D02*
X87095105Y-67171219D01*
X87095105Y-67171219D02*
X87476057Y-67171219D01*
X87476057Y-67171219D02*
X87571295Y-67218838D01*
X87571295Y-67218838D02*
X87618914Y-67266457D01*
X87618914Y-67266457D02*
X87666533Y-67361695D01*
X87666533Y-67361695D02*
X87666533Y-67504552D01*
X87666533Y-67504552D02*
X87618914Y-67599790D01*
X87618914Y-67599790D02*
X87571295Y-67647409D01*
X87571295Y-67647409D02*
X87476057Y-67695028D01*
X87476057Y-67695028D02*
X87095105Y-67695028D01*
X87999867Y-67171219D02*
X88618914Y-67171219D01*
X88618914Y-67171219D02*
X88285581Y-67552171D01*
X88285581Y-67552171D02*
X88428438Y-67552171D01*
X88428438Y-67552171D02*
X88523676Y-67599790D01*
X88523676Y-67599790D02*
X88571295Y-67647409D01*
X88571295Y-67647409D02*
X88618914Y-67742647D01*
X88618914Y-67742647D02*
X88618914Y-67980742D01*
X88618914Y-67980742D02*
X88571295Y-68075980D01*
X88571295Y-68075980D02*
X88523676Y-68123600D01*
X88523676Y-68123600D02*
X88428438Y-68171219D01*
X88428438Y-68171219D02*
X88142724Y-68171219D01*
X88142724Y-68171219D02*
X88047486Y-68123600D01*
X88047486Y-68123600D02*
X87999867Y-68075980D01*
X98728333Y-73994080D02*
X98680714Y-74041700D01*
X98680714Y-74041700D02*
X98537857Y-74089319D01*
X98537857Y-74089319D02*
X98442619Y-74089319D01*
X98442619Y-74089319D02*
X98299762Y-74041700D01*
X98299762Y-74041700D02*
X98204524Y-73946461D01*
X98204524Y-73946461D02*
X98156905Y-73851223D01*
X98156905Y-73851223D02*
X98109286Y-73660747D01*
X98109286Y-73660747D02*
X98109286Y-73517890D01*
X98109286Y-73517890D02*
X98156905Y-73327414D01*
X98156905Y-73327414D02*
X98204524Y-73232176D01*
X98204524Y-73232176D02*
X98299762Y-73136938D01*
X98299762Y-73136938D02*
X98442619Y-73089319D01*
X98442619Y-73089319D02*
X98537857Y-73089319D01*
X98537857Y-73089319D02*
X98680714Y-73136938D01*
X98680714Y-73136938D02*
X98728333Y-73184557D01*
X99633095Y-73089319D02*
X99156905Y-73089319D01*
X99156905Y-73089319D02*
X99109286Y-73565509D01*
X99109286Y-73565509D02*
X99156905Y-73517890D01*
X99156905Y-73517890D02*
X99252143Y-73470271D01*
X99252143Y-73470271D02*
X99490238Y-73470271D01*
X99490238Y-73470271D02*
X99585476Y-73517890D01*
X99585476Y-73517890D02*
X99633095Y-73565509D01*
X99633095Y-73565509D02*
X99680714Y-73660747D01*
X99680714Y-73660747D02*
X99680714Y-73898842D01*
X99680714Y-73898842D02*
X99633095Y-73994080D01*
X99633095Y-73994080D02*
X99585476Y-74041700D01*
X99585476Y-74041700D02*
X99490238Y-74089319D01*
X99490238Y-74089319D02*
X99252143Y-74089319D01*
X99252143Y-74089319D02*
X99156905Y-74041700D01*
X99156905Y-74041700D02*
X99109286Y-73994080D01*
X132294333Y-93063219D02*
X131961000Y-92587028D01*
X131722905Y-93063219D02*
X131722905Y-92063219D01*
X131722905Y-92063219D02*
X132103857Y-92063219D01*
X132103857Y-92063219D02*
X132199095Y-92110838D01*
X132199095Y-92110838D02*
X132246714Y-92158457D01*
X132246714Y-92158457D02*
X132294333Y-92253695D01*
X132294333Y-92253695D02*
X132294333Y-92396552D01*
X132294333Y-92396552D02*
X132246714Y-92491790D01*
X132246714Y-92491790D02*
X132199095Y-92539409D01*
X132199095Y-92539409D02*
X132103857Y-92587028D01*
X132103857Y-92587028D02*
X131722905Y-92587028D01*
X132865762Y-92491790D02*
X132770524Y-92444171D01*
X132770524Y-92444171D02*
X132722905Y-92396552D01*
X132722905Y-92396552D02*
X132675286Y-92301314D01*
X132675286Y-92301314D02*
X132675286Y-92253695D01*
X132675286Y-92253695D02*
X132722905Y-92158457D01*
X132722905Y-92158457D02*
X132770524Y-92110838D01*
X132770524Y-92110838D02*
X132865762Y-92063219D01*
X132865762Y-92063219D02*
X133056238Y-92063219D01*
X133056238Y-92063219D02*
X133151476Y-92110838D01*
X133151476Y-92110838D02*
X133199095Y-92158457D01*
X133199095Y-92158457D02*
X133246714Y-92253695D01*
X133246714Y-92253695D02*
X133246714Y-92301314D01*
X133246714Y-92301314D02*
X133199095Y-92396552D01*
X133199095Y-92396552D02*
X133151476Y-92444171D01*
X133151476Y-92444171D02*
X133056238Y-92491790D01*
X133056238Y-92491790D02*
X132865762Y-92491790D01*
X132865762Y-92491790D02*
X132770524Y-92539409D01*
X132770524Y-92539409D02*
X132722905Y-92587028D01*
X132722905Y-92587028D02*
X132675286Y-92682266D01*
X132675286Y-92682266D02*
X132675286Y-92872742D01*
X132675286Y-92872742D02*
X132722905Y-92967980D01*
X132722905Y-92967980D02*
X132770524Y-93015600D01*
X132770524Y-93015600D02*
X132865762Y-93063219D01*
X132865762Y-93063219D02*
X133056238Y-93063219D01*
X133056238Y-93063219D02*
X133151476Y-93015600D01*
X133151476Y-93015600D02*
X133199095Y-92967980D01*
X133199095Y-92967980D02*
X133246714Y-92872742D01*
X133246714Y-92872742D02*
X133246714Y-92682266D01*
X133246714Y-92682266D02*
X133199095Y-92587028D01*
X133199095Y-92587028D02*
X133151476Y-92539409D01*
X133151476Y-92539409D02*
X133056238Y-92491790D01*
X83308866Y-110249619D02*
X83308866Y-110963904D01*
X83308866Y-110963904D02*
X83261247Y-111106761D01*
X83261247Y-111106761D02*
X83166009Y-111202000D01*
X83166009Y-111202000D02*
X83023152Y-111249619D01*
X83023152Y-111249619D02*
X82927914Y-111249619D01*
X83927914Y-110678190D02*
X83832676Y-110630571D01*
X83832676Y-110630571D02*
X83785057Y-110582952D01*
X83785057Y-110582952D02*
X83737438Y-110487714D01*
X83737438Y-110487714D02*
X83737438Y-110440095D01*
X83737438Y-110440095D02*
X83785057Y-110344857D01*
X83785057Y-110344857D02*
X83832676Y-110297238D01*
X83832676Y-110297238D02*
X83927914Y-110249619D01*
X83927914Y-110249619D02*
X84118390Y-110249619D01*
X84118390Y-110249619D02*
X84213628Y-110297238D01*
X84213628Y-110297238D02*
X84261247Y-110344857D01*
X84261247Y-110344857D02*
X84308866Y-110440095D01*
X84308866Y-110440095D02*
X84308866Y-110487714D01*
X84308866Y-110487714D02*
X84261247Y-110582952D01*
X84261247Y-110582952D02*
X84213628Y-110630571D01*
X84213628Y-110630571D02*
X84118390Y-110678190D01*
X84118390Y-110678190D02*
X83927914Y-110678190D01*
X83927914Y-110678190D02*
X83832676Y-110725809D01*
X83832676Y-110725809D02*
X83785057Y-110773428D01*
X83785057Y-110773428D02*
X83737438Y-110868666D01*
X83737438Y-110868666D02*
X83737438Y-111059142D01*
X83737438Y-111059142D02*
X83785057Y-111154380D01*
X83785057Y-111154380D02*
X83832676Y-111202000D01*
X83832676Y-111202000D02*
X83927914Y-111249619D01*
X83927914Y-111249619D02*
X84118390Y-111249619D01*
X84118390Y-111249619D02*
X84213628Y-111202000D01*
X84213628Y-111202000D02*
X84261247Y-111154380D01*
X84261247Y-111154380D02*
X84308866Y-111059142D01*
X84308866Y-111059142D02*
X84308866Y-110868666D01*
X84308866Y-110868666D02*
X84261247Y-110773428D01*
X84261247Y-110773428D02*
X84213628Y-110725809D01*
X84213628Y-110725809D02*
X84118390Y-110678190D01*
X113823761Y-96308057D02*
X113728523Y-96260438D01*
X113728523Y-96260438D02*
X113633285Y-96165200D01*
X113633285Y-96165200D02*
X113490428Y-96022342D01*
X113490428Y-96022342D02*
X113395190Y-95974723D01*
X113395190Y-95974723D02*
X113299952Y-95974723D01*
X113347571Y-96212819D02*
X113252333Y-96165200D01*
X113252333Y-96165200D02*
X113157095Y-96069961D01*
X113157095Y-96069961D02*
X113109476Y-95879485D01*
X113109476Y-95879485D02*
X113109476Y-95546152D01*
X113109476Y-95546152D02*
X113157095Y-95355676D01*
X113157095Y-95355676D02*
X113252333Y-95260438D01*
X113252333Y-95260438D02*
X113347571Y-95212819D01*
X113347571Y-95212819D02*
X113538047Y-95212819D01*
X113538047Y-95212819D02*
X113633285Y-95260438D01*
X113633285Y-95260438D02*
X113728523Y-95355676D01*
X113728523Y-95355676D02*
X113776142Y-95546152D01*
X113776142Y-95546152D02*
X113776142Y-95879485D01*
X113776142Y-95879485D02*
X113728523Y-96069961D01*
X113728523Y-96069961D02*
X113633285Y-96165200D01*
X113633285Y-96165200D02*
X113538047Y-96212819D01*
X113538047Y-96212819D02*
X113347571Y-96212819D01*
X114680904Y-95212819D02*
X114204714Y-95212819D01*
X114204714Y-95212819D02*
X114157095Y-95689009D01*
X114157095Y-95689009D02*
X114204714Y-95641390D01*
X114204714Y-95641390D02*
X114299952Y-95593771D01*
X114299952Y-95593771D02*
X114538047Y-95593771D01*
X114538047Y-95593771D02*
X114633285Y-95641390D01*
X114633285Y-95641390D02*
X114680904Y-95689009D01*
X114680904Y-95689009D02*
X114728523Y-95784247D01*
X114728523Y-95784247D02*
X114728523Y-96022342D01*
X114728523Y-96022342D02*
X114680904Y-96117580D01*
X114680904Y-96117580D02*
X114633285Y-96165200D01*
X114633285Y-96165200D02*
X114538047Y-96212819D01*
X114538047Y-96212819D02*
X114299952Y-96212819D01*
X114299952Y-96212819D02*
X114204714Y-96165200D01*
X114204714Y-96165200D02*
X114157095Y-96117580D01*
X83486666Y-62154819D02*
X83486666Y-62869104D01*
X83486666Y-62869104D02*
X83439047Y-63011961D01*
X83439047Y-63011961D02*
X83343809Y-63107200D01*
X83343809Y-63107200D02*
X83200952Y-63154819D01*
X83200952Y-63154819D02*
X83105714Y-63154819D01*
X84486666Y-63154819D02*
X83915238Y-63154819D01*
X84200952Y-63154819D02*
X84200952Y-62154819D01*
X84200952Y-62154819D02*
X84105714Y-62297676D01*
X84105714Y-62297676D02*
X84010476Y-62392914D01*
X84010476Y-62392914D02*
X83915238Y-62440533D01*
X133756495Y-85637019D02*
X133756495Y-86446542D01*
X133756495Y-86446542D02*
X133804114Y-86541780D01*
X133804114Y-86541780D02*
X133851733Y-86589400D01*
X133851733Y-86589400D02*
X133946971Y-86637019D01*
X133946971Y-86637019D02*
X134137447Y-86637019D01*
X134137447Y-86637019D02*
X134232685Y-86589400D01*
X134232685Y-86589400D02*
X134280304Y-86541780D01*
X134280304Y-86541780D02*
X134327923Y-86446542D01*
X134327923Y-86446542D02*
X134327923Y-85637019D01*
X134756495Y-85732257D02*
X134804114Y-85684638D01*
X134804114Y-85684638D02*
X134899352Y-85637019D01*
X134899352Y-85637019D02*
X135137447Y-85637019D01*
X135137447Y-85637019D02*
X135232685Y-85684638D01*
X135232685Y-85684638D02*
X135280304Y-85732257D01*
X135280304Y-85732257D02*
X135327923Y-85827495D01*
X135327923Y-85827495D02*
X135327923Y-85922733D01*
X135327923Y-85922733D02*
X135280304Y-86065590D01*
X135280304Y-86065590D02*
X134708876Y-86637019D01*
X134708876Y-86637019D02*
X135327923Y-86637019D01*
X102119133Y-68380780D02*
X102071514Y-68428400D01*
X102071514Y-68428400D02*
X101928657Y-68476019D01*
X101928657Y-68476019D02*
X101833419Y-68476019D01*
X101833419Y-68476019D02*
X101690562Y-68428400D01*
X101690562Y-68428400D02*
X101595324Y-68333161D01*
X101595324Y-68333161D02*
X101547705Y-68237923D01*
X101547705Y-68237923D02*
X101500086Y-68047447D01*
X101500086Y-68047447D02*
X101500086Y-67904590D01*
X101500086Y-67904590D02*
X101547705Y-67714114D01*
X101547705Y-67714114D02*
X101595324Y-67618876D01*
X101595324Y-67618876D02*
X101690562Y-67523638D01*
X101690562Y-67523638D02*
X101833419Y-67476019D01*
X101833419Y-67476019D02*
X101928657Y-67476019D01*
X101928657Y-67476019D02*
X102071514Y-67523638D01*
X102071514Y-67523638D02*
X102119133Y-67571257D01*
X102690562Y-67904590D02*
X102595324Y-67856971D01*
X102595324Y-67856971D02*
X102547705Y-67809352D01*
X102547705Y-67809352D02*
X102500086Y-67714114D01*
X102500086Y-67714114D02*
X102500086Y-67666495D01*
X102500086Y-67666495D02*
X102547705Y-67571257D01*
X102547705Y-67571257D02*
X102595324Y-67523638D01*
X102595324Y-67523638D02*
X102690562Y-67476019D01*
X102690562Y-67476019D02*
X102881038Y-67476019D01*
X102881038Y-67476019D02*
X102976276Y-67523638D01*
X102976276Y-67523638D02*
X103023895Y-67571257D01*
X103023895Y-67571257D02*
X103071514Y-67666495D01*
X103071514Y-67666495D02*
X103071514Y-67714114D01*
X103071514Y-67714114D02*
X103023895Y-67809352D01*
X103023895Y-67809352D02*
X102976276Y-67856971D01*
X102976276Y-67856971D02*
X102881038Y-67904590D01*
X102881038Y-67904590D02*
X102690562Y-67904590D01*
X102690562Y-67904590D02*
X102595324Y-67952209D01*
X102595324Y-67952209D02*
X102547705Y-67999828D01*
X102547705Y-67999828D02*
X102500086Y-68095066D01*
X102500086Y-68095066D02*
X102500086Y-68285542D01*
X102500086Y-68285542D02*
X102547705Y-68380780D01*
X102547705Y-68380780D02*
X102595324Y-68428400D01*
X102595324Y-68428400D02*
X102690562Y-68476019D01*
X102690562Y-68476019D02*
X102881038Y-68476019D01*
X102881038Y-68476019D02*
X102976276Y-68428400D01*
X102976276Y-68428400D02*
X103023895Y-68380780D01*
X103023895Y-68380780D02*
X103071514Y-68285542D01*
X103071514Y-68285542D02*
X103071514Y-68095066D01*
X103071514Y-68095066D02*
X103023895Y-67999828D01*
X103023895Y-67999828D02*
X102976276Y-67952209D01*
X102976276Y-67952209D02*
X102881038Y-67904590D01*
X112869742Y-93196580D02*
X112822123Y-93244200D01*
X112822123Y-93244200D02*
X112679266Y-93291819D01*
X112679266Y-93291819D02*
X112584028Y-93291819D01*
X112584028Y-93291819D02*
X112441171Y-93244200D01*
X112441171Y-93244200D02*
X112345933Y-93148961D01*
X112345933Y-93148961D02*
X112298314Y-93053723D01*
X112298314Y-93053723D02*
X112250695Y-92863247D01*
X112250695Y-92863247D02*
X112250695Y-92720390D01*
X112250695Y-92720390D02*
X112298314Y-92529914D01*
X112298314Y-92529914D02*
X112345933Y-92434676D01*
X112345933Y-92434676D02*
X112441171Y-92339438D01*
X112441171Y-92339438D02*
X112584028Y-92291819D01*
X112584028Y-92291819D02*
X112679266Y-92291819D01*
X112679266Y-92291819D02*
X112822123Y-92339438D01*
X112822123Y-92339438D02*
X112869742Y-92387057D01*
X113822123Y-93291819D02*
X113250695Y-93291819D01*
X113536409Y-93291819D02*
X113536409Y-92291819D01*
X113536409Y-92291819D02*
X113441171Y-92434676D01*
X113441171Y-92434676D02*
X113345933Y-92529914D01*
X113345933Y-92529914D02*
X113250695Y-92577533D01*
X114774504Y-93291819D02*
X114203076Y-93291819D01*
X114488790Y-93291819D02*
X114488790Y-92291819D01*
X114488790Y-92291819D02*
X114393552Y-92434676D01*
X114393552Y-92434676D02*
X114298314Y-92529914D01*
X114298314Y-92529914D02*
X114203076Y-92577533D01*
X101352361Y-96282657D02*
X101257123Y-96235038D01*
X101257123Y-96235038D02*
X101161885Y-96139800D01*
X101161885Y-96139800D02*
X101019028Y-95996942D01*
X101019028Y-95996942D02*
X100923790Y-95949323D01*
X100923790Y-95949323D02*
X100828552Y-95949323D01*
X100876171Y-96187419D02*
X100780933Y-96139800D01*
X100780933Y-96139800D02*
X100685695Y-96044561D01*
X100685695Y-96044561D02*
X100638076Y-95854085D01*
X100638076Y-95854085D02*
X100638076Y-95520752D01*
X100638076Y-95520752D02*
X100685695Y-95330276D01*
X100685695Y-95330276D02*
X100780933Y-95235038D01*
X100780933Y-95235038D02*
X100876171Y-95187419D01*
X100876171Y-95187419D02*
X101066647Y-95187419D01*
X101066647Y-95187419D02*
X101161885Y-95235038D01*
X101161885Y-95235038D02*
X101257123Y-95330276D01*
X101257123Y-95330276D02*
X101304742Y-95520752D01*
X101304742Y-95520752D02*
X101304742Y-95854085D01*
X101304742Y-95854085D02*
X101257123Y-96044561D01*
X101257123Y-96044561D02*
X101161885Y-96139800D01*
X101161885Y-96139800D02*
X101066647Y-96187419D01*
X101066647Y-96187419D02*
X100876171Y-96187419D01*
X102161885Y-95187419D02*
X101971409Y-95187419D01*
X101971409Y-95187419D02*
X101876171Y-95235038D01*
X101876171Y-95235038D02*
X101828552Y-95282657D01*
X101828552Y-95282657D02*
X101733314Y-95425514D01*
X101733314Y-95425514D02*
X101685695Y-95615990D01*
X101685695Y-95615990D02*
X101685695Y-95996942D01*
X101685695Y-95996942D02*
X101733314Y-96092180D01*
X101733314Y-96092180D02*
X101780933Y-96139800D01*
X101780933Y-96139800D02*
X101876171Y-96187419D01*
X101876171Y-96187419D02*
X102066647Y-96187419D01*
X102066647Y-96187419D02*
X102161885Y-96139800D01*
X102161885Y-96139800D02*
X102209504Y-96092180D01*
X102209504Y-96092180D02*
X102257123Y-95996942D01*
X102257123Y-95996942D02*
X102257123Y-95758847D01*
X102257123Y-95758847D02*
X102209504Y-95663609D01*
X102209504Y-95663609D02*
X102161885Y-95615990D01*
X102161885Y-95615990D02*
X102066647Y-95568371D01*
X102066647Y-95568371D02*
X101876171Y-95568371D01*
X101876171Y-95568371D02*
X101780933Y-95615990D01*
X101780933Y-95615990D02*
X101733314Y-95663609D01*
X101733314Y-95663609D02*
X101685695Y-95758847D01*
X94307524Y-65812319D02*
X94307524Y-66621842D01*
X94307524Y-66621842D02*
X94355143Y-66717080D01*
X94355143Y-66717080D02*
X94402762Y-66764700D01*
X94402762Y-66764700D02*
X94498000Y-66812319D01*
X94498000Y-66812319D02*
X94688476Y-66812319D01*
X94688476Y-66812319D02*
X94783714Y-66764700D01*
X94783714Y-66764700D02*
X94831333Y-66717080D01*
X94831333Y-66717080D02*
X94878952Y-66621842D01*
X94878952Y-66621842D02*
X94878952Y-65812319D01*
X95688476Y-66288509D02*
X95355143Y-66288509D01*
X95355143Y-66812319D02*
X95355143Y-65812319D01*
X95355143Y-65812319D02*
X95831333Y-65812319D01*
X96736095Y-66812319D02*
X96164667Y-66812319D01*
X96450381Y-66812319D02*
X96450381Y-65812319D01*
X96450381Y-65812319D02*
X96355143Y-65955176D01*
X96355143Y-65955176D02*
X96259905Y-66050414D01*
X96259905Y-66050414D02*
X96164667Y-66098033D01*
X93891333Y-74070380D02*
X93843714Y-74118000D01*
X93843714Y-74118000D02*
X93700857Y-74165619D01*
X93700857Y-74165619D02*
X93605619Y-74165619D01*
X93605619Y-74165619D02*
X93462762Y-74118000D01*
X93462762Y-74118000D02*
X93367524Y-74022761D01*
X93367524Y-74022761D02*
X93319905Y-73927523D01*
X93319905Y-73927523D02*
X93272286Y-73737047D01*
X93272286Y-73737047D02*
X93272286Y-73594190D01*
X93272286Y-73594190D02*
X93319905Y-73403714D01*
X93319905Y-73403714D02*
X93367524Y-73308476D01*
X93367524Y-73308476D02*
X93462762Y-73213238D01*
X93462762Y-73213238D02*
X93605619Y-73165619D01*
X93605619Y-73165619D02*
X93700857Y-73165619D01*
X93700857Y-73165619D02*
X93843714Y-73213238D01*
X93843714Y-73213238D02*
X93891333Y-73260857D01*
X94748476Y-73165619D02*
X94558000Y-73165619D01*
X94558000Y-73165619D02*
X94462762Y-73213238D01*
X94462762Y-73213238D02*
X94415143Y-73260857D01*
X94415143Y-73260857D02*
X94319905Y-73403714D01*
X94319905Y-73403714D02*
X94272286Y-73594190D01*
X94272286Y-73594190D02*
X94272286Y-73975142D01*
X94272286Y-73975142D02*
X94319905Y-74070380D01*
X94319905Y-74070380D02*
X94367524Y-74118000D01*
X94367524Y-74118000D02*
X94462762Y-74165619D01*
X94462762Y-74165619D02*
X94653238Y-74165619D01*
X94653238Y-74165619D02*
X94748476Y-74118000D01*
X94748476Y-74118000D02*
X94796095Y-74070380D01*
X94796095Y-74070380D02*
X94843714Y-73975142D01*
X94843714Y-73975142D02*
X94843714Y-73737047D01*
X94843714Y-73737047D02*
X94796095Y-73641809D01*
X94796095Y-73641809D02*
X94748476Y-73594190D01*
X94748476Y-73594190D02*
X94653238Y-73546571D01*
X94653238Y-73546571D02*
X94462762Y-73546571D01*
X94462762Y-73546571D02*
X94367524Y-73594190D01*
X94367524Y-73594190D02*
X94319905Y-73641809D01*
X94319905Y-73641809D02*
X94272286Y-73737047D01*
X120122961Y-48149657D02*
X120027723Y-48102038D01*
X120027723Y-48102038D02*
X119932485Y-48006800D01*
X119932485Y-48006800D02*
X119789628Y-47863942D01*
X119789628Y-47863942D02*
X119694390Y-47816323D01*
X119694390Y-47816323D02*
X119599152Y-47816323D01*
X119646771Y-48054419D02*
X119551533Y-48006800D01*
X119551533Y-48006800D02*
X119456295Y-47911561D01*
X119456295Y-47911561D02*
X119408676Y-47721085D01*
X119408676Y-47721085D02*
X119408676Y-47387752D01*
X119408676Y-47387752D02*
X119456295Y-47197276D01*
X119456295Y-47197276D02*
X119551533Y-47102038D01*
X119551533Y-47102038D02*
X119646771Y-47054419D01*
X119646771Y-47054419D02*
X119837247Y-47054419D01*
X119837247Y-47054419D02*
X119932485Y-47102038D01*
X119932485Y-47102038D02*
X120027723Y-47197276D01*
X120027723Y-47197276D02*
X120075342Y-47387752D01*
X120075342Y-47387752D02*
X120075342Y-47721085D01*
X120075342Y-47721085D02*
X120027723Y-47911561D01*
X120027723Y-47911561D02*
X119932485Y-48006800D01*
X119932485Y-48006800D02*
X119837247Y-48054419D01*
X119837247Y-48054419D02*
X119646771Y-48054419D01*
X120408676Y-47054419D02*
X121027723Y-47054419D01*
X121027723Y-47054419D02*
X120694390Y-47435371D01*
X120694390Y-47435371D02*
X120837247Y-47435371D01*
X120837247Y-47435371D02*
X120932485Y-47482990D01*
X120932485Y-47482990D02*
X120980104Y-47530609D01*
X120980104Y-47530609D02*
X121027723Y-47625847D01*
X121027723Y-47625847D02*
X121027723Y-47863942D01*
X121027723Y-47863942D02*
X120980104Y-47959180D01*
X120980104Y-47959180D02*
X120932485Y-48006800D01*
X120932485Y-48006800D02*
X120837247Y-48054419D01*
X120837247Y-48054419D02*
X120551533Y-48054419D01*
X120551533Y-48054419D02*
X120456295Y-48006800D01*
X120456295Y-48006800D02*
X120408676Y-47959180D01*
X135272542Y-104982180D02*
X135224923Y-105029800D01*
X135224923Y-105029800D02*
X135082066Y-105077419D01*
X135082066Y-105077419D02*
X134986828Y-105077419D01*
X134986828Y-105077419D02*
X134843971Y-105029800D01*
X134843971Y-105029800D02*
X134748733Y-104934561D01*
X134748733Y-104934561D02*
X134701114Y-104839323D01*
X134701114Y-104839323D02*
X134653495Y-104648847D01*
X134653495Y-104648847D02*
X134653495Y-104505990D01*
X134653495Y-104505990D02*
X134701114Y-104315514D01*
X134701114Y-104315514D02*
X134748733Y-104220276D01*
X134748733Y-104220276D02*
X134843971Y-104125038D01*
X134843971Y-104125038D02*
X134986828Y-104077419D01*
X134986828Y-104077419D02*
X135082066Y-104077419D01*
X135082066Y-104077419D02*
X135224923Y-104125038D01*
X135224923Y-104125038D02*
X135272542Y-104172657D01*
X136224923Y-105077419D02*
X135653495Y-105077419D01*
X135939209Y-105077419D02*
X135939209Y-104077419D01*
X135939209Y-104077419D02*
X135843971Y-104220276D01*
X135843971Y-104220276D02*
X135748733Y-104315514D01*
X135748733Y-104315514D02*
X135653495Y-104363133D01*
X136558257Y-104077419D02*
X137224923Y-104077419D01*
X137224923Y-104077419D02*
X136796352Y-105077419D01*
X125853142Y-87022580D02*
X125805523Y-87070200D01*
X125805523Y-87070200D02*
X125662666Y-87117819D01*
X125662666Y-87117819D02*
X125567428Y-87117819D01*
X125567428Y-87117819D02*
X125424571Y-87070200D01*
X125424571Y-87070200D02*
X125329333Y-86974961D01*
X125329333Y-86974961D02*
X125281714Y-86879723D01*
X125281714Y-86879723D02*
X125234095Y-86689247D01*
X125234095Y-86689247D02*
X125234095Y-86546390D01*
X125234095Y-86546390D02*
X125281714Y-86355914D01*
X125281714Y-86355914D02*
X125329333Y-86260676D01*
X125329333Y-86260676D02*
X125424571Y-86165438D01*
X125424571Y-86165438D02*
X125567428Y-86117819D01*
X125567428Y-86117819D02*
X125662666Y-86117819D01*
X125662666Y-86117819D02*
X125805523Y-86165438D01*
X125805523Y-86165438D02*
X125853142Y-86213057D01*
X126805523Y-87117819D02*
X126234095Y-87117819D01*
X126519809Y-87117819D02*
X126519809Y-86117819D01*
X126519809Y-86117819D02*
X126424571Y-86260676D01*
X126424571Y-86260676D02*
X126329333Y-86355914D01*
X126329333Y-86355914D02*
X126234095Y-86403533D01*
X127710285Y-86117819D02*
X127234095Y-86117819D01*
X127234095Y-86117819D02*
X127186476Y-86594009D01*
X127186476Y-86594009D02*
X127234095Y-86546390D01*
X127234095Y-86546390D02*
X127329333Y-86498771D01*
X127329333Y-86498771D02*
X127567428Y-86498771D01*
X127567428Y-86498771D02*
X127662666Y-86546390D01*
X127662666Y-86546390D02*
X127710285Y-86594009D01*
X127710285Y-86594009D02*
X127757904Y-86689247D01*
X127757904Y-86689247D02*
X127757904Y-86927342D01*
X127757904Y-86927342D02*
X127710285Y-87022580D01*
X127710285Y-87022580D02*
X127662666Y-87070200D01*
X127662666Y-87070200D02*
X127567428Y-87117819D01*
X127567428Y-87117819D02*
X127329333Y-87117819D01*
X127329333Y-87117819D02*
X127234095Y-87070200D01*
X127234095Y-87070200D02*
X127186476Y-87022580D01*
X104011505Y-93342619D02*
X104011505Y-92342619D01*
X104011505Y-92342619D02*
X104249600Y-92342619D01*
X104249600Y-92342619D02*
X104392457Y-92390238D01*
X104392457Y-92390238D02*
X104487695Y-92485476D01*
X104487695Y-92485476D02*
X104535314Y-92580714D01*
X104535314Y-92580714D02*
X104582933Y-92771190D01*
X104582933Y-92771190D02*
X104582933Y-92914047D01*
X104582933Y-92914047D02*
X104535314Y-93104523D01*
X104535314Y-93104523D02*
X104487695Y-93199761D01*
X104487695Y-93199761D02*
X104392457Y-93295000D01*
X104392457Y-93295000D02*
X104249600Y-93342619D01*
X104249600Y-93342619D02*
X104011505Y-93342619D01*
X104916267Y-92342619D02*
X105582933Y-92342619D01*
X105582933Y-92342619D02*
X105154362Y-93342619D01*
X119332524Y-65788819D02*
X119332524Y-66598342D01*
X119332524Y-66598342D02*
X119380143Y-66693580D01*
X119380143Y-66693580D02*
X119427762Y-66741200D01*
X119427762Y-66741200D02*
X119523000Y-66788819D01*
X119523000Y-66788819D02*
X119713476Y-66788819D01*
X119713476Y-66788819D02*
X119808714Y-66741200D01*
X119808714Y-66741200D02*
X119856333Y-66693580D01*
X119856333Y-66693580D02*
X119903952Y-66598342D01*
X119903952Y-66598342D02*
X119903952Y-65788819D01*
X120713476Y-66265009D02*
X120380143Y-66265009D01*
X120380143Y-66788819D02*
X120380143Y-65788819D01*
X120380143Y-65788819D02*
X120856333Y-65788819D01*
X121189667Y-65884057D02*
X121237286Y-65836438D01*
X121237286Y-65836438D02*
X121332524Y-65788819D01*
X121332524Y-65788819D02*
X121570619Y-65788819D01*
X121570619Y-65788819D02*
X121665857Y-65836438D01*
X121665857Y-65836438D02*
X121713476Y-65884057D01*
X121713476Y-65884057D02*
X121761095Y-65979295D01*
X121761095Y-65979295D02*
X121761095Y-66074533D01*
X121761095Y-66074533D02*
X121713476Y-66217390D01*
X121713476Y-66217390D02*
X121142048Y-66788819D01*
X121142048Y-66788819D02*
X121761095Y-66788819D01*
X92594133Y-87272019D02*
X92260800Y-86795828D01*
X92022705Y-87272019D02*
X92022705Y-86272019D01*
X92022705Y-86272019D02*
X92403657Y-86272019D01*
X92403657Y-86272019D02*
X92498895Y-86319638D01*
X92498895Y-86319638D02*
X92546514Y-86367257D01*
X92546514Y-86367257D02*
X92594133Y-86462495D01*
X92594133Y-86462495D02*
X92594133Y-86605352D01*
X92594133Y-86605352D02*
X92546514Y-86700590D01*
X92546514Y-86700590D02*
X92498895Y-86748209D01*
X92498895Y-86748209D02*
X92403657Y-86795828D01*
X92403657Y-86795828D02*
X92022705Y-86795828D01*
X92927467Y-86272019D02*
X93594133Y-86272019D01*
X93594133Y-86272019D02*
X93165562Y-87272019D01*
X87768133Y-87075180D02*
X87720514Y-87122800D01*
X87720514Y-87122800D02*
X87577657Y-87170419D01*
X87577657Y-87170419D02*
X87482419Y-87170419D01*
X87482419Y-87170419D02*
X87339562Y-87122800D01*
X87339562Y-87122800D02*
X87244324Y-87027561D01*
X87244324Y-87027561D02*
X87196705Y-86932323D01*
X87196705Y-86932323D02*
X87149086Y-86741847D01*
X87149086Y-86741847D02*
X87149086Y-86598990D01*
X87149086Y-86598990D02*
X87196705Y-86408514D01*
X87196705Y-86408514D02*
X87244324Y-86313276D01*
X87244324Y-86313276D02*
X87339562Y-86218038D01*
X87339562Y-86218038D02*
X87482419Y-86170419D01*
X87482419Y-86170419D02*
X87577657Y-86170419D01*
X87577657Y-86170419D02*
X87720514Y-86218038D01*
X87720514Y-86218038D02*
X87768133Y-86265657D01*
X88101467Y-86170419D02*
X88768133Y-86170419D01*
X88768133Y-86170419D02*
X88339562Y-87170419D01*
D13*
%TO.C,B_L2*%
X123111600Y-76228000D02*
X123366600Y-76228000D01*
X123111600Y-83948000D02*
X123111600Y-76228000D01*
X123366600Y-83948000D02*
X123111600Y-83948000D01*
X133376600Y-76228000D02*
X133631600Y-76228000D01*
X133631600Y-76228000D02*
X133631600Y-83948000D01*
X133631600Y-83948000D02*
X133376600Y-83948000D01*
X123361600Y-84738000D02*
X122891600Y-85078000D01*
X122891600Y-84398000D01*
X123361600Y-84738000D01*
G36*
X123361600Y-84738000D02*
G01*
X122891600Y-85078000D01*
X122891600Y-84398000D01*
X123361600Y-84738000D01*
G37*
%TO.C,Q4*%
X132976000Y-58324000D02*
X132976000Y-59689000D01*
X132976000Y-59689000D02*
X134786000Y-59689000D01*
X143376000Y-58324000D02*
X143376000Y-59689000D01*
X143376000Y-59689000D02*
X141566000Y-59689000D01*
X134826000Y-62514000D02*
X134356000Y-62854000D01*
X134356000Y-62174000D01*
X134826000Y-62514000D01*
G36*
X134826000Y-62514000D02*
G01*
X134356000Y-62854000D01*
X134356000Y-62174000D01*
X134826000Y-62514000D01*
G37*
%TO.C,R9*%
X115168000Y-88873436D02*
X115168000Y-90327564D01*
X116988000Y-88873436D02*
X116988000Y-90327564D01*
%TO.C,D2*%
X137076000Y-108040000D02*
X145586000Y-108040000D01*
X137076000Y-114540000D02*
X137076000Y-108040000D01*
X137076000Y-114540000D02*
X145586000Y-114540000D01*
%TO.C,Q1*%
X90304000Y-58300000D02*
X90304000Y-59665000D01*
X90304000Y-59665000D02*
X92114000Y-59665000D01*
X100704000Y-58300000D02*
X100704000Y-59665000D01*
X100704000Y-59665000D02*
X98894000Y-59665000D01*
X92154000Y-62490000D02*
X91684000Y-62830000D01*
X91684000Y-62150000D01*
X92154000Y-62490000D01*
G36*
X92154000Y-62490000D02*
G01*
X91684000Y-62830000D01*
X91684000Y-62150000D01*
X92154000Y-62490000D01*
G37*
%TO.C,A_L2*%
X112215000Y-76228000D02*
X112470000Y-76228000D01*
X112215000Y-83948000D02*
X112215000Y-76228000D01*
X112470000Y-83948000D02*
X112215000Y-83948000D01*
X122480000Y-76228000D02*
X122735000Y-76228000D01*
X122735000Y-76228000D02*
X122735000Y-83948000D01*
X122735000Y-83948000D02*
X122480000Y-83948000D01*
X122955000Y-75778000D02*
X122485000Y-75438000D01*
X122955000Y-75098000D01*
X122955000Y-75778000D01*
G36*
X122955000Y-75778000D02*
G01*
X122485000Y-75438000D01*
X122955000Y-75098000D01*
X122955000Y-75778000D01*
G37*
%TO.C,UF3*%
X102277000Y-89585000D02*
X96767000Y-89585000D01*
X102277000Y-92885000D02*
X96767000Y-92885000D01*
X102277000Y-92885000D02*
X102277000Y-89585000D01*
%TO.C,Q8*%
X117228000Y-101885000D02*
X119038000Y-101885000D01*
X117228000Y-103250000D02*
X117228000Y-101885000D01*
X127628000Y-101885000D02*
X125818000Y-101885000D01*
X127628000Y-103250000D02*
X127628000Y-101885000D01*
X126248000Y-99400000D02*
X125778000Y-99060000D01*
X126248000Y-98720000D01*
X126248000Y-99400000D01*
G36*
X126248000Y-99400000D02*
G01*
X125778000Y-99060000D01*
X126248000Y-98720000D01*
X126248000Y-99400000D01*
G37*
%TO.C,UF4*%
X127430000Y-89888000D02*
X121920000Y-89888000D01*
X127430000Y-93188000D02*
X121920000Y-93188000D01*
X127430000Y-93188000D02*
X127430000Y-89888000D01*
%TO.C,C14*%
X122582252Y-87580000D02*
X121159748Y-87580000D01*
X122582252Y-89400000D02*
X121159748Y-89400000D01*
%TO.C,J4*%
X108856000Y-67454000D02*
X110236000Y-67454000D01*
X108856000Y-68834000D02*
X108856000Y-67454000D01*
X108856000Y-70104000D02*
X108856000Y-93074000D01*
X108856000Y-70104000D02*
X111616000Y-70104000D01*
X108856000Y-93074000D02*
X111616000Y-93074000D01*
X111616000Y-70104000D02*
X111616000Y-93074000D01*
%TO.C,C18*%
X128328000Y-105760000D02*
X131078000Y-105760000D01*
X128328000Y-113215563D02*
X128328000Y-105760000D01*
X129392437Y-114280000D02*
X128328000Y-113215563D01*
X129392437Y-114280000D02*
X131078000Y-114280000D01*
X129578000Y-115020000D02*
X130578000Y-115020000D01*
X130078000Y-115520000D02*
X130078000Y-114520000D01*
X135783563Y-114280000D02*
X134098000Y-114280000D01*
X135783563Y-114280000D02*
X136848000Y-113215563D01*
X136848000Y-105760000D02*
X134098000Y-105760000D01*
X136848000Y-113215563D02*
X136848000Y-105760000D01*
%TO.C,C16*%
X131424000Y-69991248D02*
X131424000Y-71413752D01*
X133244000Y-69991248D02*
X133244000Y-71413752D01*
%TO.C,A_L1*%
X86865800Y-76228000D02*
X87120800Y-76228000D01*
X86865800Y-83948000D02*
X86865800Y-76228000D01*
X87120800Y-83948000D02*
X86865800Y-83948000D01*
X97130800Y-76228000D02*
X97385800Y-76228000D01*
X97385800Y-76228000D02*
X97385800Y-83948000D01*
X97385800Y-83948000D02*
X97130800Y-83948000D01*
X97605800Y-75778000D02*
X97135800Y-75438000D01*
X97605800Y-75098000D01*
X97605800Y-75778000D01*
G36*
X97605800Y-75778000D02*
G01*
X97135800Y-75438000D01*
X97605800Y-75098000D01*
X97605800Y-75778000D01*
G37*
%TO.C,R6*%
X106109000Y-88824436D02*
X106109000Y-90278564D01*
X107929000Y-88824436D02*
X107929000Y-90278564D01*
%TO.C,C13*%
X97013252Y-87277000D02*
X95590748Y-87277000D01*
X97013252Y-89097000D02*
X95590748Y-89097000D01*
%TO.C,D5*%
X114570000Y-72918500D02*
X114570000Y-68908500D01*
X114570000Y-72918500D02*
X116570000Y-72918500D01*
X116570000Y-72918500D02*
X116570000Y-68908500D01*
%TO.C,D6*%
X128773000Y-72967500D02*
X128773000Y-68957500D01*
X128773000Y-72967500D02*
X130773000Y-72967500D01*
X130773000Y-72967500D02*
X130773000Y-68957500D01*
%TO.C,Q7*%
X140856000Y-66682000D02*
X140856000Y-68492000D01*
X140856000Y-77082000D02*
X140856000Y-75272000D01*
X142221000Y-66682000D02*
X140856000Y-66682000D01*
X142221000Y-77082000D02*
X140856000Y-77082000D01*
X138031000Y-68532000D02*
X137691000Y-68062000D01*
X138371000Y-68062000D01*
X138031000Y-68532000D01*
G36*
X138031000Y-68532000D02*
G01*
X137691000Y-68062000D01*
X138371000Y-68062000D01*
X138031000Y-68532000D01*
G37*
%TO.C,J3*%
X134256000Y-93074000D02*
X134256000Y-91694000D01*
X135636000Y-93074000D02*
X134256000Y-93074000D01*
X136906000Y-90314000D02*
X149716000Y-90314000D01*
X136906000Y-93074000D02*
X136906000Y-90314000D01*
X136906000Y-93074000D02*
X149716000Y-93074000D01*
X149716000Y-93074000D02*
X149716000Y-90314000D01*
%TO.C,C10*%
X123191748Y-70972000D02*
X124614252Y-70972000D01*
X123191748Y-72792000D02*
X124614252Y-72792000D01*
%TO.C,C9*%
X118365748Y-70972000D02*
X119788252Y-70972000D01*
X118365748Y-72792000D02*
X119788252Y-72792000D01*
%TO.C,R4*%
X112374000Y-71400564D02*
X112374000Y-69946436D01*
X114194000Y-71400564D02*
X114194000Y-69946436D01*
%TO.C,B_L1*%
X97737000Y-76228000D02*
X97992000Y-76228000D01*
X97737000Y-83948000D02*
X97737000Y-76228000D01*
X97992000Y-83948000D02*
X97737000Y-83948000D01*
X108002000Y-76228000D02*
X108257000Y-76228000D01*
X108257000Y-76228000D02*
X108257000Y-83948000D01*
X108257000Y-83948000D02*
X108002000Y-83948000D01*
X97987000Y-84738000D02*
X97517000Y-85078000D01*
X97517000Y-84398000D01*
X97987000Y-84738000D01*
G36*
X97987000Y-84738000D02*
G01*
X97517000Y-85078000D01*
X97517000Y-84398000D01*
X97987000Y-84738000D01*
G37*
%TO.C,D10*%
X117364000Y-87272000D02*
X117364000Y-91282000D01*
X119364000Y-87272000D02*
X117364000Y-87272000D01*
X119364000Y-87272000D02*
X119364000Y-91282000D01*
%TO.C,D4*%
X89424000Y-73100000D02*
X89424000Y-69090000D01*
X89424000Y-73100000D02*
X91424000Y-73100000D01*
X91424000Y-73100000D02*
X91424000Y-69090000D01*
%TO.C,D8*%
X89509000Y-87428000D02*
X89509000Y-91438000D01*
X91509000Y-87428000D02*
X89509000Y-87428000D01*
X91509000Y-87428000D02*
X91509000Y-91438000D01*
%TO.C,D9*%
X129302000Y-87272000D02*
X129302000Y-91282000D01*
X131302000Y-87272000D02*
X129302000Y-87272000D01*
X131302000Y-87272000D02*
X131302000Y-91282000D01*
%TO.C,C12*%
X101937252Y-87433000D02*
X100514748Y-87433000D01*
X101937252Y-89253000D02*
X100514748Y-89253000D01*
%TO.C,D3*%
X106061000Y-73196000D02*
X106061000Y-69186000D01*
X106061000Y-73196000D02*
X108061000Y-73196000D01*
X108061000Y-73196000D02*
X108061000Y-69186000D01*
%TO.C,R2*%
X103865000Y-71678064D02*
X103865000Y-70223936D01*
X105685000Y-71678064D02*
X105685000Y-70223936D01*
%TO.C,Q2*%
X104951333Y-58300000D02*
X104951333Y-59665000D01*
X104951333Y-59665000D02*
X106761333Y-59665000D01*
X115351333Y-58300000D02*
X115351333Y-59665000D01*
X115351333Y-59665000D02*
X113541333Y-59665000D01*
X106801333Y-62490000D02*
X106331333Y-62830000D01*
X106331333Y-62150000D01*
X106801333Y-62490000D01*
G36*
X106801333Y-62490000D02*
G01*
X106331333Y-62830000D01*
X106331333Y-62150000D01*
X106801333Y-62490000D01*
G37*
%TO.C,R5*%
X126577000Y-71449564D02*
X126577000Y-69995436D01*
X128397000Y-71449564D02*
X128397000Y-69995436D01*
%TO.C,L2*%
X138208000Y-94262000D02*
X142708000Y-94262000D01*
X138208000Y-106982000D02*
X138208000Y-94262000D01*
X141744000Y-106982000D02*
X138208000Y-106982000D01*
X146428000Y-94262000D02*
X150928000Y-94262000D01*
X150928000Y-94262000D02*
X150928000Y-106982000D01*
X150928000Y-106982000D02*
X146428000Y-106982000D01*
X142708000Y-107686000D02*
X142004000Y-106982000D01*
X142708000Y-106982000D01*
X142708000Y-107686000D01*
G36*
X142708000Y-107686000D02*
G01*
X142004000Y-106982000D01*
X142708000Y-106982000D01*
X142708000Y-107686000D01*
G37*
%TO.C,R3*%
X87012000Y-71392564D02*
X87012000Y-69938436D01*
X88832000Y-71392564D02*
X88832000Y-69938436D01*
%TO.C,C5*%
X98172748Y-70995500D02*
X99595252Y-70995500D01*
X98172748Y-72815500D02*
X99595252Y-72815500D01*
%TO.C,R8*%
X131678000Y-88717436D02*
X131678000Y-90171564D01*
X133498000Y-88717436D02*
X133498000Y-90171564D01*
%TO.C,Q5*%
X104274000Y-101885000D02*
X106084000Y-101885000D01*
X104274000Y-103250000D02*
X104274000Y-101885000D01*
X114674000Y-101885000D02*
X112864000Y-101885000D01*
X114674000Y-103250000D02*
X114674000Y-101885000D01*
X113294000Y-99400000D02*
X112824000Y-99060000D01*
X113294000Y-98720000D01*
X113294000Y-99400000D01*
G36*
X113294000Y-99400000D02*
G01*
X112824000Y-99060000D01*
X113294000Y-98720000D01*
X113294000Y-99400000D01*
G37*
%TO.C,U2*%
X140856000Y-78855000D02*
X140856000Y-79805000D01*
X140856000Y-89255000D02*
X140856000Y-88305000D01*
X142221000Y-78855000D02*
X140856000Y-78855000D01*
X142221000Y-89255000D02*
X140856000Y-89255000D01*
X138031000Y-79845000D02*
X137691000Y-79375000D01*
X138371000Y-79375000D01*
X138031000Y-79845000D01*
G36*
X138031000Y-79845000D02*
G01*
X137691000Y-79375000D01*
X138371000Y-79375000D01*
X138031000Y-79845000D01*
G37*
%TO.C,C8*%
X101579000Y-70219748D02*
X101579000Y-71642252D01*
X103399000Y-70219748D02*
X103399000Y-71642252D01*
%TO.C,C11*%
X112882000Y-90324252D02*
X112882000Y-88901748D01*
X114702000Y-90324252D02*
X114702000Y-88901748D01*
%TO.C,Q6*%
X91593000Y-101740000D02*
X93403000Y-101740000D01*
X91593000Y-103105000D02*
X91593000Y-101740000D01*
X101993000Y-101740000D02*
X100183000Y-101740000D01*
X101993000Y-103105000D02*
X101993000Y-101740000D01*
X100613000Y-99255000D02*
X100143000Y-98915000D01*
X100613000Y-98575000D01*
X100613000Y-99255000D01*
G36*
X100613000Y-99255000D02*
G01*
X100143000Y-98915000D01*
X100613000Y-98575000D01*
X100613000Y-99255000D01*
G37*
%TO.C,UF1*%
X92756000Y-67207500D02*
X92756000Y-70507500D01*
X92756000Y-67207500D02*
X98266000Y-67207500D01*
X92756000Y-70507500D02*
X98266000Y-70507500D01*
%TO.C,C6*%
X93346748Y-70995500D02*
X94769252Y-70995500D01*
X93346748Y-72815500D02*
X94769252Y-72815500D01*
%TO.C,Q3*%
X119533000Y-58439000D02*
X119533000Y-59804000D01*
X119533000Y-59804000D02*
X121343000Y-59804000D01*
X129933000Y-58439000D02*
X129933000Y-59804000D01*
X129933000Y-59804000D02*
X128123000Y-59804000D01*
X121383000Y-62629000D02*
X120913000Y-62969000D01*
X120913000Y-62289000D01*
X121383000Y-62629000D01*
G36*
X121383000Y-62629000D02*
G01*
X120913000Y-62969000D01*
X120913000Y-62289000D01*
X121383000Y-62629000D01*
G37*
%TO.C,C17*%
X128328000Y-96156437D02*
X128328000Y-103612000D01*
X128328000Y-103612000D02*
X131078000Y-103612000D01*
X129392437Y-95092000D02*
X128328000Y-96156437D01*
X129392437Y-95092000D02*
X131078000Y-95092000D01*
X135098000Y-93852000D02*
X135098000Y-94852000D01*
X135598000Y-94352000D02*
X134598000Y-94352000D01*
X135783563Y-95092000D02*
X134098000Y-95092000D01*
X135783563Y-95092000D02*
X136848000Y-96156437D01*
X136848000Y-96156437D02*
X136848000Y-103612000D01*
X136848000Y-103612000D02*
X134098000Y-103612000D01*
%TO.C,C15*%
X127408252Y-87580000D02*
X125985748Y-87580000D01*
X127408252Y-89400000D02*
X125985748Y-89400000D01*
%TO.C,D7*%
X103733000Y-87201000D02*
X103733000Y-91211000D01*
X105733000Y-87201000D02*
X103733000Y-87201000D01*
X105733000Y-87201000D02*
X105733000Y-91211000D01*
%TO.C,UF2*%
X118156000Y-67184000D02*
X118156000Y-70484000D01*
X118156000Y-67184000D02*
X123666000Y-67184000D01*
X118156000Y-70484000D02*
X123666000Y-70484000D01*
%TO.C,R7*%
X91885000Y-88668436D02*
X91885000Y-90122564D01*
X93705000Y-88668436D02*
X93705000Y-90122564D01*
%TO.C,C7*%
X87059000Y-90021252D02*
X87059000Y-88598748D01*
X88879000Y-90021252D02*
X88879000Y-88598748D01*
%TD*%
M02*
