M48
; DRILL file {KiCad 9.0.8-9.0.8~ubuntu22.04.1} date 2026-03-28T21:05:41+0500
; FORMAT={-:-/ absolute / metric / decimal}
; #@! TF.CreationDate,2026-03-28T21:05:41+05:00
; #@! TF.GenerationSoftware,Kicad,Pcbnew,9.0.8-9.0.8~ubuntu22.04.1
; #@! TF.FileFunction,Plated,1,2,PTH
FMAT,2
METRIC
; #@! TA.AperFunction,Plated,PTH,ViaDrill
T1C0.300
; #@! TA.AperFunction,Plated,PTH,ComponentDrill
T2C0.300
; #@! TA.AperFunction,Plated,PTH,ViaDrill
T3C0.400
; #@! TA.AperFunction,Plated,PTH,ViaDrill
T4C0.500
; #@! TA.AperFunction,Plated,PTH,ComponentDrill
T5C0.750
; #@! TA.AperFunction,Plated,PTH,ViaDrill
T6C0.800
; #@! TA.AperFunction,Plated,PTH,ComponentDrill
T7C1.000
; #@! TA.AperFunction,Plated,PTH,ComponentDrill
T8C1.900
%
G90
G05
T1
X114.224Y-88.271
X114.224Y-88.971
X115.291Y-83.388
X116.154Y-83.388
X118.974Y-83.037
X118.974Y-83.637
X122.0Y-80.5
X123.0Y-77.253
X133.319Y-83.681
X137.5Y-77.5
X139.058Y-77.37
X139.5Y-79.5
X140.0Y-82.5
X141.5Y-72.5
X143.739Y-103.988
X145.5Y-74.0
X146.63Y-105.156
X147.741Y-102.241
X148.0Y-78.0
X148.5Y-108.7
X148.5Y-109.3
X150.121Y-104.004
T2
X96.752Y-86.606
X96.752Y-87.806
X97.952Y-86.606
X97.952Y-87.806
X99.252Y-86.606
X99.252Y-87.806
X100.352Y-86.606
X100.352Y-87.806
T3
X147.65Y-70.739
T4
X84.176Y-105.537
X84.353Y-90.957
X84.43Y-99.746
X84.48Y-85.674
X86.538Y-55.601
X86.639Y-62.382
X92.481Y-97.485
X94.666Y-81.344
X94.666Y-82.344
X95.202Y-73.228
X96.202Y-73.228
X98.5Y-97.5
X99.006Y-77.265
X100.0Y-94.749
X105.045Y-78.613
X105.054Y-62.713
X105.08Y-97.409
X106.045Y-78.613
X107.045Y-78.613
X110.998Y-62.56
X111.455Y-97.307
X116.332Y-97.307
X118.088Y-74.586
X118.389Y-69.147
X118.389Y-70.147
X118.796Y-97.307
X119.786Y-62.382
X119.91Y-74.586
X124.079Y-62.23
X124.409Y-97.409
X129.286Y-97.257
X130.867Y-95.199
X130.937Y-62.56
X131.867Y-95.199
X132.867Y-95.199
X135.636Y-93.472
X136.436Y-93.472
X137.236Y-93.472
X137.414Y-97.206
X137.541Y-62.306
X140.437Y-66.624
X140.437Y-67.624
X142.469Y-62.459
X143.104Y-98.298
X143.104Y-99.298
X143.104Y-100.298
X146.371Y-94.31
X147.371Y-94.31
X148.371Y-94.31
T5
X148.038Y-54.458
X148.038Y-56.458
X148.038Y-58.458
X148.038Y-60.458
X148.038Y-62.458
X150.038Y-54.458
X150.038Y-56.458
X150.038Y-58.458
X150.038Y-60.458
X150.038Y-62.458
T6
X87.44Y-71.838
X87.44Y-73.838
X89.44Y-71.838
X89.44Y-73.838
X89.687Y-94.031
X89.738Y-96.825
X91.44Y-71.838
X91.44Y-73.838
X93.44Y-71.838
X95.549Y-50.363
X95.549Y-52.363
X95.549Y-54.363
X95.549Y-56.363
X95.571Y-105.201
X95.571Y-107.201
X95.571Y-109.201
X95.571Y-111.201
X97.549Y-50.363
X97.549Y-52.363
X97.549Y-54.363
X97.549Y-56.363
X97.571Y-105.201
X97.571Y-107.201
X97.571Y-109.201
X97.571Y-111.201
X99.549Y-50.363
X99.549Y-52.363
X99.549Y-54.363
X99.549Y-56.363
X99.571Y-105.201
X99.571Y-107.201
X99.571Y-109.201
X99.571Y-111.201
X101.549Y-50.363
X101.549Y-52.363
X101.549Y-54.363
X101.549Y-56.363
X101.571Y-105.201
X101.571Y-107.201
X101.571Y-109.201
X101.571Y-111.201
X102.0Y-69.5
X106.68Y-80.62
X108.409Y-105.201
X108.409Y-107.201
X108.409Y-109.201
X108.409Y-111.201
X108.513Y-50.363
X108.513Y-52.363
X108.513Y-54.363
X108.513Y-56.363
X110.409Y-105.201
X110.409Y-107.201
X110.409Y-109.201
X110.409Y-111.201
X110.513Y-50.363
X110.513Y-52.363
X110.513Y-54.363
X110.513Y-56.363
X112.409Y-105.201
X112.409Y-107.201
X112.409Y-109.201
X112.409Y-111.201
X112.513Y-50.363
X112.513Y-52.363
X112.513Y-54.363
X112.513Y-56.363
X114.409Y-105.201
X114.409Y-107.201
X114.409Y-109.201
X114.409Y-111.201
X114.513Y-50.363
X114.513Y-52.363
X114.513Y-54.363
X114.513Y-56.363
X121.246Y-105.201
X121.246Y-107.201
X121.246Y-109.201
X121.246Y-111.201
X121.476Y-50.363
X121.476Y-52.363
X121.476Y-54.363
X121.476Y-56.363
X123.246Y-105.201
X123.246Y-107.201
X123.246Y-109.201
X123.246Y-111.201
X123.476Y-50.363
X123.476Y-52.363
X123.476Y-54.363
X123.476Y-56.363
X124.562Y-80.493
X125.246Y-105.201
X125.246Y-107.201
X125.246Y-109.201
X125.246Y-111.201
X125.476Y-50.363
X125.476Y-52.363
X125.476Y-54.363
X125.476Y-56.363
X127.246Y-105.201
X127.246Y-107.201
X127.246Y-109.201
X127.246Y-111.201
X127.476Y-50.363
X127.476Y-52.363
X127.476Y-54.363
X127.476Y-56.363
X131.572Y-79.654
X134.084Y-105.201
X134.084Y-107.201
X134.084Y-109.201
X134.084Y-111.201
X134.439Y-50.363
X134.439Y-52.363
X134.439Y-54.363
X134.439Y-56.363
X136.084Y-105.201
X136.084Y-107.201
X136.084Y-109.201
X136.084Y-111.201
X136.439Y-50.363
X136.439Y-52.363
X136.439Y-54.363
X136.439Y-56.363
X138.084Y-105.201
X138.084Y-107.201
X138.084Y-109.201
X138.084Y-111.201
X138.439Y-50.363
X138.439Y-52.363
X138.439Y-54.363
X138.439Y-56.363
X140.084Y-105.201
X140.084Y-107.201
X140.084Y-109.201
X140.084Y-111.201
X140.439Y-50.363
X140.439Y-52.363
X140.439Y-54.363
X140.439Y-56.363
X149.25Y-79.781
T7
X84.684Y-53.236
X84.684Y-64.236
X84.684Y-82.55
X84.684Y-93.55
X84.684Y-97.0
X84.684Y-108.0
X128.194Y-68.199
X128.194Y-70.739
X128.194Y-73.279
X128.194Y-75.819
X128.194Y-78.359
X128.194Y-80.899
X128.194Y-83.439
X128.194Y-85.979
X128.194Y-88.519
X128.194Y-91.059
X128.194Y-93.599
T8
X89.684Y-56.236
X89.684Y-61.236
X89.684Y-85.55
X89.684Y-90.55
X89.684Y-100.0
X89.684Y-105.0
M30
