M48
; DRILL file {KiCad 9.0.7-9.0.7~ubuntu22.04.1} date 2026-03-14T17:58:17+0500
; FORMAT={-:-/ absolute / metric / decimal}
; #@! TF.CreationDate,2026-03-14T17:58:17+05:00
; #@! TF.GenerationSoftware,Kicad,Pcbnew,9.0.7-9.0.7~ubuntu22.04.1
; #@! TF.FileFunction,Plated,1,2,PTH
FMAT,2
METRIC
; #@! TA.AperFunction,Plated,PTH,ViaDrill
T1C0.400
; #@! TA.AperFunction,Plated,PTH,ViaDrill
T2C0.500
; #@! TA.AperFunction,Plated,PTH,ViaDrill
T3C0.800
; #@! TA.AperFunction,Plated,PTH,ComponentDrill
T4C1.000
; #@! TA.AperFunction,Plated,PTH,ComponentDrill
T5C1.750
%
G90
G05
T1
X86.538Y-67.005
X86.868Y-86.36
X88.24Y-93.142
X88.417Y-79.35
X89.002Y-66.98
X89.668Y-73.716
X91.846Y-67.056
X92.507Y-93.193
X93.447Y-79.35
X93.777Y-82.728
X94.031Y-71.907
X95.504Y-66.089
X95.758Y-96.266
X96.139Y-95.631
X98.266Y-67.31
X98.806Y-91.237
X98.806Y-91.897
X101.219Y-88.367
X101.752Y-67.107
X101.981Y-70.739
X102.489Y-71.374
X102.641Y-93.574
X102.997Y-77.114
X103.099Y-97.612
X104.927Y-67.081
X104.978Y-79.477
X104.978Y-86.716
X106.299Y-93.574
X114.554Y-86.741
X115.926Y-97.282
X115.926Y-100.482
X117.094Y-77.876
X117.17Y-82.626
X117.272Y-61.595
X117.323Y-64.719
X117.373Y-55.753
X117.373Y-58.928
X117.399Y-51.943
X119.647Y-90.919
X119.837Y-94.945
X121.412Y-96.774
X121.666Y-96.012
X122.174Y-66.294
X123.825Y-80.264
X123.901Y-78.029
X123.952Y-91.44
X124.968Y-66.294
X126.848Y-94.945
X126.848Y-100.228
X126.873Y-97.18
X127.102Y-66.294
X129.54Y-66.269
X131.127Y-70.421
X131.547Y-63.221
X131.597Y-70.891
X131.597Y-82.245
X133.325Y-61.366
X134.315Y-67.158
T2
X134.964Y-83.147
X134.964Y-83.947
X134.964Y-84.747
X135.89Y-109.982
X137.414Y-105.918
T3
X92.504Y-50.34
X92.504Y-52.34
X92.504Y-54.34
X92.504Y-56.34
X94.504Y-50.34
X94.504Y-52.34
X94.504Y-54.34
X94.504Y-56.34
X95.793Y-105.065
X95.793Y-107.065
X95.793Y-109.065
X95.793Y-111.065
X96.504Y-50.34
X96.504Y-52.34
X96.504Y-54.34
X96.504Y-56.34
X97.793Y-105.065
X97.793Y-107.065
X97.793Y-109.065
X97.793Y-111.065
X98.504Y-50.34
X98.504Y-52.34
X98.504Y-54.34
X98.504Y-56.34
X99.793Y-105.065
X99.793Y-107.065
X99.793Y-109.065
X99.793Y-111.065
X103.403Y-53.365
X103.607Y-63.729
X106.474Y-105.21
X106.474Y-107.21
X106.474Y-109.21
X106.474Y-111.21
X107.333Y-52.158
X107.333Y-54.158
X107.333Y-56.158
X108.474Y-105.21
X108.474Y-107.21
X108.474Y-109.21
X108.474Y-111.21
X109.333Y-52.158
X109.333Y-54.158
X109.333Y-56.158
X110.474Y-105.21
X110.474Y-107.21
X110.474Y-109.21
X110.474Y-111.21
X111.333Y-52.158
X111.333Y-54.158
X111.333Y-56.158
X112.474Y-105.21
X112.474Y-107.21
X112.474Y-109.21
X112.474Y-111.21
X113.333Y-52.158
X113.333Y-54.158
X113.333Y-56.158
X119.428Y-105.21
X119.428Y-107.21
X119.428Y-109.21
X119.428Y-111.21
X120.166Y-114.361
X121.428Y-105.21
X121.428Y-107.21
X121.428Y-109.21
X121.428Y-111.21
X121.666Y-114.361
X121.799Y-50.34
X121.799Y-52.34
X121.799Y-54.34
X121.799Y-56.34
X123.166Y-114.361
X123.428Y-105.21
X123.428Y-107.21
X123.428Y-109.21
X123.428Y-111.21
X123.799Y-50.34
X123.799Y-52.34
X123.799Y-54.34
X123.799Y-56.34
X125.428Y-105.21
X125.428Y-107.21
X125.428Y-109.21
X125.428Y-111.21
X125.799Y-50.34
X125.799Y-52.34
X125.799Y-54.34
X125.799Y-56.34
X127.799Y-50.34
X127.799Y-52.34
X127.799Y-54.34
X127.799Y-56.34
X135.316Y-50.504
X135.316Y-52.504
X135.316Y-54.504
X135.316Y-56.504
X136.473Y-76.632
X137.316Y-50.504
X137.316Y-52.504
X137.316Y-54.504
X137.316Y-56.504
X137.973Y-76.632
X139.316Y-52.504
X139.316Y-54.504
X139.316Y-56.504
X139.473Y-76.632
X139.929Y-105.131
X140.411Y-102.057
X140.437Y-98.349
X141.191Y-105.643
X141.316Y-54.504
X141.316Y-56.504
X144.181Y-81.055
X144.181Y-83.055
X144.181Y-85.055
X144.181Y-87.055
X144.574Y-68.882
X144.574Y-70.882
X146.181Y-81.055
X146.181Y-83.055
X146.181Y-85.055
X146.181Y-87.055
X146.574Y-68.882
X146.574Y-70.882
X146.685Y-102.159
X146.71Y-98.247
X148.181Y-81.055
X148.181Y-83.055
X148.181Y-85.055
X148.181Y-87.055
X148.574Y-68.882
X148.574Y-70.882
X148.574Y-72.882
X150.574Y-68.882
X150.574Y-70.882
X150.574Y-72.882
X150.574Y-74.882
T4
X110.236Y-68.834
X110.236Y-71.374
X110.236Y-73.914
X110.236Y-76.454
X110.236Y-78.994
X110.236Y-81.534
X110.236Y-84.074
X110.236Y-86.614
X110.236Y-89.154
X110.236Y-91.694
X135.636Y-91.694
X138.176Y-91.694
X140.716Y-91.694
X143.256Y-91.694
X145.796Y-91.694
X148.336Y-91.694
T5
X86.868Y-57.366
X86.868Y-62.446
X87.884Y-101.6
X88.138Y-107.188
X148.336Y-57.15
X148.336Y-62.738
M30
