%TF.GenerationSoftware,KiCad,Pcbnew,9.0.7-9.0.7~ubuntu22.04.1*%
%TF.CreationDate,2026-03-05T21:19:29+05:00*%
%TF.ProjectId,SMD_PCB,534d445f-5043-4422-9e6b-696361645f70,rev?*%
%TF.SameCoordinates,Original*%
%TF.FileFunction,Copper,L2,Bot*%
%TF.FilePolarity,Positive*%
%FSLAX46Y46*%
G04 Gerber Fmt 4.6, Leading zero omitted, Abs format (unit mm)*
G04 Created by KiCad (PCBNEW 9.0.7-9.0.7~ubuntu22.04.1) date 2026-03-05 21:19:29*
%MOMM*%
%LPD*%
G01*
G04 APERTURE LIST*
G04 Aperture macros list*
%AMRoundRect*
0 Rectangle with rounded corners*
0 $1 Rounding radius*
0 $2 $3 $4 $5 $6 $7 $8 $9 X,Y pos of 4 corners*
0 Add a 4 corners polygon primitive as box body*
4,1,4,$2,$3,$4,$5,$6,$7,$8,$9,$2,$3,0*
0 Add four circle primitives for the rounded corners*
1,1,$1+$1,$2,$3*
1,1,$1+$1,$4,$5*
1,1,$1+$1,$6,$7*
1,1,$1+$1,$8,$9*
0 Add four rect primitives between the rounded corners*
20,1,$1+$1,$2,$3,$4,$5,0*
20,1,$1+$1,$4,$5,$6,$7,0*
20,1,$1+$1,$6,$7,$8,$9,0*
20,1,$1+$1,$8,$9,$2,$3,0*%
G04 Aperture macros list end*
%TA.AperFunction,ComponentPad*%
%ADD10RoundRect,0.250002X1.699998X1.699998X-1.699998X1.699998X-1.699998X-1.699998X1.699998X-1.699998X0*%
%TD*%
%TA.AperFunction,ComponentPad*%
%ADD11R,1.700000X1.700000*%
%TD*%
%TA.AperFunction,ComponentPad*%
%ADD12C,1.700000*%
%TD*%
%TA.AperFunction,ComponentPad*%
%ADD13RoundRect,0.250002X-1.699998X-1.699998X1.699998X-1.699998X1.699998X1.699998X-1.699998X1.699998X0*%
%TD*%
%TA.AperFunction,ViaPad*%
%ADD14C,0.800000*%
%TD*%
%TA.AperFunction,ViaPad*%
%ADD15C,1.500000*%
%TD*%
%TA.AperFunction,ViaPad*%
%ADD16C,1.000000*%
%TD*%
%TA.AperFunction,Conductor*%
%ADD17C,1.000000*%
%TD*%
%TA.AperFunction,Conductor*%
%ADD18C,2.000000*%
%TD*%
%TA.AperFunction,Conductor*%
%ADD19C,3.000000*%
%TD*%
%TA.AperFunction,Conductor*%
%ADD20C,0.500000*%
%TD*%
G04 APERTURE END LIST*
D10*
%TO.P,J9,1,Pin_1*%
%TO.N,/PL7*%
X88138000Y-107188000D03*
%TD*%
D11*
%TO.P,J4,1,Pin_1*%
%TO.N,GND*%
X110236000Y-68834000D03*
D12*
%TO.P,J4,2,Pin_2*%
%TO.N,+3.3V*%
X110236000Y-71374000D03*
%TO.P,J4,3,Pin_3*%
%TO.N,/B_L1_H*%
X110236000Y-73914000D03*
%TO.P,J4,4,Pin_4*%
%TO.N,/B_L1_L*%
X110236000Y-76454000D03*
%TO.P,J4,5,Pin_5*%
%TO.N,/B_L2_L*%
X110236000Y-78994000D03*
%TO.P,J4,6,Pin_6*%
%TO.N,/B_L2_H*%
X110236000Y-81534000D03*
%TO.P,J4,7,Pin_7*%
%TO.N,/A_L1_H*%
X110236000Y-84074000D03*
%TO.P,J4,8,Pin_8*%
%TO.N,/A_L1_L*%
X110236000Y-86614000D03*
%TO.P,J4,9,Pin_9*%
%TO.N,/A_L2_L*%
X110236000Y-89154000D03*
%TO.P,J4,10,Pin_10*%
%TO.N,/A_L2_H*%
X110236000Y-91694000D03*
%TD*%
D11*
%TO.P,J3,1,Pin_1*%
%TO.N,+12V*%
X135636000Y-91694000D03*
D12*
%TO.P,J3,2,Pin_2*%
X138176000Y-91694000D03*
%TO.P,J3,3,Pin_3*%
%TO.N,+5V*%
X140716000Y-91694000D03*
%TO.P,J3,4,Pin_4*%
X143256000Y-91694000D03*
%TO.P,J3,5,Pin_5*%
%TO.N,GND*%
X145796000Y-91694000D03*
%TO.P,J3,6,Pin_6*%
X148336000Y-91694000D03*
%TD*%
D13*
%TO.P,J2,1,Pin_1*%
%TO.N,GND*%
X86868000Y-57366000D03*
%TD*%
%TO.P,J5,1,Pin_1*%
%TO.N,/PL2*%
X148336000Y-57150000D03*
%TD*%
%TO.P,J7,1,Pin_1*%
%TO.N,/PL3*%
X148336000Y-62738000D03*
%TD*%
D10*
%TO.P,J8,1,Pin_1*%
%TO.N,/PL6*%
X87884000Y-101600000D03*
%TD*%
D13*
%TO.P,J1,1,Pin_1*%
%TO.N,+12V*%
X86868000Y-62446000D03*
%TD*%
D14*
%TO.N,GND*%
X104952800Y-77139800D03*
X126847600Y-100228400D03*
X134315200Y-67157600D03*
D15*
X146685000Y-102158800D03*
D14*
X88239600Y-93141800D03*
X117094000Y-77876400D03*
D15*
X144181000Y-85055000D03*
X146181000Y-87055000D03*
D14*
X106299000Y-93573600D03*
D15*
X144181000Y-83055000D03*
D14*
X92506800Y-93192600D03*
D15*
X146181000Y-81055000D03*
X144181000Y-81055000D03*
X146710400Y-98247200D03*
D14*
X102641400Y-93573600D03*
X126873000Y-97180400D03*
X91846400Y-67056000D03*
X101752400Y-67106800D03*
X104927400Y-67081400D03*
X123901200Y-78028800D03*
D15*
X140411200Y-102057200D03*
D14*
X88417400Y-79349600D03*
D15*
X148181000Y-87055000D03*
D14*
X104978200Y-79476600D03*
X126847600Y-94945200D03*
X99644200Y-79349600D03*
D15*
X148181000Y-85055000D03*
X148181000Y-81055000D03*
X144181000Y-87055000D03*
X148181000Y-83055000D03*
X140436600Y-98348800D03*
D14*
X131597400Y-82245200D03*
X117170200Y-82626200D03*
X123825000Y-80264000D03*
D15*
X146181000Y-83055000D03*
D14*
X93446600Y-79349600D03*
D15*
X146181000Y-85055000D03*
D14*
X119837200Y-94945200D03*
D15*
%TO.N,+12V*%
X120166000Y-114361000D03*
X146574000Y-68882000D03*
X110474000Y-105210000D03*
X150574000Y-74882000D03*
X112474000Y-105210000D03*
X123798667Y-52340000D03*
X123166000Y-114361000D03*
X121798667Y-52340000D03*
X121666000Y-114361000D03*
X123798667Y-50340000D03*
X148574000Y-68882000D03*
X125798667Y-56340000D03*
X146574000Y-70882000D03*
X96504000Y-50340000D03*
X150574000Y-70882000D03*
X96504000Y-52340000D03*
X144574000Y-68882000D03*
X123798667Y-56340000D03*
X150574000Y-72882000D03*
X148574000Y-70882000D03*
X123798667Y-54340000D03*
D14*
X117271800Y-61595000D03*
X95504000Y-66088926D03*
D15*
X94504000Y-54340000D03*
X98504000Y-54340000D03*
X108474000Y-107210000D03*
D14*
X117322600Y-64719200D03*
X89001600Y-66979800D03*
X86537800Y-67005200D03*
D15*
X94504000Y-50340000D03*
X92504000Y-50340000D03*
X92504000Y-52340000D03*
X150574000Y-68882000D03*
X92504000Y-54340000D03*
X94504000Y-56340000D03*
D14*
X117373400Y-58928000D03*
D15*
X110474000Y-107210000D03*
D14*
X98266000Y-67310000D03*
D15*
X112474000Y-111210000D03*
D14*
X117373400Y-55753000D03*
D15*
X127798667Y-50340000D03*
X96504000Y-54340000D03*
X98504000Y-52340000D03*
X121798667Y-56340000D03*
X112474000Y-109210000D03*
X94504000Y-52340000D03*
X110474000Y-109210000D03*
X144574000Y-70882000D03*
X110474000Y-111210000D03*
X98504000Y-50340000D03*
X125798667Y-50340000D03*
X127798667Y-52340000D03*
X106474000Y-111210000D03*
X121798667Y-50340000D03*
X125798667Y-52340000D03*
X127798667Y-56340000D03*
X121798667Y-54340000D03*
X106474000Y-105210000D03*
X106474000Y-109210000D03*
X106474000Y-107210000D03*
D14*
X117398800Y-51943000D03*
D15*
X108474000Y-105210000D03*
X92504000Y-56340000D03*
X112474000Y-107210000D03*
X108474000Y-111210000D03*
X125798667Y-54340000D03*
D14*
X119647024Y-90918976D03*
D15*
X98504000Y-56340000D03*
X127798667Y-54340000D03*
X108474000Y-109210000D03*
X96504000Y-56340000D03*
X148574000Y-72882000D03*
D14*
%TO.N,+3.3V*%
X101981000Y-70739000D03*
X102489000Y-71374000D03*
X86868000Y-85344000D03*
X131127500Y-70421500D03*
X131597400Y-70891400D03*
X114554000Y-86741000D03*
D15*
%TO.N,/PL2*%
X111333367Y-52157967D03*
X113333367Y-54157967D03*
X113333367Y-52157967D03*
X109333367Y-54157967D03*
X113333367Y-56157967D03*
X111333367Y-56157967D03*
X109333367Y-52157967D03*
X103606600Y-63728600D03*
X111333367Y-54157967D03*
X109333367Y-56157967D03*
X107333367Y-52157967D03*
X103403400Y-53365400D03*
X107333367Y-54157967D03*
X107333367Y-56157967D03*
D14*
%TO.N,/PL3*%
X127101600Y-66294000D03*
X129540000Y-66268600D03*
D15*
X137316400Y-54504400D03*
X137316400Y-50504400D03*
X135316400Y-54504400D03*
D14*
X122174000Y-66294000D03*
D15*
X137316400Y-56504400D03*
X139316400Y-56504400D03*
D14*
X131546600Y-63220600D03*
X124968000Y-66294000D03*
D15*
X139316400Y-54504400D03*
X135316400Y-50504400D03*
D14*
X133324600Y-61366400D03*
D15*
X137316400Y-52504400D03*
X135316400Y-56504400D03*
X141316400Y-56504400D03*
X141316400Y-54504400D03*
X135316400Y-52504400D03*
X139316400Y-52504400D03*
%TO.N,/PL6*%
X99793000Y-105065000D03*
X95793000Y-107065000D03*
X97793000Y-109065000D03*
D14*
X96139000Y-95631000D03*
D15*
X99793000Y-107065000D03*
X95793000Y-109065000D03*
X97793000Y-107065000D03*
D14*
X98806000Y-91236800D03*
X95758000Y-96266000D03*
D15*
X95793000Y-111065000D03*
D14*
X98806000Y-91897200D03*
D15*
X97793000Y-105065000D03*
X99793000Y-109065000D03*
D14*
X103098600Y-97612200D03*
D15*
X95793000Y-105065000D03*
X97793000Y-111065000D03*
X99793000Y-111065000D03*
D16*
%TO.N,+5V*%
X135890000Y-109982000D03*
X137414000Y-105918000D03*
D15*
%TO.N,Net-(D2-K)*%
X139928600Y-105130600D03*
X141191000Y-105643000D03*
D16*
X134964000Y-84747000D03*
X134964000Y-83147000D03*
X134964000Y-83947000D03*
D15*
%TO.N,/PL7*%
X121428000Y-105210000D03*
X123428000Y-111210000D03*
D14*
X123952000Y-91440000D03*
D15*
X121428000Y-109210000D03*
X119428000Y-107210000D03*
X125428000Y-109210000D03*
D14*
X115925600Y-100482400D03*
X115925600Y-97282000D03*
D15*
X125428000Y-105210000D03*
X121428000Y-111210000D03*
X119428000Y-109210000D03*
X119428000Y-105210000D03*
X137972800Y-76631800D03*
X121428000Y-107210000D03*
X125428000Y-111210000D03*
D14*
X121412000Y-96774000D03*
D15*
X136472800Y-76631800D03*
X139472800Y-76631800D03*
X123428000Y-105210000D03*
D14*
X121666000Y-96012000D03*
D15*
X119428000Y-111210000D03*
X123428000Y-109210000D03*
X125428000Y-107210000D03*
X123428000Y-107210000D03*
%TD*%
D17*
%TO.N,GND*%
X104978200Y-79476600D02*
X104978200Y-77165200D01*
X104978200Y-77165200D02*
X104952800Y-77139800D01*
D18*
%TO.N,+12V*%
X120142000Y-114361000D02*
X119642000Y-113861000D01*
D19*
X87388700Y-97548700D02*
X87739000Y-97899000D01*
X86868000Y-62446000D02*
X84655000Y-64659000D01*
X144272000Y-52324000D02*
X144272000Y-68580000D01*
X109474000Y-110051000D02*
X109474000Y-109474000D01*
X139811000Y-47863000D02*
X144272000Y-52324000D01*
D20*
X98266000Y-67024000D02*
X98266000Y-67310000D01*
D19*
X130275667Y-47863000D02*
X139811000Y-47863000D01*
X97409000Y-51435000D02*
X100981000Y-47863000D01*
X109000500Y-110524500D02*
X109474000Y-110051000D01*
D20*
X119647024Y-90918976D02*
X109474000Y-101092000D01*
D19*
X95504000Y-53340000D02*
X96393000Y-52451000D01*
X84655000Y-64659000D02*
X84655000Y-69545200D01*
X100981000Y-47863000D02*
X119321667Y-47863000D01*
X84655000Y-89611200D02*
X84655000Y-94513400D01*
X122978333Y-51519667D02*
X123867333Y-52408667D01*
D20*
X96012000Y-66548000D02*
X95696003Y-66232003D01*
D19*
X84655000Y-94513400D02*
X84655000Y-94815000D01*
X144272000Y-68580000D02*
X145796000Y-70104000D01*
X96393000Y-52451000D02*
X97409000Y-51435000D01*
X119321667Y-47863000D02*
X122978333Y-51519667D01*
D20*
X97790000Y-66548000D02*
X96012000Y-66548000D01*
D19*
X109474000Y-109474000D02*
X109474000Y-108210000D01*
D20*
X95647077Y-66232003D02*
X95576825Y-66161751D01*
D19*
X87739000Y-97899000D02*
X90419768Y-97899000D01*
X92779000Y-113861000D02*
X105664000Y-113861000D01*
X91948000Y-99427232D02*
X91948000Y-113030000D01*
X91948000Y-113030000D02*
X92779000Y-113861000D01*
D20*
X97790000Y-66548000D02*
X98266000Y-67024000D01*
D19*
X84655000Y-79654400D02*
X84655000Y-84632800D01*
D18*
X123166000Y-114361000D02*
X120142000Y-114361000D01*
D19*
X146685000Y-70993000D02*
X147574000Y-71882000D01*
X84655000Y-74549000D02*
X84655000Y-79654400D01*
X123867333Y-52408667D02*
X124798667Y-53340000D01*
D18*
X119642000Y-113861000D02*
X105664000Y-113861000D01*
D19*
X84655000Y-84632800D02*
X84655000Y-89611200D01*
D20*
X95696003Y-66232003D02*
X95647077Y-66232003D01*
D19*
X90419768Y-97899000D02*
X91948000Y-99427232D01*
X84655000Y-69545200D02*
X84655000Y-74549000D01*
X145796000Y-70104000D02*
X146685000Y-70993000D01*
X84655000Y-94815000D02*
X87388700Y-97548700D01*
D20*
X109474000Y-101092000D02*
X109474000Y-108210000D01*
D19*
X105664000Y-113861000D02*
X109000500Y-110524500D01*
X124798667Y-53340000D02*
X130275667Y-47863000D01*
D20*
%TO.N,+3.3V*%
X114554000Y-75692000D02*
X110236000Y-71374000D01*
X114554000Y-86741000D02*
X114554000Y-75692000D01*
X86868000Y-70866000D02*
X87376000Y-70358000D01*
X131064000Y-70358000D02*
X111252000Y-70358000D01*
X102362000Y-71120000D02*
X101981000Y-70739000D01*
X87376000Y-70358000D02*
X101600000Y-70358000D01*
X131127500Y-70421500D02*
X131064000Y-70358000D01*
X86868000Y-85344000D02*
X86868000Y-70866000D01*
X101600000Y-70358000D02*
X101981000Y-70739000D01*
X131597400Y-70891400D02*
X131127500Y-70421500D01*
X111252000Y-70358000D02*
X110236000Y-71374000D01*
%TO.N,/PL3*%
X122174000Y-66294000D02*
X124968000Y-66294000D01*
%TO.N,/PL6*%
X96139000Y-95631000D02*
X98806000Y-92964000D01*
X98806000Y-91897200D02*
X98806000Y-91236800D01*
X98806000Y-92964000D02*
X98806000Y-91897200D01*
X95758000Y-96012000D02*
X96139000Y-95631000D01*
D17*
%TO.N,+5V*%
X137414000Y-105918000D02*
X137414000Y-108458000D01*
X137414000Y-108458000D02*
X135890000Y-109982000D01*
%TO.N,Net-(D2-K)*%
X134035000Y-85511000D02*
X134035000Y-99237000D01*
X134035000Y-99237000D02*
X140441000Y-105643000D01*
X134964000Y-83947000D02*
X134964000Y-84582000D01*
X134964000Y-84582000D02*
X134035000Y-85511000D01*
D18*
%TO.N,/PL7*%
X147929600Y-76555600D02*
X150437000Y-79063000D01*
X141478000Y-114361000D02*
X128579000Y-114361000D01*
X138049000Y-76555600D02*
X147929600Y-76555600D01*
X128579000Y-114361000D02*
X122428000Y-108210000D01*
X137972800Y-76631800D02*
X138049000Y-76555600D01*
D20*
X123952000Y-91440000D02*
X123952000Y-93726000D01*
X123952000Y-93726000D02*
X121666000Y-96012000D01*
D18*
X150437000Y-105402000D02*
X141478000Y-114361000D01*
X150437000Y-79063000D02*
X150437000Y-105402000D01*
D20*
X121412000Y-96266000D02*
X121666000Y-96012000D01*
X121412000Y-96520000D02*
X121412000Y-96266000D01*
%TD*%
%TA.AperFunction,Conductor*%
%TO.N,+12V*%
G36*
X131007039Y-48533685D02*
G01*
X131052794Y-48586489D01*
X131064000Y-48638000D01*
X131064000Y-57872261D01*
X131044315Y-57939300D01*
X131040903Y-57944335D01*
X129832161Y-59636574D01*
X129777177Y-59679684D01*
X129731258Y-59688500D01*
X126361997Y-59688500D01*
X126354651Y-59689290D01*
X126341397Y-59690000D01*
X125984000Y-59690000D01*
X125984000Y-60048698D01*
X125982739Y-60066340D01*
X125982500Y-60068002D01*
X125982500Y-63951171D01*
X125962815Y-64018210D01*
X125937883Y-64046430D01*
X124460000Y-65277999D01*
X124460000Y-65669500D01*
X124440315Y-65736539D01*
X124387511Y-65782294D01*
X124336000Y-65793500D01*
X123314000Y-65793500D01*
X123246961Y-65773815D01*
X123201206Y-65721011D01*
X123190000Y-65669500D01*
X123190000Y-59690000D01*
X120904000Y-59690000D01*
X120904000Y-62432638D01*
X120884315Y-62499677D01*
X120867681Y-62520319D01*
X115606319Y-67781681D01*
X115544996Y-67815166D01*
X115518638Y-67818000D01*
X114678000Y-67818000D01*
X114610961Y-67798315D01*
X114565206Y-67745511D01*
X114554000Y-67694000D01*
X114554000Y-60576000D01*
X114573685Y-60508961D01*
X114626489Y-60463206D01*
X114678000Y-60452000D01*
X115824000Y-60452000D01*
X116586000Y-59944000D01*
X116586000Y-48638000D01*
X116605685Y-48570961D01*
X116658489Y-48525206D01*
X116710000Y-48514000D01*
X130940000Y-48514000D01*
X131007039Y-48533685D01*
G37*
%TD.AperFunction*%
%TD*%
%TA.AperFunction,Conductor*%
%TO.N,/PL3*%
G36*
X152089039Y-60217685D02*
G01*
X152134794Y-60270489D01*
X152146000Y-60322000D01*
X152146000Y-65662000D01*
X152126315Y-65729039D01*
X152073511Y-65774794D01*
X152022000Y-65786000D01*
X146146500Y-65786000D01*
X146079461Y-65766315D01*
X146033706Y-65713511D01*
X146022500Y-65662000D01*
X146022500Y-65162957D01*
X146042185Y-65095918D01*
X146094989Y-65050163D01*
X146164147Y-65040219D01*
X146211597Y-65057419D01*
X146316871Y-65122353D01*
X146316882Y-65122358D01*
X146483304Y-65177505D01*
X146483311Y-65177506D01*
X146586021Y-65187999D01*
X148085999Y-65187999D01*
X148086000Y-65187998D01*
X148086000Y-63580413D01*
X148249820Y-63613000D01*
X148422180Y-63613000D01*
X148586000Y-63580413D01*
X148586000Y-65187999D01*
X150085970Y-65187999D01*
X150085984Y-65187998D01*
X150188695Y-65177505D01*
X150355117Y-65122358D01*
X150355122Y-65122356D01*
X150504344Y-65030315D01*
X150628315Y-64906344D01*
X150720356Y-64757122D01*
X150720358Y-64757117D01*
X150775505Y-64590695D01*
X150775506Y-64590688D01*
X150785999Y-64487984D01*
X150786000Y-64487971D01*
X150786000Y-62988000D01*
X149178414Y-62988000D01*
X149211000Y-62824180D01*
X149211000Y-62651820D01*
X149178414Y-62488000D01*
X150785999Y-62488000D01*
X150785999Y-60988030D01*
X150785998Y-60988015D01*
X150775505Y-60885304D01*
X150720358Y-60718882D01*
X150720356Y-60718877D01*
X150628315Y-60569655D01*
X150504344Y-60445684D01*
X150474926Y-60427539D01*
X150428202Y-60375591D01*
X150416979Y-60306628D01*
X150444823Y-60242546D01*
X150502891Y-60203690D01*
X150540023Y-60198000D01*
X152022000Y-60198000D01*
X152089039Y-60217685D01*
G37*
%TD.AperFunction*%
%TD*%
%TA.AperFunction,Conductor*%
%TO.N,/PL7*%
G36*
X118053039Y-93491685D02*
G01*
X118098794Y-93544489D01*
X118110000Y-93596000D01*
X118110000Y-102870000D01*
X116078000Y-102870000D01*
X116078000Y-101854000D01*
X113662000Y-101854000D01*
X113594961Y-101834315D01*
X113549206Y-101781511D01*
X113538000Y-101730000D01*
X113538000Y-97787176D01*
X113557685Y-97720137D01*
X113574319Y-97699495D01*
X117765495Y-93508319D01*
X117792422Y-93493615D01*
X117818241Y-93477023D01*
X117824441Y-93476131D01*
X117826818Y-93474834D01*
X117853176Y-93472000D01*
X117986000Y-93472000D01*
X118053039Y-93491685D01*
G37*
%TD.AperFunction*%
%TD*%
%TA.AperFunction,Conductor*%
%TO.N,GND*%
G36*
X93667539Y-59711185D02*
G01*
X93713294Y-59763989D01*
X93724500Y-59815500D01*
X93724500Y-66678002D01*
X93730338Y-66732312D01*
X93741543Y-66783818D01*
X93741546Y-66783827D01*
X93748779Y-66810192D01*
X93748783Y-66810203D01*
X93798105Y-66896818D01*
X93798110Y-66896825D01*
X93798112Y-66896828D01*
X93817758Y-66919501D01*
X93843863Y-66949628D01*
X93843866Y-66949631D01*
X93843867Y-66949632D01*
X93876641Y-66981257D01*
X93964976Y-67027465D01*
X93964977Y-67027465D01*
X93964977Y-67027466D01*
X94015105Y-67042184D01*
X94032015Y-67047150D01*
X94032019Y-67047150D01*
X94032021Y-67047151D01*
X94041397Y-67048499D01*
X94104000Y-67057500D01*
X94104001Y-67057500D01*
X95674054Y-67057500D01*
X95674942Y-67057489D01*
X95680158Y-67057427D01*
X95686094Y-67057285D01*
X95763621Y-67043281D01*
X95798770Y-67031103D01*
X95868559Y-67027758D01*
X95871455Y-67028497D01*
X95946107Y-67048500D01*
X95946108Y-67048500D01*
X97503677Y-67048500D01*
X97570716Y-67068185D01*
X97616471Y-67120989D01*
X97626415Y-67190147D01*
X97625294Y-67196692D01*
X97615500Y-67245928D01*
X97615500Y-67245931D01*
X97615500Y-67374069D01*
X97615500Y-67374071D01*
X97615499Y-67374071D01*
X97640497Y-67499738D01*
X97640499Y-67499744D01*
X97689533Y-67618124D01*
X97689538Y-67618133D01*
X97760723Y-67724668D01*
X97760726Y-67724672D01*
X97851327Y-67815273D01*
X97851331Y-67815276D01*
X97957866Y-67886461D01*
X97957872Y-67886464D01*
X97957873Y-67886465D01*
X98076256Y-67935501D01*
X98076260Y-67935501D01*
X98076261Y-67935502D01*
X98201928Y-67960500D01*
X98201931Y-67960500D01*
X98330071Y-67960500D01*
X98415531Y-67943500D01*
X98452456Y-67936155D01*
X108886000Y-67936155D01*
X108886000Y-68434000D01*
X109836000Y-68434000D01*
X109836000Y-67484000D01*
X109338155Y-67484000D01*
X109278627Y-67490401D01*
X109278620Y-67490403D01*
X109143913Y-67540645D01*
X109143906Y-67540649D01*
X109028812Y-67626809D01*
X109028809Y-67626812D01*
X108942649Y-67741906D01*
X108942645Y-67741913D01*
X108892403Y-67876620D01*
X108892401Y-67876627D01*
X108886000Y-67936155D01*
X98452456Y-67936155D01*
X98455744Y-67935501D01*
X98574127Y-67886465D01*
X98589099Y-67876461D01*
X98659009Y-67829749D01*
X98680669Y-67815276D01*
X98771273Y-67724672D01*
X98771276Y-67724669D01*
X98842465Y-67618127D01*
X98891501Y-67499744D01*
X98916500Y-67374069D01*
X98916500Y-67245931D01*
X98916500Y-67245928D01*
X98891502Y-67120261D01*
X98891501Y-67120260D01*
X98891501Y-67120256D01*
X98842465Y-67001873D01*
X98842464Y-67001872D01*
X98842461Y-67001866D01*
X98771276Y-66895331D01*
X98771275Y-66895329D01*
X98765271Y-66889326D01*
X98735760Y-66838211D01*
X98735500Y-66838319D01*
X98734680Y-66836341D01*
X98733173Y-66833730D01*
X98732392Y-66830814D01*
X98714183Y-66799276D01*
X98675522Y-66732313D01*
X98666500Y-66716686D01*
X98573314Y-66623500D01*
X98097314Y-66147500D01*
X98022422Y-66104261D01*
X97983187Y-66081608D01*
X97912922Y-66062781D01*
X97855892Y-66047500D01*
X97855891Y-66047500D01*
X96518134Y-66047500D01*
X96451095Y-66027815D01*
X96405340Y-65975011D01*
X96395396Y-65905853D01*
X96403003Y-65877448D01*
X96540582Y-65533499D01*
X97002357Y-64379062D01*
X97016021Y-64332490D01*
X97024890Y-64286438D01*
X97027195Y-64262279D01*
X97029500Y-64238126D01*
X97029500Y-59815500D01*
X97049185Y-59748461D01*
X97101989Y-59702706D01*
X97153500Y-59691500D01*
X97737954Y-59691500D01*
X97804993Y-59711185D01*
X97850748Y-59763989D01*
X97860692Y-59833147D01*
X97847830Y-59872972D01*
X97837240Y-59893218D01*
X97818533Y-59928979D01*
X97798851Y-59996009D01*
X97798848Y-59996021D01*
X97788500Y-60067998D01*
X97788500Y-65154002D01*
X97794338Y-65208312D01*
X97805543Y-65259818D01*
X97805546Y-65259827D01*
X97812779Y-65286192D01*
X97812783Y-65286203D01*
X97862105Y-65372818D01*
X97862110Y-65372825D01*
X97862112Y-65372828D01*
X97883637Y-65397669D01*
X97907863Y-65425628D01*
X97907866Y-65425631D01*
X97907867Y-65425632D01*
X97940641Y-65457257D01*
X98028976Y-65503465D01*
X98028977Y-65503465D01*
X98028977Y-65503466D01*
X98073218Y-65516456D01*
X98096015Y-65523150D01*
X98096019Y-65523150D01*
X98096021Y-65523151D01*
X98107652Y-65524823D01*
X98168000Y-65533500D01*
X98168001Y-65533500D01*
X106048000Y-65533500D01*
X106102313Y-65527661D01*
X106153824Y-65516455D01*
X106180198Y-65509219D01*
X106256648Y-65465685D01*
X106266818Y-65459894D01*
X106266819Y-65459892D01*
X106266828Y-65459888D01*
X106319632Y-65414133D01*
X106351257Y-65381359D01*
X106397465Y-65293024D01*
X106399470Y-65286198D01*
X106407215Y-65259818D01*
X106417150Y-65225985D01*
X106427500Y-65154000D01*
X106427500Y-59815500D01*
X106447185Y-59748461D01*
X106499989Y-59702706D01*
X106551500Y-59691500D01*
X116094596Y-59691500D01*
X116161635Y-59711185D01*
X116207390Y-59763989D01*
X116217334Y-59833147D01*
X116188309Y-59896703D01*
X116163379Y-59918674D01*
X116147922Y-59928979D01*
X116114685Y-59951137D01*
X116111694Y-59953131D01*
X116047377Y-59996009D01*
X116047368Y-59996015D01*
X115996089Y-60030201D01*
X115996080Y-60030207D01*
X115953195Y-60058797D01*
X115777879Y-60175674D01*
X115711180Y-60196482D01*
X115709096Y-60196500D01*
X114677997Y-60196500D01*
X114623687Y-60202338D01*
X114572181Y-60213543D01*
X114572172Y-60213546D01*
X114545807Y-60220779D01*
X114545796Y-60220783D01*
X114459181Y-60270105D01*
X114459173Y-60270111D01*
X114406371Y-60315863D01*
X114374743Y-60348640D01*
X114328534Y-60436977D01*
X114328533Y-60436977D01*
X114308851Y-60504009D01*
X114308848Y-60504021D01*
X114298500Y-60575998D01*
X114298500Y-67694002D01*
X114304338Y-67748312D01*
X114315543Y-67799818D01*
X114315546Y-67799827D01*
X114322779Y-67826192D01*
X114322783Y-67826203D01*
X114372105Y-67912818D01*
X114372110Y-67912825D01*
X114372112Y-67912828D01*
X114391758Y-67935501D01*
X114417863Y-67965628D01*
X114417866Y-67965631D01*
X114417867Y-67965632D01*
X114450641Y-67997257D01*
X114538976Y-68043465D01*
X114538977Y-68043465D01*
X114538977Y-68043466D01*
X114589105Y-68058184D01*
X114606015Y-68063150D01*
X114606019Y-68063150D01*
X114606021Y-68063151D01*
X114617652Y-68064823D01*
X114678000Y-68073500D01*
X114678001Y-68073500D01*
X115518639Y-68073500D01*
X115520075Y-68073422D01*
X115545952Y-68072036D01*
X115572310Y-68069202D01*
X115667444Y-68039413D01*
X115728767Y-68005928D01*
X115786985Y-67962347D01*
X121048347Y-62700985D01*
X121066626Y-62680635D01*
X121083260Y-62659993D01*
X121129465Y-62571662D01*
X121149150Y-62504623D01*
X121159500Y-62432638D01*
X121159500Y-60069500D01*
X121179185Y-60002461D01*
X121231989Y-59956706D01*
X121283500Y-59945500D01*
X122810500Y-59945500D01*
X122877539Y-59965185D01*
X122923294Y-60017989D01*
X122934500Y-60069500D01*
X122934500Y-65669500D01*
X122931949Y-65678185D01*
X122933238Y-65687147D01*
X122922259Y-65711187D01*
X122914815Y-65736539D01*
X122907974Y-65742466D01*
X122904213Y-65750703D01*
X122881978Y-65764992D01*
X122862011Y-65782294D01*
X122851496Y-65784581D01*
X122845435Y-65788477D01*
X122810500Y-65793500D01*
X122633432Y-65793500D01*
X122566393Y-65773815D01*
X122564541Y-65772602D01*
X122482133Y-65717538D01*
X122482124Y-65717533D01*
X122363744Y-65668499D01*
X122363738Y-65668497D01*
X122238071Y-65643500D01*
X122238069Y-65643500D01*
X122109931Y-65643500D01*
X122109929Y-65643500D01*
X121984261Y-65668497D01*
X121984255Y-65668499D01*
X121865875Y-65717533D01*
X121865866Y-65717538D01*
X121759331Y-65788723D01*
X121759327Y-65788726D01*
X121668726Y-65879327D01*
X121668723Y-65879331D01*
X121597538Y-65985866D01*
X121597533Y-65985875D01*
X121548499Y-66104255D01*
X121548497Y-66104261D01*
X121523500Y-66229928D01*
X121523500Y-66229931D01*
X121523500Y-66358069D01*
X121523500Y-66358071D01*
X121523499Y-66358071D01*
X121548497Y-66483738D01*
X121548499Y-66483744D01*
X121597533Y-66602124D01*
X121597538Y-66602133D01*
X121668723Y-66708668D01*
X121668726Y-66708672D01*
X121759327Y-66799273D01*
X121759331Y-66799276D01*
X121865866Y-66870461D01*
X121865872Y-66870464D01*
X121865873Y-66870465D01*
X121984256Y-66919501D01*
X121984260Y-66919501D01*
X121984261Y-66919502D01*
X122109928Y-66944500D01*
X122109931Y-66944500D01*
X122238071Y-66944500D01*
X122322615Y-66927682D01*
X122363744Y-66919501D01*
X122482127Y-66870465D01*
X122564541Y-66815398D01*
X122582587Y-66809747D01*
X122598497Y-66799523D01*
X122629456Y-66795071D01*
X122631218Y-66794520D01*
X122633432Y-66794500D01*
X122810500Y-66794500D01*
X122877539Y-66814185D01*
X122923294Y-66866989D01*
X122934500Y-66918500D01*
X122934500Y-67440002D01*
X122940338Y-67494312D01*
X122951543Y-67545818D01*
X122951546Y-67545827D01*
X122958779Y-67572192D01*
X122958783Y-67572203D01*
X123008105Y-67658818D01*
X123008110Y-67658825D01*
X123008112Y-67658828D01*
X123034580Y-67689374D01*
X123053863Y-67711628D01*
X123053866Y-67711631D01*
X123053867Y-67711632D01*
X123086641Y-67743257D01*
X123174976Y-67789465D01*
X123174977Y-67789465D01*
X123174977Y-67789466D01*
X123219218Y-67802456D01*
X123242015Y-67809150D01*
X123242019Y-67809150D01*
X123242021Y-67809151D01*
X123253652Y-67810823D01*
X123314000Y-67819500D01*
X123314001Y-67819500D01*
X124334500Y-67819500D01*
X124388813Y-67813661D01*
X124440324Y-67802455D01*
X124466698Y-67795219D01*
X124524339Y-67762395D01*
X124592333Y-67746327D01*
X124643172Y-67760274D01*
X124669844Y-67774226D01*
X124698973Y-67789464D01*
X124698977Y-67789466D01*
X124743218Y-67802456D01*
X124766015Y-67809150D01*
X124766019Y-67809150D01*
X124766021Y-67809151D01*
X124777652Y-67810823D01*
X124838000Y-67819500D01*
X124838001Y-67819500D01*
X129742639Y-67819500D01*
X129744075Y-67819422D01*
X129769952Y-67818036D01*
X129796310Y-67815202D01*
X129891444Y-67785413D01*
X129952767Y-67751928D01*
X130010985Y-67708347D01*
X135018347Y-62700985D01*
X135036626Y-62680635D01*
X135053260Y-62659993D01*
X135099465Y-62571662D01*
X135119150Y-62504623D01*
X135129500Y-62432638D01*
X135129500Y-60323500D01*
X135149185Y-60256461D01*
X135201989Y-60210706D01*
X135253500Y-60199500D01*
X136272500Y-60199500D01*
X136339539Y-60219185D01*
X136385294Y-60271989D01*
X136396500Y-60323500D01*
X136396500Y-65662002D01*
X136402338Y-65716312D01*
X136413543Y-65767818D01*
X136413546Y-65767827D01*
X136420779Y-65794192D01*
X136420783Y-65794203D01*
X136470105Y-65880818D01*
X136470110Y-65880825D01*
X136470112Y-65880828D01*
X136491796Y-65905853D01*
X136515863Y-65933628D01*
X136515866Y-65933631D01*
X136515867Y-65933632D01*
X136548641Y-65965257D01*
X136636976Y-66011465D01*
X136636977Y-66011465D01*
X136636977Y-66011466D01*
X136681218Y-66024456D01*
X136704015Y-66031150D01*
X136704019Y-66031150D01*
X136704021Y-66031151D01*
X136715652Y-66032823D01*
X136776000Y-66041500D01*
X136776001Y-66041500D01*
X139576000Y-66041500D01*
X139630313Y-66035661D01*
X139681824Y-66024455D01*
X139708198Y-66017219D01*
X139770856Y-65981539D01*
X139794818Y-65967894D01*
X139794819Y-65967892D01*
X139794828Y-65967888D01*
X139847632Y-65922133D01*
X139879257Y-65889359D01*
X139925465Y-65801024D01*
X139927470Y-65794198D01*
X139940241Y-65750703D01*
X139945150Y-65733985D01*
X139955500Y-65662000D01*
X139955500Y-60323500D01*
X139975185Y-60256461D01*
X140027989Y-60210706D01*
X140079500Y-60199500D01*
X142397500Y-60199500D01*
X142464539Y-60219185D01*
X142510294Y-60271989D01*
X142521500Y-60323500D01*
X142521500Y-65914500D01*
X142501815Y-65981539D01*
X142449011Y-66027294D01*
X142397500Y-66038500D01*
X142109997Y-66038500D01*
X142055687Y-66044338D01*
X142004181Y-66055543D01*
X142004172Y-66055546D01*
X141977807Y-66062779D01*
X141977796Y-66062783D01*
X141891181Y-66112105D01*
X141891173Y-66112111D01*
X141838371Y-66157863D01*
X141806743Y-66190640D01*
X141760534Y-66278977D01*
X141760533Y-66278977D01*
X141740851Y-66346009D01*
X141740848Y-66346021D01*
X141730500Y-66417998D01*
X141730500Y-70499811D01*
X141710815Y-70566850D01*
X141658011Y-70612605D01*
X141610926Y-70623732D01*
X134984447Y-70860392D01*
X134984436Y-70860393D01*
X134934820Y-70867076D01*
X134934801Y-70867080D01*
X134887727Y-70878205D01*
X134874496Y-70881962D01*
X134865802Y-70884431D01*
X134847560Y-70894819D01*
X134779174Y-70933760D01*
X134779173Y-70933761D01*
X134726371Y-70979513D01*
X134694743Y-71012290D01*
X134648534Y-71100627D01*
X134648533Y-71100627D01*
X134628851Y-71167659D01*
X134628848Y-71167671D01*
X134618500Y-71239648D01*
X134618500Y-72774002D01*
X134624338Y-72828312D01*
X134635543Y-72879818D01*
X134635546Y-72879827D01*
X134642779Y-72906192D01*
X134642783Y-72906203D01*
X134692105Y-72992818D01*
X134692110Y-72992825D01*
X134692112Y-72992828D01*
X134718580Y-73023374D01*
X134737863Y-73045628D01*
X134737866Y-73045631D01*
X134737867Y-73045632D01*
X134770641Y-73077257D01*
X134858976Y-73123465D01*
X134858977Y-73123465D01*
X134858977Y-73123466D01*
X134909105Y-73138184D01*
X134926015Y-73143150D01*
X134926019Y-73143150D01*
X134926021Y-73143151D01*
X134937652Y-73144823D01*
X134998000Y-73153500D01*
X142114500Y-73153500D01*
X142181539Y-73173185D01*
X142227294Y-73225989D01*
X142238500Y-73277500D01*
X142238500Y-75181100D01*
X142218815Y-75248139D01*
X142166011Y-75293894D01*
X142114500Y-75305100D01*
X137950578Y-75305100D01*
X137756173Y-75335890D01*
X137568969Y-75396717D01*
X137393594Y-75486076D01*
X137234355Y-75601771D01*
X137105139Y-75730986D01*
X137043815Y-75764470D01*
X136974124Y-75759485D01*
X136948572Y-75746409D01*
X136946716Y-75745169D01*
X136946709Y-75745165D01*
X136764639Y-75669750D01*
X136764629Y-75669747D01*
X136571343Y-75631300D01*
X136571341Y-75631300D01*
X136374259Y-75631300D01*
X136374257Y-75631300D01*
X136180970Y-75669747D01*
X136180960Y-75669750D01*
X135998892Y-75745164D01*
X135998879Y-75745171D01*
X135835018Y-75854660D01*
X135835014Y-75854663D01*
X135695663Y-75994014D01*
X135695660Y-75994018D01*
X135586171Y-76157879D01*
X135586164Y-76157892D01*
X135510750Y-76339960D01*
X135510747Y-76339970D01*
X135472300Y-76533256D01*
X135472300Y-76533259D01*
X135472300Y-76730341D01*
X135472300Y-76730343D01*
X135472299Y-76730343D01*
X135510747Y-76923629D01*
X135510747Y-76923630D01*
X135569383Y-77065192D01*
X135576851Y-77134662D01*
X135545575Y-77197141D01*
X135536025Y-77206356D01*
X135488372Y-77247647D01*
X135456743Y-77280425D01*
X135410534Y-77368762D01*
X135410533Y-77368762D01*
X135390851Y-77435794D01*
X135390848Y-77435806D01*
X135380500Y-77507783D01*
X135380500Y-81156002D01*
X135386338Y-81210312D01*
X135397543Y-81261818D01*
X135397546Y-81261827D01*
X135404779Y-81288192D01*
X135404783Y-81288203D01*
X135454105Y-81374818D01*
X135454110Y-81374825D01*
X135454112Y-81374828D01*
X135480580Y-81405374D01*
X135499863Y-81427628D01*
X135499866Y-81427631D01*
X135499867Y-81427632D01*
X135532641Y-81459257D01*
X135620976Y-81505465D01*
X135620977Y-81505465D01*
X135620977Y-81505466D01*
X135665218Y-81518456D01*
X135688015Y-81525150D01*
X135688019Y-81525150D01*
X135688021Y-81525151D01*
X135699652Y-81526823D01*
X135760000Y-81535500D01*
X135760001Y-81535500D01*
X140084000Y-81535500D01*
X140138313Y-81529661D01*
X140189824Y-81518455D01*
X140216198Y-81511219D01*
X140245074Y-81494775D01*
X140302818Y-81461894D01*
X140302819Y-81461892D01*
X140302828Y-81461888D01*
X140355632Y-81416133D01*
X140387257Y-81383359D01*
X140433465Y-81295024D01*
X140435470Y-81288198D01*
X140443215Y-81261818D01*
X140453150Y-81227985D01*
X140463500Y-81156000D01*
X140463500Y-80156716D01*
X140483185Y-80089677D01*
X140495747Y-80073305D01*
X142212045Y-78185379D01*
X142214068Y-78183127D01*
X142216028Y-78180919D01*
X142257361Y-78117441D01*
X142286386Y-78053885D01*
X142301539Y-78010932D01*
X142306227Y-77923464D01*
X142329471Y-77857574D01*
X142384647Y-77814711D01*
X142430049Y-77806100D01*
X147360264Y-77806100D01*
X147427303Y-77825785D01*
X147447945Y-77842419D01*
X149150181Y-79544655D01*
X149183666Y-79605978D01*
X149186500Y-79632336D01*
X149186500Y-90409861D01*
X149166815Y-90476900D01*
X149114011Y-90522655D01*
X149044853Y-90532599D01*
X149006205Y-90520346D01*
X148854217Y-90442904D01*
X148652129Y-90377242D01*
X148442246Y-90344000D01*
X148229754Y-90344000D01*
X148019872Y-90377242D01*
X148019869Y-90377242D01*
X147817781Y-90442905D01*
X147817780Y-90442905D01*
X147707023Y-90499337D01*
X148401686Y-91194000D01*
X148270174Y-91194000D01*
X148143007Y-91228075D01*
X148028993Y-91293901D01*
X147935901Y-91386993D01*
X147870075Y-91501007D01*
X147836000Y-91628174D01*
X147836000Y-91759826D01*
X147870075Y-91886993D01*
X147935901Y-92001007D01*
X148028993Y-92094099D01*
X148143007Y-92159925D01*
X148270174Y-92194000D01*
X148401684Y-92194000D01*
X147707024Y-92888660D01*
X147817782Y-92945095D01*
X148019870Y-93010757D01*
X148229754Y-93044000D01*
X148442246Y-93044000D01*
X148652127Y-93010757D01*
X148652130Y-93010757D01*
X148854217Y-92945095D01*
X149006205Y-92867653D01*
X149074874Y-92854757D01*
X149139614Y-92881033D01*
X149179872Y-92938139D01*
X149186500Y-92978138D01*
X149186500Y-104832664D01*
X149166815Y-104899703D01*
X149150181Y-104920345D01*
X140996345Y-113074181D01*
X140935022Y-113107666D01*
X140908664Y-113110500D01*
X129148336Y-113110500D01*
X129081297Y-113090815D01*
X129060655Y-113074181D01*
X128494174Y-112507700D01*
X128460689Y-112446377D01*
X128465673Y-112376685D01*
X128471975Y-112362554D01*
X128495465Y-112317649D01*
X128515150Y-112250610D01*
X128525500Y-112178625D01*
X128525500Y-110055920D01*
X135139499Y-110055920D01*
X135168340Y-110200907D01*
X135168343Y-110200917D01*
X135195448Y-110266354D01*
X135224916Y-110337495D01*
X135254987Y-110382500D01*
X135307048Y-110460416D01*
X135411584Y-110564952D01*
X135485270Y-110614186D01*
X135534505Y-110647084D01*
X135534506Y-110647084D01*
X135534507Y-110647085D01*
X135534509Y-110647086D01*
X135671082Y-110703656D01*
X135671087Y-110703658D01*
X135671091Y-110703658D01*
X135671092Y-110703659D01*
X135816079Y-110732500D01*
X135816082Y-110732500D01*
X135963920Y-110732500D01*
X136082027Y-110709006D01*
X136108913Y-110703658D01*
X136245495Y-110647084D01*
X136294729Y-110614186D01*
X136294734Y-110614183D01*
X136319071Y-110597921D01*
X136368416Y-110564952D01*
X137996951Y-108936416D01*
X138079084Y-108813495D01*
X138135658Y-108676913D01*
X138135762Y-108676392D01*
X138164500Y-108531918D01*
X138164500Y-105844082D01*
X138164500Y-105844079D01*
X138135659Y-105699092D01*
X138135658Y-105699091D01*
X138135658Y-105699087D01*
X138135656Y-105699082D01*
X138079087Y-105562511D01*
X138079080Y-105562498D01*
X137996951Y-105439584D01*
X137996948Y-105439580D01*
X137892419Y-105335051D01*
X137892415Y-105335048D01*
X137769501Y-105252919D01*
X137769488Y-105252912D01*
X137632917Y-105196343D01*
X137632907Y-105196340D01*
X137487920Y-105167500D01*
X137487918Y-105167500D01*
X137340082Y-105167500D01*
X137340080Y-105167500D01*
X137195092Y-105196340D01*
X137195082Y-105196343D01*
X137058511Y-105252912D01*
X137058498Y-105252919D01*
X136935584Y-105335048D01*
X136935580Y-105335051D01*
X136831051Y-105439580D01*
X136831048Y-105439584D01*
X136748919Y-105562498D01*
X136748912Y-105562511D01*
X136692343Y-105699082D01*
X136692340Y-105699092D01*
X136663500Y-105844079D01*
X136663500Y-108095770D01*
X136643815Y-108162809D01*
X136627181Y-108183451D01*
X135307047Y-109503584D01*
X135307043Y-109503589D01*
X135262488Y-109570274D01*
X135262487Y-109570276D01*
X135224919Y-109626499D01*
X135224912Y-109626511D01*
X135168343Y-109763082D01*
X135168340Y-109763092D01*
X135139500Y-109908079D01*
X135139500Y-109908082D01*
X135139500Y-110055918D01*
X135139500Y-110055920D01*
X135139499Y-110055920D01*
X128525500Y-110055920D01*
X128525500Y-102232000D01*
X128519661Y-102177687D01*
X128508455Y-102126176D01*
X128501219Y-102099802D01*
X128501216Y-102099796D01*
X128451894Y-102013181D01*
X128451890Y-102013176D01*
X128451888Y-102013172D01*
X128406133Y-101960368D01*
X128373359Y-101928743D01*
X128285024Y-101882535D01*
X128285023Y-101882534D01*
X128285022Y-101882534D01*
X128285022Y-101882533D01*
X128217990Y-101862851D01*
X128217978Y-101862848D01*
X128146001Y-101852500D01*
X128146000Y-101852500D01*
X124331500Y-101852500D01*
X124264461Y-101832815D01*
X124218706Y-101780011D01*
X124207500Y-101728500D01*
X124207500Y-99310920D01*
X133284499Y-99310920D01*
X133313340Y-99455907D01*
X133313343Y-99455917D01*
X133369914Y-99592493D01*
X133369915Y-99592495D01*
X133387991Y-99619547D01*
X133452049Y-99715418D01*
X133452052Y-99715421D01*
X138892610Y-105155978D01*
X138926095Y-105217301D01*
X138927432Y-105225788D01*
X138966547Y-105422429D01*
X138966550Y-105422439D01*
X139041964Y-105604507D01*
X139041971Y-105604520D01*
X139151460Y-105768381D01*
X139151463Y-105768385D01*
X139290814Y-105907736D01*
X139290818Y-105907739D01*
X139454679Y-106017228D01*
X139454692Y-106017235D01*
X139636760Y-106092649D01*
X139636765Y-106092651D01*
X139636769Y-106092651D01*
X139636770Y-106092652D01*
X139836034Y-106132289D01*
X139835675Y-106134091D01*
X139892477Y-106157025D01*
X139903220Y-106166589D01*
X139962578Y-106225947D01*
X139962581Y-106225949D01*
X139962584Y-106225952D01*
X140085506Y-106308084D01*
X140222087Y-106364658D01*
X140222091Y-106364658D01*
X140222092Y-106364659D01*
X140367080Y-106393500D01*
X140476390Y-106393500D01*
X140543429Y-106413185D01*
X140550358Y-106418228D01*
X140717079Y-106529628D01*
X140717092Y-106529635D01*
X140899160Y-106605049D01*
X140899165Y-106605051D01*
X140899169Y-106605051D01*
X140899170Y-106605052D01*
X141092456Y-106643500D01*
X141092459Y-106643500D01*
X141289543Y-106643500D01*
X141419582Y-106617632D01*
X141482835Y-106605051D01*
X141664914Y-106529632D01*
X141828782Y-106420139D01*
X141968139Y-106280782D01*
X142077632Y-106116914D01*
X142153051Y-105934835D01*
X142171104Y-105844079D01*
X142191500Y-105741543D01*
X142191500Y-105544456D01*
X142153052Y-105351170D01*
X142153051Y-105351169D01*
X142153051Y-105351165D01*
X142153049Y-105351160D01*
X142077635Y-105169092D01*
X142077628Y-105169079D01*
X141968139Y-105005218D01*
X141968136Y-105005214D01*
X141828785Y-104865863D01*
X141828781Y-104865860D01*
X141664920Y-104756371D01*
X141664907Y-104756364D01*
X141482839Y-104680950D01*
X141482829Y-104680947D01*
X141289543Y-104642500D01*
X141289541Y-104642500D01*
X141092459Y-104642500D01*
X141092454Y-104642500D01*
X140920650Y-104676674D01*
X140851058Y-104670447D01*
X140795881Y-104627584D01*
X140793357Y-104623947D01*
X140705742Y-104492822D01*
X140705736Y-104492814D01*
X140566385Y-104353463D01*
X140566381Y-104353460D01*
X140402520Y-104243971D01*
X140402507Y-104243964D01*
X140220439Y-104168550D01*
X140220429Y-104168547D01*
X140021166Y-104128911D01*
X140021523Y-104127114D01*
X139964700Y-104104157D01*
X139953978Y-104094610D01*
X134821819Y-98962451D01*
X134788334Y-98901128D01*
X134785500Y-98874770D01*
X134785500Y-92918500D01*
X134794262Y-92888660D01*
X145167023Y-92888660D01*
X145277782Y-92945095D01*
X145479870Y-93010757D01*
X145689754Y-93044000D01*
X145902246Y-93044000D01*
X146112127Y-93010757D01*
X146112130Y-93010757D01*
X146314222Y-92945092D01*
X146424975Y-92888660D01*
X145796001Y-92259686D01*
X145796000Y-92259686D01*
X145167023Y-92888660D01*
X134794262Y-92888660D01*
X134805185Y-92851461D01*
X134857989Y-92805706D01*
X134909500Y-92794500D01*
X136510676Y-92794500D01*
X136510677Y-92794499D01*
X136583740Y-92779966D01*
X136666601Y-92724601D01*
X136721966Y-92641740D01*
X136736500Y-92568674D01*
X136736500Y-91607389D01*
X137075500Y-91607389D01*
X137075500Y-91780610D01*
X137092692Y-91889161D01*
X137102598Y-91951701D01*
X137156127Y-92116445D01*
X137234768Y-92270788D01*
X137336586Y-92410928D01*
X137459072Y-92533414D01*
X137599212Y-92635232D01*
X137753555Y-92713873D01*
X137918299Y-92767402D01*
X138089389Y-92794500D01*
X138089390Y-92794500D01*
X138262610Y-92794500D01*
X138262611Y-92794500D01*
X138433701Y-92767402D01*
X138598445Y-92713873D01*
X138752788Y-92635232D01*
X138892928Y-92533414D01*
X139015414Y-92410928D01*
X139117232Y-92270788D01*
X139195873Y-92116445D01*
X139249402Y-91951701D01*
X139276500Y-91780611D01*
X139276500Y-91607389D01*
X139615500Y-91607389D01*
X139615500Y-91780610D01*
X139632692Y-91889161D01*
X139642598Y-91951701D01*
X139696127Y-92116445D01*
X139774768Y-92270788D01*
X139876586Y-92410928D01*
X139999072Y-92533414D01*
X140139212Y-92635232D01*
X140293555Y-92713873D01*
X140458299Y-92767402D01*
X140629389Y-92794500D01*
X140629390Y-92794500D01*
X140802610Y-92794500D01*
X140802611Y-92794500D01*
X140973701Y-92767402D01*
X141138445Y-92713873D01*
X141292788Y-92635232D01*
X141432928Y-92533414D01*
X141555414Y-92410928D01*
X141657232Y-92270788D01*
X141735873Y-92116445D01*
X141789402Y-91951701D01*
X141816500Y-91780611D01*
X141816500Y-91607389D01*
X142155500Y-91607389D01*
X142155500Y-91780610D01*
X142172692Y-91889161D01*
X142182598Y-91951701D01*
X142236127Y-92116445D01*
X142314768Y-92270788D01*
X142416586Y-92410928D01*
X142539072Y-92533414D01*
X142679212Y-92635232D01*
X142833555Y-92713873D01*
X142998299Y-92767402D01*
X143169389Y-92794500D01*
X143169390Y-92794500D01*
X143342610Y-92794500D01*
X143342611Y-92794500D01*
X143513701Y-92767402D01*
X143678445Y-92713873D01*
X143832788Y-92635232D01*
X143972928Y-92533414D01*
X144095414Y-92410928D01*
X144197232Y-92270788D01*
X144275873Y-92116445D01*
X144276896Y-92113294D01*
X144277610Y-92112250D01*
X144277734Y-92111952D01*
X144277796Y-92111977D01*
X144316327Y-92055618D01*
X144380683Y-92028415D01*
X144449530Y-92040323D01*
X144501011Y-92087562D01*
X144512760Y-92113287D01*
X144544904Y-92212217D01*
X144544906Y-92212220D01*
X144601338Y-92322975D01*
X145230314Y-91694000D01*
X145164488Y-91628174D01*
X145296000Y-91628174D01*
X145296000Y-91759826D01*
X145330075Y-91886993D01*
X145395901Y-92001007D01*
X145488993Y-92094099D01*
X145603007Y-92159925D01*
X145730174Y-92194000D01*
X145861826Y-92194000D01*
X145988993Y-92159925D01*
X146103007Y-92094099D01*
X146196099Y-92001007D01*
X146261925Y-91886993D01*
X146296000Y-91759826D01*
X146296000Y-91693999D01*
X146361686Y-91693999D01*
X146361686Y-91694000D01*
X146990660Y-92322975D01*
X147046603Y-92314115D01*
X147085399Y-92314115D01*
X147141338Y-92322975D01*
X147770314Y-91694000D01*
X147141337Y-91065023D01*
X147085398Y-91073883D01*
X147046604Y-91073884D01*
X146990660Y-91065023D01*
X146361686Y-91693999D01*
X146296000Y-91693999D01*
X146296000Y-91628174D01*
X146261925Y-91501007D01*
X146196099Y-91386993D01*
X146103007Y-91293901D01*
X145988993Y-91228075D01*
X145861826Y-91194000D01*
X145730174Y-91194000D01*
X145603007Y-91228075D01*
X145488993Y-91293901D01*
X145395901Y-91386993D01*
X145330075Y-91501007D01*
X145296000Y-91628174D01*
X145164488Y-91628174D01*
X144601337Y-91065023D01*
X144544906Y-91175779D01*
X144512760Y-91274713D01*
X144473322Y-91332388D01*
X144408963Y-91359586D01*
X144340117Y-91347671D01*
X144288641Y-91300427D01*
X144276898Y-91274712D01*
X144275873Y-91271555D01*
X144197232Y-91117212D01*
X144095414Y-90977072D01*
X143972928Y-90854586D01*
X143832788Y-90752768D01*
X143678445Y-90674127D01*
X143513701Y-90620598D01*
X143513699Y-90620597D01*
X143513698Y-90620597D01*
X143382271Y-90599781D01*
X143342611Y-90593500D01*
X143169389Y-90593500D01*
X143129728Y-90599781D01*
X142998302Y-90620597D01*
X142833552Y-90674128D01*
X142679211Y-90752768D01*
X142628655Y-90789500D01*
X142539072Y-90854586D01*
X142539070Y-90854588D01*
X142539069Y-90854588D01*
X142416588Y-90977069D01*
X142416588Y-90977070D01*
X142416586Y-90977072D01*
X142412245Y-90983047D01*
X142314768Y-91117211D01*
X142236128Y-91271552D01*
X142182597Y-91436302D01*
X142155500Y-91607389D01*
X141816500Y-91607389D01*
X141789402Y-91436299D01*
X141735873Y-91271555D01*
X141657232Y-91117212D01*
X141555414Y-90977072D01*
X141432928Y-90854586D01*
X141292788Y-90752768D01*
X141138445Y-90674127D01*
X140973701Y-90620598D01*
X140973699Y-90620597D01*
X140973698Y-90620597D01*
X140842271Y-90599781D01*
X140802611Y-90593500D01*
X140629389Y-90593500D01*
X140589728Y-90599781D01*
X140458302Y-90620597D01*
X140293552Y-90674128D01*
X140139211Y-90752768D01*
X140088655Y-90789500D01*
X139999072Y-90854586D01*
X139999070Y-90854588D01*
X139999069Y-90854588D01*
X139876588Y-90977069D01*
X139876588Y-90977070D01*
X139876586Y-90977072D01*
X139872245Y-90983047D01*
X139774768Y-91117211D01*
X139696128Y-91271552D01*
X139642597Y-91436302D01*
X139615500Y-91607389D01*
X139276500Y-91607389D01*
X139249402Y-91436299D01*
X139195873Y-91271555D01*
X139117232Y-91117212D01*
X139015414Y-90977072D01*
X138892928Y-90854586D01*
X138752788Y-90752768D01*
X138598445Y-90674127D01*
X138433701Y-90620598D01*
X138433699Y-90620597D01*
X138433698Y-90620597D01*
X138302271Y-90599781D01*
X138262611Y-90593500D01*
X138089389Y-90593500D01*
X138049728Y-90599781D01*
X137918302Y-90620597D01*
X137753552Y-90674128D01*
X137599211Y-90752768D01*
X137548655Y-90789500D01*
X137459072Y-90854586D01*
X137459070Y-90854588D01*
X137459069Y-90854588D01*
X137336588Y-90977069D01*
X137336588Y-90977070D01*
X137336586Y-90977072D01*
X137332245Y-90983047D01*
X137234768Y-91117211D01*
X137156128Y-91271552D01*
X137102597Y-91436302D01*
X137075500Y-91607389D01*
X136736500Y-91607389D01*
X136736500Y-90819326D01*
X136736500Y-90819323D01*
X136736499Y-90819321D01*
X136721967Y-90746264D01*
X136721966Y-90746260D01*
X136710588Y-90729231D01*
X136666601Y-90663399D01*
X136583740Y-90608034D01*
X136583739Y-90608033D01*
X136583735Y-90608032D01*
X136510677Y-90593500D01*
X136510674Y-90593500D01*
X134909500Y-90593500D01*
X134842461Y-90573815D01*
X134796706Y-90521011D01*
X134791991Y-90499337D01*
X145167023Y-90499337D01*
X145796000Y-91128314D01*
X145796001Y-91128314D01*
X146424975Y-90499338D01*
X146314220Y-90442906D01*
X146314217Y-90442904D01*
X146112128Y-90377242D01*
X145902246Y-90344000D01*
X145689754Y-90344000D01*
X145479872Y-90377242D01*
X145479869Y-90377242D01*
X145277781Y-90442905D01*
X145277780Y-90442905D01*
X145167023Y-90499337D01*
X134791991Y-90499337D01*
X134785500Y-90469500D01*
X134785500Y-85873229D01*
X134805185Y-85806190D01*
X134821819Y-85785548D01*
X134955243Y-85652124D01*
X135101136Y-85506230D01*
X135162457Y-85472747D01*
X135164571Y-85472306D01*
X135182913Y-85468658D01*
X135319495Y-85412084D01*
X135442416Y-85329951D01*
X135546951Y-85225416D01*
X135629084Y-85102495D01*
X135685658Y-84965913D01*
X135714500Y-84820918D01*
X135714500Y-84673082D01*
X135714500Y-84666987D01*
X135714852Y-84666987D01*
X135714852Y-84662013D01*
X135714500Y-84662013D01*
X135714500Y-83873079D01*
X135685659Y-83728092D01*
X135685658Y-83728091D01*
X135685658Y-83728087D01*
X135630304Y-83594452D01*
X135622836Y-83524983D01*
X135630305Y-83499547D01*
X135631273Y-83497211D01*
X135685658Y-83365913D01*
X135711781Y-83234588D01*
X135714500Y-83220920D01*
X135714500Y-83073079D01*
X135685659Y-82928092D01*
X135685658Y-82928091D01*
X135685658Y-82928087D01*
X135685656Y-82928082D01*
X135629087Y-82791511D01*
X135629080Y-82791498D01*
X135546951Y-82668584D01*
X135546948Y-82668580D01*
X135442419Y-82564051D01*
X135442415Y-82564048D01*
X135319501Y-82481919D01*
X135319488Y-82481912D01*
X135182917Y-82425343D01*
X135182907Y-82425340D01*
X135037920Y-82396500D01*
X135037918Y-82396500D01*
X134890082Y-82396500D01*
X134890080Y-82396500D01*
X134745092Y-82425340D01*
X134745082Y-82425343D01*
X134608511Y-82481912D01*
X134608498Y-82481919D01*
X134485584Y-82564048D01*
X134485580Y-82564051D01*
X134381051Y-82668580D01*
X134381048Y-82668584D01*
X134298919Y-82791498D01*
X134298912Y-82791511D01*
X134242343Y-82928082D01*
X134242340Y-82928092D01*
X134213500Y-83073079D01*
X134213500Y-83073082D01*
X134213500Y-83220918D01*
X134213500Y-83220920D01*
X134213499Y-83220920D01*
X134242340Y-83365907D01*
X134242343Y-83365917D01*
X134297694Y-83499548D01*
X134305163Y-83569018D01*
X134297694Y-83594452D01*
X134242343Y-83728082D01*
X134242340Y-83728092D01*
X134213500Y-83873079D01*
X134213500Y-84219770D01*
X134193815Y-84286809D01*
X134177181Y-84307451D01*
X133452049Y-85032582D01*
X133452047Y-85032585D01*
X133433450Y-85060416D01*
X133433451Y-85060417D01*
X133369914Y-85155508D01*
X133313343Y-85292082D01*
X133313340Y-85292092D01*
X133284500Y-85437079D01*
X133284500Y-85437082D01*
X133284500Y-99310918D01*
X133284500Y-99310920D01*
X133284499Y-99310920D01*
X124207500Y-99310920D01*
X124207500Y-98081577D01*
X124207489Y-98079217D01*
X124207472Y-98077261D01*
X124207472Y-98077253D01*
X124195888Y-98003369D01*
X124175080Y-97936670D01*
X124143763Y-97871035D01*
X123185400Y-96433491D01*
X123158063Y-96400431D01*
X123151955Y-96393044D01*
X123151954Y-96393043D01*
X123151950Y-96393038D01*
X123115815Y-96357506D01*
X123115806Y-96357497D01*
X123096998Y-96340745D01*
X123096993Y-96340741D01*
X123008660Y-96294534D01*
X123008659Y-96294533D01*
X122941627Y-96274851D01*
X122941615Y-96274848D01*
X122869638Y-96264500D01*
X122869637Y-96264500D01*
X122430113Y-96264500D01*
X122409902Y-96258565D01*
X122388866Y-96257439D01*
X122377049Y-96248918D01*
X122363074Y-96244815D01*
X122349280Y-96228896D01*
X122332192Y-96216575D01*
X122326857Y-96203019D01*
X122317319Y-96192011D01*
X122314321Y-96171161D01*
X122306607Y-96151558D01*
X122307935Y-96126749D01*
X122307375Y-96122853D01*
X122308494Y-96116315D01*
X122310838Y-96104529D01*
X122343220Y-96042620D01*
X122344720Y-96041092D01*
X124249104Y-94136707D01*
X124249109Y-94136704D01*
X124259312Y-94126500D01*
X124259314Y-94126500D01*
X124352500Y-94033314D01*
X124418392Y-93919186D01*
X124452500Y-93791892D01*
X124452500Y-91899432D01*
X124472185Y-91832393D01*
X124473398Y-91830541D01*
X124528461Y-91748133D01*
X124528461Y-91748132D01*
X124528465Y-91748127D01*
X124577501Y-91629744D01*
X124590526Y-91564266D01*
X124602500Y-91504071D01*
X124602500Y-91375928D01*
X124577502Y-91250261D01*
X124577501Y-91250260D01*
X124577501Y-91250256D01*
X124528465Y-91131873D01*
X124528464Y-91131872D01*
X124528461Y-91131866D01*
X124457276Y-91025331D01*
X124457273Y-91025327D01*
X124366672Y-90934726D01*
X124366668Y-90934723D01*
X124260133Y-90863538D01*
X124260124Y-90863533D01*
X124141744Y-90814499D01*
X124141738Y-90814497D01*
X124016071Y-90789500D01*
X124016069Y-90789500D01*
X123887931Y-90789500D01*
X123887929Y-90789500D01*
X123762261Y-90814497D01*
X123762255Y-90814499D01*
X123643875Y-90863533D01*
X123643866Y-90863538D01*
X123537331Y-90934723D01*
X123537327Y-90934726D01*
X123446726Y-91025327D01*
X123446723Y-91025331D01*
X123375538Y-91131866D01*
X123375533Y-91131875D01*
X123326499Y-91250255D01*
X123326497Y-91250261D01*
X123301500Y-91375928D01*
X123301500Y-91375931D01*
X123301500Y-91504069D01*
X123301500Y-91504071D01*
X123301499Y-91504071D01*
X123326497Y-91629738D01*
X123326499Y-91629744D01*
X123375533Y-91748124D01*
X123375538Y-91748133D01*
X123430602Y-91830541D01*
X123451480Y-91897218D01*
X123451500Y-91899432D01*
X123451500Y-93467324D01*
X123431815Y-93534363D01*
X123415181Y-93555005D01*
X121636961Y-95333224D01*
X121575638Y-95366709D01*
X121573473Y-95367160D01*
X121476260Y-95386497D01*
X121476255Y-95386499D01*
X121357875Y-95435533D01*
X121357866Y-95435538D01*
X121251331Y-95506723D01*
X121251327Y-95506726D01*
X121160726Y-95597327D01*
X121160723Y-95597331D01*
X121089538Y-95703866D01*
X121089533Y-95703875D01*
X121040499Y-95822255D01*
X121040497Y-95822261D01*
X121018332Y-95933691D01*
X121004102Y-95971499D01*
X120945609Y-96072810D01*
X120945609Y-96072811D01*
X120945608Y-96072813D01*
X120945608Y-96072814D01*
X120925328Y-96148500D01*
X120911500Y-96200108D01*
X120911500Y-96314567D01*
X120891815Y-96381606D01*
X120890602Y-96383457D01*
X120835541Y-96465861D01*
X120835533Y-96465875D01*
X120786499Y-96584255D01*
X120786497Y-96584261D01*
X120761500Y-96709928D01*
X120761500Y-96709931D01*
X120761500Y-96838069D01*
X120761500Y-96838071D01*
X120761499Y-96838071D01*
X120786497Y-96963738D01*
X120786499Y-96963744D01*
X120835533Y-97082124D01*
X120835538Y-97082132D01*
X120881602Y-97151071D01*
X120902480Y-97217748D01*
X120902500Y-97219962D01*
X120902500Y-102490500D01*
X120882815Y-102557539D01*
X120830011Y-102603294D01*
X120778500Y-102614500D01*
X118489500Y-102614500D01*
X118422461Y-102594815D01*
X118376706Y-102542011D01*
X118365500Y-102490500D01*
X118365500Y-93596000D01*
X118359661Y-93541687D01*
X118348455Y-93490176D01*
X118341219Y-93463802D01*
X118323927Y-93433435D01*
X118291894Y-93377181D01*
X118291890Y-93377176D01*
X118291888Y-93377172D01*
X118256097Y-93335867D01*
X118246136Y-93324371D01*
X118213359Y-93292743D01*
X118210385Y-93291187D01*
X118207969Y-93288856D01*
X118206169Y-93287558D01*
X118206355Y-93287299D01*
X118160107Y-93242674D01*
X118144039Y-93174677D01*
X118167283Y-93108787D01*
X118180173Y-93093639D01*
X119676064Y-91597749D01*
X119737385Y-91564266D01*
X119739552Y-91563815D01*
X119740028Y-91563720D01*
X119836768Y-91544477D01*
X119955151Y-91495441D01*
X120061693Y-91424252D01*
X120152300Y-91333645D01*
X120223489Y-91227103D01*
X120272525Y-91108720D01*
X120289113Y-91025331D01*
X120297524Y-90983047D01*
X120297524Y-90854904D01*
X120272526Y-90729237D01*
X120272525Y-90729236D01*
X120272525Y-90729232D01*
X120227527Y-90620597D01*
X120223490Y-90610851D01*
X120223485Y-90610842D01*
X120152300Y-90504307D01*
X120152297Y-90504303D01*
X120061696Y-90413702D01*
X120061692Y-90413699D01*
X119955157Y-90342514D01*
X119955148Y-90342509D01*
X119836768Y-90293475D01*
X119836762Y-90293473D01*
X119711095Y-90268476D01*
X119711093Y-90268476D01*
X119582955Y-90268476D01*
X119582953Y-90268476D01*
X119457285Y-90293473D01*
X119457279Y-90293475D01*
X119338899Y-90342509D01*
X119338890Y-90342514D01*
X119232355Y-90413699D01*
X119232351Y-90413702D01*
X119141750Y-90504303D01*
X119141747Y-90504307D01*
X119070562Y-90610842D01*
X119070557Y-90610851D01*
X119021523Y-90729231D01*
X119021521Y-90729236D01*
X119002184Y-90826449D01*
X118969798Y-90888359D01*
X118968248Y-90889937D01*
X116527881Y-93330303D01*
X116466558Y-93363788D01*
X116396866Y-93358804D01*
X116349412Y-93325863D01*
X116348866Y-93326382D01*
X116346963Y-93324374D01*
X116314183Y-93292743D01*
X116225846Y-93246534D01*
X116225846Y-93246533D01*
X116158814Y-93226851D01*
X116158802Y-93226848D01*
X116086825Y-93216500D01*
X116086824Y-93216500D01*
X113662000Y-93216500D01*
X113661997Y-93216500D01*
X113607687Y-93222338D01*
X113556181Y-93233543D01*
X113556172Y-93233546D01*
X113529807Y-93240779D01*
X113529796Y-93240783D01*
X113443181Y-93290105D01*
X113443173Y-93290111D01*
X113390371Y-93335863D01*
X113358743Y-93368640D01*
X113312534Y-93456977D01*
X113312533Y-93456977D01*
X113292851Y-93524009D01*
X113292848Y-93524021D01*
X113282500Y-93595998D01*
X113282500Y-96020827D01*
X113282663Y-96029940D01*
X113282979Y-96038789D01*
X113282979Y-96038793D01*
X113292517Y-96086740D01*
X113298926Y-96118959D01*
X113311085Y-96151558D01*
X113321115Y-96178451D01*
X113323343Y-96184423D01*
X113342998Y-96225505D01*
X113399834Y-96288781D01*
X113401535Y-96290674D01*
X113431689Y-96353702D01*
X113422982Y-96423027D01*
X113396967Y-96461217D01*
X110931781Y-98926404D01*
X110870458Y-98959889D01*
X110800766Y-98954905D01*
X110744833Y-98913033D01*
X110720416Y-98847569D01*
X110720100Y-98838723D01*
X110720100Y-98799399D01*
X110720099Y-98799383D01*
X110717213Y-98761106D01*
X110717213Y-98761101D01*
X110716977Y-98759547D01*
X110711645Y-98724370D01*
X110711643Y-98724362D01*
X110711641Y-98724348D01*
X110703047Y-98686916D01*
X110497072Y-98023218D01*
X110491500Y-97986465D01*
X110491500Y-96644000D01*
X110485661Y-96589687D01*
X110474455Y-96538176D01*
X110467219Y-96511802D01*
X110448194Y-96478392D01*
X110417894Y-96425181D01*
X110417890Y-96425176D01*
X110417888Y-96425172D01*
X110382094Y-96383864D01*
X110372136Y-96372371D01*
X110339359Y-96340743D01*
X110251022Y-96294534D01*
X110251022Y-96294533D01*
X110183990Y-96274851D01*
X110183978Y-96274848D01*
X110112001Y-96264500D01*
X110112000Y-96264500D01*
X108328000Y-96264500D01*
X108327997Y-96264500D01*
X108273687Y-96270338D01*
X108222181Y-96281543D01*
X108222172Y-96281546D01*
X108195807Y-96288779D01*
X108195796Y-96288783D01*
X108109181Y-96338105D01*
X108109173Y-96338111D01*
X108056371Y-96383864D01*
X108037624Y-96403292D01*
X107976907Y-96437864D01*
X107907138Y-96434123D01*
X107854681Y-96398390D01*
X107832136Y-96372371D01*
X107799359Y-96340743D01*
X107711022Y-96294534D01*
X107711022Y-96294533D01*
X107643990Y-96274851D01*
X107643978Y-96274848D01*
X107572001Y-96264500D01*
X107572000Y-96264500D01*
X101470000Y-96264500D01*
X101469997Y-96264500D01*
X101415687Y-96270338D01*
X101364181Y-96281543D01*
X101364172Y-96281546D01*
X101337807Y-96288779D01*
X101337796Y-96288783D01*
X101251181Y-96338105D01*
X101251173Y-96338111D01*
X101198371Y-96383863D01*
X101166743Y-96416640D01*
X101120534Y-96504977D01*
X101120533Y-96504977D01*
X101100851Y-96572009D01*
X101100848Y-96572021D01*
X101090500Y-96643998D01*
X101090500Y-100707789D01*
X101070815Y-100774828D01*
X101064380Y-100783918D01*
X99480272Y-102820629D01*
X99423575Y-102861461D01*
X99382392Y-102868500D01*
X98169500Y-102868500D01*
X98102461Y-102848815D01*
X98056706Y-102796011D01*
X98045500Y-102744500D01*
X98045500Y-96825360D01*
X98045345Y-96822486D01*
X98044036Y-96798048D01*
X98041202Y-96771690D01*
X98011413Y-96676556D01*
X97993634Y-96643997D01*
X97977931Y-96615238D01*
X97977926Y-96615230D01*
X97934350Y-96557019D01*
X97934349Y-96557018D01*
X97934347Y-96557015D01*
X97934342Y-96557010D01*
X97934334Y-96557001D01*
X97498998Y-96121666D01*
X97498985Y-96121653D01*
X97478635Y-96103374D01*
X97478629Y-96103369D01*
X97478620Y-96103361D01*
X97457999Y-96086744D01*
X97457996Y-96086742D01*
X97457993Y-96086740D01*
X97369662Y-96040535D01*
X97369659Y-96040534D01*
X97302624Y-96020850D01*
X97302616Y-96020848D01*
X97230639Y-96010500D01*
X97230638Y-96010500D01*
X96871480Y-96010500D01*
X96804441Y-95990815D01*
X96758686Y-95938011D01*
X96748742Y-95868853D01*
X96751037Y-95857013D01*
X96753290Y-95847808D01*
X96764501Y-95820744D01*
X96784370Y-95720858D01*
X96785013Y-95718232D01*
X96801244Y-95690253D01*
X96816224Y-95661617D01*
X96817719Y-95660094D01*
X99206500Y-93271314D01*
X99272392Y-93157186D01*
X99306500Y-93029892D01*
X99306500Y-92898107D01*
X99306500Y-92356632D01*
X99326185Y-92289593D01*
X99327398Y-92287741D01*
X99382461Y-92205333D01*
X99382461Y-92205332D01*
X99382465Y-92205327D01*
X99431501Y-92086944D01*
X99440775Y-92040323D01*
X99456500Y-91961271D01*
X99456500Y-91833128D01*
X99431502Y-91707461D01*
X99431501Y-91707460D01*
X99431501Y-91707456D01*
X99392976Y-91614450D01*
X99392217Y-91607389D01*
X109135500Y-91607389D01*
X109135500Y-91780610D01*
X109152692Y-91889161D01*
X109162598Y-91951701D01*
X109216127Y-92116445D01*
X109294768Y-92270788D01*
X109396586Y-92410928D01*
X109519072Y-92533414D01*
X109659212Y-92635232D01*
X109813555Y-92713873D01*
X109978299Y-92767402D01*
X110149389Y-92794500D01*
X110149390Y-92794500D01*
X110322610Y-92794500D01*
X110322611Y-92794500D01*
X110493701Y-92767402D01*
X110658445Y-92713873D01*
X110812788Y-92635232D01*
X110952928Y-92533414D01*
X111075414Y-92410928D01*
X111177232Y-92270788D01*
X111255873Y-92116445D01*
X111309402Y-91951701D01*
X111336500Y-91780611D01*
X111336500Y-91607389D01*
X111309402Y-91436299D01*
X111255873Y-91271555D01*
X111177232Y-91117212D01*
X111075414Y-90977072D01*
X110952928Y-90854586D01*
X110812788Y-90752768D01*
X110658445Y-90674127D01*
X110493701Y-90620598D01*
X110493699Y-90620597D01*
X110493698Y-90620597D01*
X110362271Y-90599781D01*
X110322611Y-90593500D01*
X110149389Y-90593500D01*
X110109728Y-90599781D01*
X109978302Y-90620597D01*
X109813552Y-90674128D01*
X109659211Y-90752768D01*
X109608655Y-90789500D01*
X109519072Y-90854586D01*
X109519070Y-90854588D01*
X109519069Y-90854588D01*
X109396588Y-90977069D01*
X109396588Y-90977070D01*
X109396586Y-90977072D01*
X109392245Y-90983047D01*
X109294768Y-91117211D01*
X109216128Y-91271552D01*
X109162597Y-91436302D01*
X109135500Y-91607389D01*
X99392217Y-91607389D01*
X99385508Y-91544985D01*
X99392977Y-91519548D01*
X99431501Y-91426544D01*
X99449980Y-91333648D01*
X99456500Y-91300871D01*
X99456500Y-91172728D01*
X99431502Y-91047061D01*
X99431501Y-91047060D01*
X99431501Y-91047056D01*
X99384972Y-90934726D01*
X99382466Y-90928675D01*
X99382461Y-90928666D01*
X99311276Y-90822131D01*
X99311273Y-90822127D01*
X99220672Y-90731526D01*
X99220668Y-90731523D01*
X99114133Y-90660338D01*
X99114124Y-90660333D01*
X98995744Y-90611299D01*
X98995738Y-90611297D01*
X98870071Y-90586300D01*
X98870069Y-90586300D01*
X98741931Y-90586300D01*
X98741929Y-90586300D01*
X98616261Y-90611297D01*
X98616255Y-90611299D01*
X98497875Y-90660333D01*
X98497866Y-90660338D01*
X98391331Y-90731523D01*
X98391327Y-90731526D01*
X98300726Y-90822127D01*
X98300723Y-90822131D01*
X98229538Y-90928666D01*
X98229533Y-90928675D01*
X98180499Y-91047055D01*
X98180497Y-91047061D01*
X98155500Y-91172728D01*
X98155500Y-91172731D01*
X98155500Y-91300869D01*
X98155500Y-91300871D01*
X98155499Y-91300871D01*
X98180497Y-91426538D01*
X98180500Y-91426548D01*
X98219022Y-91519548D01*
X98226491Y-91589017D01*
X98219022Y-91614452D01*
X98180500Y-91707451D01*
X98180497Y-91707461D01*
X98155500Y-91833128D01*
X98155500Y-91833131D01*
X98155500Y-91961269D01*
X98155500Y-91961271D01*
X98155499Y-91961271D01*
X98180497Y-92086938D01*
X98180499Y-92086944D01*
X98229533Y-92205324D01*
X98229538Y-92205333D01*
X98284602Y-92287741D01*
X98305480Y-92354418D01*
X98305500Y-92356632D01*
X98305500Y-92705324D01*
X98285815Y-92772363D01*
X98269181Y-92793005D01*
X96109961Y-94952224D01*
X96048638Y-94985709D01*
X96046473Y-94986160D01*
X95949260Y-95005497D01*
X95949255Y-95005499D01*
X95830875Y-95054533D01*
X95830866Y-95054538D01*
X95724331Y-95125723D01*
X95724327Y-95125726D01*
X95633726Y-95216327D01*
X95633723Y-95216331D01*
X95562538Y-95322866D01*
X95562533Y-95322875D01*
X95513499Y-95441255D01*
X95513497Y-95441260D01*
X95494160Y-95538473D01*
X95461774Y-95600383D01*
X95460225Y-95601961D01*
X95357499Y-95704687D01*
X95357498Y-95704689D01*
X95308464Y-95789615D01*
X95288761Y-95815292D01*
X95252727Y-95851327D01*
X95252723Y-95851332D01*
X95181538Y-95957867D01*
X95181533Y-95957875D01*
X95132499Y-96076255D01*
X95132497Y-96076261D01*
X95107500Y-96201928D01*
X95107500Y-96201931D01*
X95107500Y-96330069D01*
X95107500Y-96330071D01*
X95107499Y-96330071D01*
X95132497Y-96455738D01*
X95132499Y-96455744D01*
X95181533Y-96574124D01*
X95181538Y-96574132D01*
X95227602Y-96643071D01*
X95248480Y-96709748D01*
X95248500Y-96711962D01*
X95248500Y-102744500D01*
X95228815Y-102811539D01*
X95176011Y-102857294D01*
X95124500Y-102868500D01*
X93822500Y-102868500D01*
X93755461Y-102848815D01*
X93709706Y-102796011D01*
X93698500Y-102744500D01*
X93698500Y-99312504D01*
X93698499Y-99312490D01*
X93686048Y-99217920D01*
X93668548Y-99084994D01*
X93666668Y-99077980D01*
X93660693Y-99055675D01*
X93660687Y-99055659D01*
X93609158Y-98863345D01*
X93609154Y-98863335D01*
X93521347Y-98651350D01*
X93521344Y-98651345D01*
X93521344Y-98651344D01*
X93501300Y-98616626D01*
X93406611Y-98452620D01*
X93366343Y-98400142D01*
X93308370Y-98324589D01*
X93308366Y-98324586D01*
X93266918Y-98270568D01*
X91576434Y-96580084D01*
X91576427Y-96580078D01*
X91443906Y-96478392D01*
X91443905Y-96478391D01*
X91394390Y-96440396D01*
X91394384Y-96440392D01*
X91394380Y-96440389D01*
X91353247Y-96416641D01*
X91195659Y-96325657D01*
X91195649Y-96325652D01*
X90983664Y-96237845D01*
X90983657Y-96237843D01*
X90983658Y-96237843D01*
X90983655Y-96237842D01*
X90937612Y-96225505D01*
X90937611Y-96225504D01*
X90812610Y-96192011D01*
X90762007Y-96178452D01*
X90732429Y-96174558D01*
X90732427Y-96174557D01*
X90534509Y-96148500D01*
X90534502Y-96148500D01*
X88515443Y-96148500D01*
X88448404Y-96128815D01*
X88427762Y-96112181D01*
X86441819Y-94126238D01*
X86408334Y-94064915D01*
X86405500Y-94038557D01*
X86405500Y-89067389D01*
X109135500Y-89067389D01*
X109135500Y-89240611D01*
X109162598Y-89411701D01*
X109216127Y-89576445D01*
X109294768Y-89730788D01*
X109396586Y-89870928D01*
X109519072Y-89993414D01*
X109659212Y-90095232D01*
X109813555Y-90173873D01*
X109978299Y-90227402D01*
X110149389Y-90254500D01*
X110149390Y-90254500D01*
X110322610Y-90254500D01*
X110322611Y-90254500D01*
X110493701Y-90227402D01*
X110658445Y-90173873D01*
X110812788Y-90095232D01*
X110952928Y-89993414D01*
X111075414Y-89870928D01*
X111177232Y-89730788D01*
X111255873Y-89576445D01*
X111309402Y-89411701D01*
X111336500Y-89240611D01*
X111336500Y-89067389D01*
X111309402Y-88896299D01*
X111255873Y-88731555D01*
X111177232Y-88577212D01*
X111075414Y-88437072D01*
X110952928Y-88314586D01*
X110812788Y-88212768D01*
X110658445Y-88134127D01*
X110493701Y-88080598D01*
X110493699Y-88080597D01*
X110493698Y-88080597D01*
X110362271Y-88059781D01*
X110322611Y-88053500D01*
X110149389Y-88053500D01*
X110109728Y-88059781D01*
X109978302Y-88080597D01*
X109813552Y-88134128D01*
X109659211Y-88212768D01*
X109579256Y-88270859D01*
X109519072Y-88314586D01*
X109519070Y-88314588D01*
X109519069Y-88314588D01*
X109396588Y-88437069D01*
X109396588Y-88437070D01*
X109396586Y-88437072D01*
X109352859Y-88497256D01*
X109294768Y-88577211D01*
X109216128Y-88731552D01*
X109162597Y-88896302D01*
X109135500Y-89067389D01*
X86405500Y-89067389D01*
X86405500Y-86527389D01*
X109135500Y-86527389D01*
X109135500Y-86700610D01*
X109152044Y-86805069D01*
X109162598Y-86871701D01*
X109216127Y-87036445D01*
X109294768Y-87190788D01*
X109396586Y-87330928D01*
X109519072Y-87453414D01*
X109659212Y-87555232D01*
X109813555Y-87633873D01*
X109978299Y-87687402D01*
X110149389Y-87714500D01*
X110149390Y-87714500D01*
X110322610Y-87714500D01*
X110322611Y-87714500D01*
X110493701Y-87687402D01*
X110658445Y-87633873D01*
X110812788Y-87555232D01*
X110952928Y-87453414D01*
X111075414Y-87330928D01*
X111177232Y-87190788D01*
X111255873Y-87036445D01*
X111309402Y-86871701D01*
X111336500Y-86700611D01*
X111336500Y-86527389D01*
X111309402Y-86356299D01*
X111255873Y-86191555D01*
X111177232Y-86037212D01*
X111075414Y-85897072D01*
X110952928Y-85774586D01*
X110812788Y-85672768D01*
X110658445Y-85594127D01*
X110493701Y-85540598D01*
X110493699Y-85540597D01*
X110493698Y-85540597D01*
X110362271Y-85519781D01*
X110322611Y-85513500D01*
X110149389Y-85513500D01*
X110109728Y-85519781D01*
X109978302Y-85540597D01*
X109813552Y-85594128D01*
X109659211Y-85672768D01*
X109579256Y-85730859D01*
X109519072Y-85774586D01*
X109519070Y-85774588D01*
X109519069Y-85774588D01*
X109396588Y-85897069D01*
X109396588Y-85897070D01*
X109396586Y-85897072D01*
X109373167Y-85929306D01*
X109294768Y-86037211D01*
X109216128Y-86191552D01*
X109162597Y-86356302D01*
X109135500Y-86527389D01*
X86405500Y-86527389D01*
X86405500Y-86042100D01*
X86425185Y-85975061D01*
X86477989Y-85929306D01*
X86547147Y-85919362D01*
X86576947Y-85927537D01*
X86678256Y-85969501D01*
X86678260Y-85969501D01*
X86678261Y-85969502D01*
X86803928Y-85994500D01*
X86803931Y-85994500D01*
X86932071Y-85994500D01*
X87016615Y-85977682D01*
X87057744Y-85969501D01*
X87176127Y-85920465D01*
X87282669Y-85849276D01*
X87373276Y-85758669D01*
X87444465Y-85652127D01*
X87493501Y-85533744D01*
X87501682Y-85492615D01*
X87518500Y-85408071D01*
X87518500Y-85279928D01*
X87493502Y-85154261D01*
X87493501Y-85154260D01*
X87493501Y-85154256D01*
X87455574Y-85062692D01*
X87444466Y-85035875D01*
X87444458Y-85035861D01*
X87389398Y-84953457D01*
X87368520Y-84886780D01*
X87368500Y-84884567D01*
X87368500Y-83987389D01*
X109135500Y-83987389D01*
X109135500Y-84160611D01*
X109162598Y-84331701D01*
X109216127Y-84496445D01*
X109294768Y-84650788D01*
X109396586Y-84790928D01*
X109519072Y-84913414D01*
X109659212Y-85015232D01*
X109813555Y-85093873D01*
X109978299Y-85147402D01*
X110149389Y-85174500D01*
X110149390Y-85174500D01*
X110322610Y-85174500D01*
X110322611Y-85174500D01*
X110493701Y-85147402D01*
X110658445Y-85093873D01*
X110812788Y-85015232D01*
X110952928Y-84913414D01*
X111075414Y-84790928D01*
X111177232Y-84650788D01*
X111255873Y-84496445D01*
X111309402Y-84331701D01*
X111336500Y-84160611D01*
X111336500Y-83987389D01*
X111309402Y-83816299D01*
X111255873Y-83651555D01*
X111177232Y-83497212D01*
X111075414Y-83357072D01*
X110952928Y-83234586D01*
X110812788Y-83132768D01*
X110658445Y-83054127D01*
X110493701Y-83000598D01*
X110493699Y-83000597D01*
X110493698Y-83000597D01*
X110362271Y-82979781D01*
X110322611Y-82973500D01*
X110149389Y-82973500D01*
X110109728Y-82979781D01*
X109978302Y-83000597D01*
X109813552Y-83054128D01*
X109659211Y-83132768D01*
X109579256Y-83190859D01*
X109519072Y-83234586D01*
X109519070Y-83234588D01*
X109519069Y-83234588D01*
X109396588Y-83357069D01*
X109396588Y-83357070D01*
X109396586Y-83357072D01*
X109390167Y-83365907D01*
X109294768Y-83497211D01*
X109216128Y-83651552D01*
X109162597Y-83816302D01*
X109153605Y-83873079D01*
X109135500Y-83987389D01*
X87368500Y-83987389D01*
X87368500Y-81447389D01*
X109135500Y-81447389D01*
X109135500Y-81620611D01*
X109162598Y-81791701D01*
X109216127Y-81956445D01*
X109294768Y-82110788D01*
X109396586Y-82250928D01*
X109519072Y-82373414D01*
X109659212Y-82475232D01*
X109813555Y-82553873D01*
X109978299Y-82607402D01*
X110149389Y-82634500D01*
X110149390Y-82634500D01*
X110322610Y-82634500D01*
X110322611Y-82634500D01*
X110493701Y-82607402D01*
X110658445Y-82553873D01*
X110812788Y-82475232D01*
X110952928Y-82373414D01*
X111075414Y-82250928D01*
X111177232Y-82110788D01*
X111255873Y-81956445D01*
X111309402Y-81791701D01*
X111336500Y-81620611D01*
X111336500Y-81447389D01*
X111309402Y-81276299D01*
X111255873Y-81111555D01*
X111177232Y-80957212D01*
X111075414Y-80817072D01*
X110952928Y-80694586D01*
X110812788Y-80592768D01*
X110658445Y-80514127D01*
X110493701Y-80460598D01*
X110493699Y-80460597D01*
X110493698Y-80460597D01*
X110362271Y-80439781D01*
X110322611Y-80433500D01*
X110149389Y-80433500D01*
X110109728Y-80439781D01*
X109978302Y-80460597D01*
X109813552Y-80514128D01*
X109659211Y-80592768D01*
X109579256Y-80650859D01*
X109519072Y-80694586D01*
X109519070Y-80694588D01*
X109519069Y-80694588D01*
X109396588Y-80817069D01*
X109396588Y-80817070D01*
X109396586Y-80817072D01*
X109352859Y-80877256D01*
X109294768Y-80957211D01*
X109216128Y-81111552D01*
X109162597Y-81276302D01*
X109145641Y-81383359D01*
X109135500Y-81447389D01*
X87368500Y-81447389D01*
X87368500Y-78907389D01*
X109135500Y-78907389D01*
X109135500Y-79080611D01*
X109162598Y-79251701D01*
X109216127Y-79416445D01*
X109294768Y-79570788D01*
X109396586Y-79710928D01*
X109519072Y-79833414D01*
X109659212Y-79935232D01*
X109813555Y-80013873D01*
X109978299Y-80067402D01*
X110149389Y-80094500D01*
X110149390Y-80094500D01*
X110322610Y-80094500D01*
X110322611Y-80094500D01*
X110493701Y-80067402D01*
X110658445Y-80013873D01*
X110812788Y-79935232D01*
X110952928Y-79833414D01*
X111075414Y-79710928D01*
X111177232Y-79570788D01*
X111255873Y-79416445D01*
X111309402Y-79251701D01*
X111336500Y-79080611D01*
X111336500Y-78907389D01*
X111309402Y-78736299D01*
X111255873Y-78571555D01*
X111177232Y-78417212D01*
X111075414Y-78277072D01*
X110952928Y-78154586D01*
X110812788Y-78052768D01*
X110658445Y-77974127D01*
X110493701Y-77920598D01*
X110493699Y-77920597D01*
X110493698Y-77920597D01*
X110362271Y-77899781D01*
X110322611Y-77893500D01*
X110149389Y-77893500D01*
X110109728Y-77899781D01*
X109978302Y-77920597D01*
X109813552Y-77974128D01*
X109659211Y-78052768D01*
X109579256Y-78110859D01*
X109519072Y-78154586D01*
X109519070Y-78154588D01*
X109519069Y-78154588D01*
X109396588Y-78277069D01*
X109396588Y-78277070D01*
X109396586Y-78277072D01*
X109352859Y-78337256D01*
X109294768Y-78417211D01*
X109216128Y-78571552D01*
X109162597Y-78736302D01*
X109135500Y-78907389D01*
X87368500Y-78907389D01*
X87368500Y-76367389D01*
X109135500Y-76367389D01*
X109135500Y-76540611D01*
X109162598Y-76711701D01*
X109216127Y-76876445D01*
X109294768Y-77030788D01*
X109396586Y-77170928D01*
X109519072Y-77293414D01*
X109659212Y-77395232D01*
X109813555Y-77473873D01*
X109978299Y-77527402D01*
X110149389Y-77554500D01*
X110149390Y-77554500D01*
X110322610Y-77554500D01*
X110322611Y-77554500D01*
X110493701Y-77527402D01*
X110658445Y-77473873D01*
X110812788Y-77395232D01*
X110952928Y-77293414D01*
X111075414Y-77170928D01*
X111177232Y-77030788D01*
X111255873Y-76876445D01*
X111309402Y-76711701D01*
X111336500Y-76540611D01*
X111336500Y-76367389D01*
X111309402Y-76196299D01*
X111255873Y-76031555D01*
X111177232Y-75877212D01*
X111075414Y-75737072D01*
X110952928Y-75614586D01*
X110812788Y-75512768D01*
X110658447Y-75434128D01*
X110658446Y-75434127D01*
X110658445Y-75434127D01*
X110493701Y-75380598D01*
X110493699Y-75380597D01*
X110493698Y-75380597D01*
X110362271Y-75359781D01*
X110322611Y-75353500D01*
X110149389Y-75353500D01*
X110109728Y-75359781D01*
X109978302Y-75380597D01*
X109813552Y-75434128D01*
X109659211Y-75512768D01*
X109579256Y-75570859D01*
X109519072Y-75614586D01*
X109519070Y-75614588D01*
X109519069Y-75614588D01*
X109396588Y-75737069D01*
X109396588Y-75737070D01*
X109396586Y-75737072D01*
X109380302Y-75759485D01*
X109294768Y-75877211D01*
X109216128Y-76031552D01*
X109162597Y-76196302D01*
X109139843Y-76339970D01*
X109135500Y-76367389D01*
X87368500Y-76367389D01*
X87368500Y-71124676D01*
X87377144Y-71095235D01*
X87383668Y-71065249D01*
X87387422Y-71060233D01*
X87388185Y-71057637D01*
X87404819Y-71036995D01*
X87546995Y-70894819D01*
X87608318Y-70861334D01*
X87634676Y-70858500D01*
X101243549Y-70858500D01*
X101310588Y-70878185D01*
X101356343Y-70930989D01*
X101358110Y-70935047D01*
X101404533Y-71047124D01*
X101404538Y-71047133D01*
X101475723Y-71153668D01*
X101475726Y-71153672D01*
X101566327Y-71244273D01*
X101566331Y-71244276D01*
X101672866Y-71315461D01*
X101672879Y-71315468D01*
X101765559Y-71353857D01*
X101819963Y-71397698D01*
X101839724Y-71444226D01*
X101863497Y-71563738D01*
X101863499Y-71563744D01*
X101912533Y-71682124D01*
X101912538Y-71682133D01*
X101983723Y-71788668D01*
X101983726Y-71788672D01*
X102074327Y-71879273D01*
X102074331Y-71879276D01*
X102180866Y-71950461D01*
X102180875Y-71950466D01*
X102207692Y-71961574D01*
X102299256Y-71999501D01*
X102299260Y-71999501D01*
X102299261Y-71999502D01*
X102424928Y-72024500D01*
X102424931Y-72024500D01*
X102553071Y-72024500D01*
X102637615Y-72007682D01*
X102678744Y-71999501D01*
X102797127Y-71950465D01*
X102903669Y-71879276D01*
X102994276Y-71788669D01*
X103065465Y-71682127D01*
X103114501Y-71563744D01*
X103135016Y-71460610D01*
X103139500Y-71438071D01*
X103139500Y-71309928D01*
X103114502Y-71184261D01*
X103114501Y-71184260D01*
X103114501Y-71184256D01*
X103076255Y-71091923D01*
X103065466Y-71065875D01*
X103065461Y-71065866D01*
X102994276Y-70959331D01*
X102994273Y-70959327D01*
X102903672Y-70868726D01*
X102903668Y-70868723D01*
X102797133Y-70797538D01*
X102797123Y-70797533D01*
X102734936Y-70771774D01*
X102728003Y-70767141D01*
X102722962Y-70766045D01*
X102694708Y-70744894D01*
X102659775Y-70709961D01*
X102626290Y-70648638D01*
X102625839Y-70646471D01*
X102613268Y-70583275D01*
X102606501Y-70549256D01*
X102562277Y-70442490D01*
X102557466Y-70430875D01*
X102557461Y-70430866D01*
X102486276Y-70324331D01*
X102486273Y-70324327D01*
X102395672Y-70233726D01*
X102395668Y-70233723D01*
X102289133Y-70162538D01*
X102289124Y-70162533D01*
X102170744Y-70113499D01*
X102170738Y-70113497D01*
X102073527Y-70094160D01*
X102011616Y-70061774D01*
X102010038Y-70060224D01*
X101907316Y-69957502D01*
X101907314Y-69957500D01*
X101835822Y-69916224D01*
X101793187Y-69891608D01*
X101729539Y-69874554D01*
X101665892Y-69857500D01*
X87441892Y-69857500D01*
X87310107Y-69857500D01*
X87220537Y-69881500D01*
X87220536Y-69881499D01*
X87182818Y-69891606D01*
X87182811Y-69891609D01*
X87068689Y-69957498D01*
X87068683Y-69957502D01*
X86617181Y-70409005D01*
X86555858Y-70442490D01*
X86486166Y-70437506D01*
X86430233Y-70395634D01*
X86405816Y-70330170D01*
X86405500Y-70321324D01*
X86405500Y-69234000D01*
X108886000Y-69234000D01*
X108886000Y-69731844D01*
X108892401Y-69791372D01*
X108892403Y-69791379D01*
X108942645Y-69926086D01*
X108942649Y-69926093D01*
X109028809Y-70041187D01*
X109028812Y-70041190D01*
X109143906Y-70127350D01*
X109143913Y-70127354D01*
X109278620Y-70177596D01*
X109278627Y-70177598D01*
X109338155Y-70183999D01*
X109338172Y-70184000D01*
X109630949Y-70184000D01*
X109697988Y-70203685D01*
X109743743Y-70256489D01*
X109753687Y-70325647D01*
X109724662Y-70389203D01*
X109687244Y-70418485D01*
X109659211Y-70432768D01*
X109614160Y-70465500D01*
X109519072Y-70534586D01*
X109519070Y-70534588D01*
X109519069Y-70534588D01*
X109396588Y-70657069D01*
X109396588Y-70657070D01*
X109396586Y-70657072D01*
X109364194Y-70701656D01*
X109294768Y-70797211D01*
X109216128Y-70951552D01*
X109162597Y-71116302D01*
X109151834Y-71184261D01*
X109135500Y-71287389D01*
X109135500Y-71460611D01*
X109162598Y-71631701D01*
X109216127Y-71796445D01*
X109294768Y-71950788D01*
X109396586Y-72090928D01*
X109519072Y-72213414D01*
X109659212Y-72315232D01*
X109813555Y-72393873D01*
X109978299Y-72447402D01*
X110149389Y-72474500D01*
X110149390Y-72474500D01*
X110322610Y-72474500D01*
X110322611Y-72474500D01*
X110493701Y-72447402D01*
X110502859Y-72444425D01*
X110572700Y-72442429D01*
X110628861Y-72474675D01*
X110899725Y-72745539D01*
X110933210Y-72806862D01*
X110928226Y-72876554D01*
X110886354Y-72932487D01*
X110820890Y-72956904D01*
X110755750Y-72943705D01*
X110658450Y-72894129D01*
X110658447Y-72894128D01*
X110658445Y-72894127D01*
X110493701Y-72840598D01*
X110493699Y-72840597D01*
X110493698Y-72840597D01*
X110362271Y-72819781D01*
X110322611Y-72813500D01*
X110149389Y-72813500D01*
X110109728Y-72819781D01*
X109978302Y-72840597D01*
X109813552Y-72894128D01*
X109659211Y-72972768D01*
X109579256Y-73030859D01*
X109519072Y-73074586D01*
X109519070Y-73074588D01*
X109519069Y-73074588D01*
X109396588Y-73197069D01*
X109396588Y-73197070D01*
X109396586Y-73197072D01*
X109375577Y-73225989D01*
X109294768Y-73337211D01*
X109216128Y-73491552D01*
X109162597Y-73656302D01*
X109135500Y-73827389D01*
X109135500Y-74000611D01*
X109162598Y-74171701D01*
X109216127Y-74336445D01*
X109294768Y-74490788D01*
X109396586Y-74630928D01*
X109519072Y-74753414D01*
X109659212Y-74855232D01*
X109813555Y-74933873D01*
X109978299Y-74987402D01*
X110149389Y-75014500D01*
X110149390Y-75014500D01*
X110322610Y-75014500D01*
X110322611Y-75014500D01*
X110493701Y-74987402D01*
X110658445Y-74933873D01*
X110812788Y-74855232D01*
X110952928Y-74753414D01*
X111075414Y-74630928D01*
X111177232Y-74490788D01*
X111255873Y-74336445D01*
X111309402Y-74171701D01*
X111336500Y-74000611D01*
X111336500Y-73827389D01*
X111309402Y-73656299D01*
X111255873Y-73491555D01*
X111206293Y-73394249D01*
X111193398Y-73325580D01*
X111219675Y-73260840D01*
X111276781Y-73220583D01*
X111346587Y-73217591D01*
X111404460Y-73250274D01*
X114017181Y-75862995D01*
X114050666Y-75924318D01*
X114053500Y-75950676D01*
X114053500Y-86281567D01*
X114033815Y-86348606D01*
X114032602Y-86350457D01*
X113977541Y-86432861D01*
X113977533Y-86432875D01*
X113928499Y-86551255D01*
X113928497Y-86551261D01*
X113903500Y-86676928D01*
X113903500Y-86676931D01*
X113903500Y-86805069D01*
X113903500Y-86805071D01*
X113903499Y-86805071D01*
X113928497Y-86930738D01*
X113928499Y-86930744D01*
X113977533Y-87049124D01*
X113977538Y-87049133D01*
X114048723Y-87155668D01*
X114048726Y-87155672D01*
X114139327Y-87246273D01*
X114139331Y-87246276D01*
X114245866Y-87317461D01*
X114245872Y-87317464D01*
X114245873Y-87317465D01*
X114364256Y-87366501D01*
X114364260Y-87366501D01*
X114364261Y-87366502D01*
X114489928Y-87391500D01*
X114489931Y-87391500D01*
X114618071Y-87391500D01*
X114702615Y-87374682D01*
X114743744Y-87366501D01*
X114862127Y-87317465D01*
X114968669Y-87246276D01*
X115059276Y-87155669D01*
X115130465Y-87049127D01*
X115179501Y-86930744D01*
X115204500Y-86805069D01*
X115204500Y-86676931D01*
X115204500Y-86676928D01*
X115179502Y-86551261D01*
X115179501Y-86551260D01*
X115179501Y-86551256D01*
X115130465Y-86432873D01*
X115130464Y-86432871D01*
X115130458Y-86432861D01*
X115075398Y-86350457D01*
X115054520Y-86283780D01*
X115054500Y-86281567D01*
X115054500Y-75626110D01*
X115054500Y-75626108D01*
X115020392Y-75498814D01*
X114954500Y-75384686D01*
X114861314Y-75291500D01*
X111336675Y-71766861D01*
X111303190Y-71705538D01*
X111306426Y-71640859D01*
X111309402Y-71631701D01*
X111336500Y-71460611D01*
X111336500Y-71287389D01*
X111309402Y-71116299D01*
X111306424Y-71107137D01*
X111305990Y-71091923D01*
X111300672Y-71077664D01*
X111305013Y-71057708D01*
X111304430Y-71037296D01*
X111312517Y-71023209D01*
X111315524Y-71009391D01*
X111336671Y-70981142D01*
X111422996Y-70894817D01*
X111484319Y-70861334D01*
X111510676Y-70858500D01*
X130593192Y-70858500D01*
X130660231Y-70878185D01*
X130680873Y-70894819D01*
X130712827Y-70926773D01*
X130712831Y-70926776D01*
X130819366Y-70997961D01*
X130819379Y-70997968D01*
X130880317Y-71023209D01*
X130914445Y-71037345D01*
X130968849Y-71081185D01*
X130981554Y-71104453D01*
X131020933Y-71199524D01*
X131020938Y-71199533D01*
X131092123Y-71306068D01*
X131092126Y-71306072D01*
X131182727Y-71396673D01*
X131182731Y-71396676D01*
X131289266Y-71467861D01*
X131289272Y-71467864D01*
X131289273Y-71467865D01*
X131407656Y-71516901D01*
X131407660Y-71516901D01*
X131407661Y-71516902D01*
X131533328Y-71541900D01*
X131533331Y-71541900D01*
X131661471Y-71541900D01*
X131746015Y-71525082D01*
X131787144Y-71516901D01*
X131905527Y-71467865D01*
X132012069Y-71396676D01*
X132102676Y-71306069D01*
X132173865Y-71199527D01*
X132222901Y-71081144D01*
X132242794Y-70981137D01*
X132247900Y-70955471D01*
X132247900Y-70827328D01*
X132222902Y-70701661D01*
X132222901Y-70701660D01*
X132222901Y-70701656D01*
X132173865Y-70583273D01*
X132173864Y-70583272D01*
X132173861Y-70583266D01*
X132102676Y-70476731D01*
X132102673Y-70476727D01*
X132012072Y-70386126D01*
X132012068Y-70386123D01*
X131905533Y-70314938D01*
X131905524Y-70314933D01*
X131810453Y-70275554D01*
X131756050Y-70231713D01*
X131743345Y-70208445D01*
X131741373Y-70203685D01*
X131724328Y-70162533D01*
X131703968Y-70113379D01*
X131703961Y-70113366D01*
X131632776Y-70006831D01*
X131632773Y-70006827D01*
X131542172Y-69916226D01*
X131542168Y-69916223D01*
X131435633Y-69845038D01*
X131435624Y-69845033D01*
X131317244Y-69795999D01*
X131317238Y-69795997D01*
X131191571Y-69771000D01*
X131191569Y-69771000D01*
X131063431Y-69771000D01*
X131063429Y-69771000D01*
X130937761Y-69795997D01*
X130937755Y-69795999D01*
X130813745Y-69847366D01*
X130812964Y-69845481D01*
X130764992Y-69857500D01*
X111710000Y-69857500D01*
X111642961Y-69837815D01*
X111597206Y-69785011D01*
X111586000Y-69733500D01*
X111586000Y-69234000D01*
X110543106Y-69234000D01*
X110636099Y-69141007D01*
X110701925Y-69026993D01*
X110736000Y-68899826D01*
X110736000Y-68768174D01*
X110701925Y-68641007D01*
X110636099Y-68526993D01*
X110543106Y-68434000D01*
X110636000Y-68434000D01*
X111586000Y-68434000D01*
X111586000Y-67936172D01*
X111585999Y-67936155D01*
X111579598Y-67876627D01*
X111579596Y-67876620D01*
X111529354Y-67741913D01*
X111529350Y-67741906D01*
X111443190Y-67626812D01*
X111443187Y-67626809D01*
X111328093Y-67540649D01*
X111328086Y-67540645D01*
X111193379Y-67490403D01*
X111193372Y-67490401D01*
X111133844Y-67484000D01*
X110636000Y-67484000D01*
X110636000Y-68434000D01*
X110543106Y-68434000D01*
X110543007Y-68433901D01*
X110428993Y-68368075D01*
X110301826Y-68334000D01*
X110170174Y-68334000D01*
X110043007Y-68368075D01*
X109928993Y-68433901D01*
X109835901Y-68526993D01*
X109770075Y-68641007D01*
X109736000Y-68768174D01*
X109736000Y-68899826D01*
X109770075Y-69026993D01*
X109835901Y-69141007D01*
X109928894Y-69234000D01*
X108886000Y-69234000D01*
X86405500Y-69234000D01*
X86405500Y-67943500D01*
X86425185Y-67876461D01*
X86477989Y-67830706D01*
X86529500Y-67819500D01*
X89792000Y-67819500D01*
X89846313Y-67813661D01*
X89897824Y-67802455D01*
X89924198Y-67795219D01*
X89953074Y-67778775D01*
X90010818Y-67745894D01*
X90010819Y-67745892D01*
X90010828Y-67745888D01*
X90063632Y-67700133D01*
X90095257Y-67667359D01*
X90141465Y-67579024D01*
X90143470Y-67572198D01*
X90152734Y-67540645D01*
X90161150Y-67511985D01*
X90171500Y-67440000D01*
X90171500Y-61891013D01*
X90191185Y-61823974D01*
X90212545Y-61798848D01*
X92518674Y-59723331D01*
X92581673Y-59693116D01*
X92601626Y-59691500D01*
X93600500Y-59691500D01*
X93667539Y-59711185D01*
G37*
%TD.AperFunction*%
%TA.AperFunction,Conductor*%
G36*
X89333396Y-54123185D02*
G01*
X89379151Y-54175989D01*
X89390250Y-54232662D01*
X89354426Y-55092454D01*
X89354217Y-55097464D01*
X89331758Y-55163626D01*
X89277095Y-55207143D01*
X89207583Y-55214199D01*
X89145290Y-55182553D01*
X89142643Y-55179983D01*
X89036344Y-55073684D01*
X88887122Y-54981643D01*
X88887117Y-54981641D01*
X88720695Y-54926494D01*
X88720688Y-54926493D01*
X88617984Y-54916000D01*
X87268000Y-54916000D01*
X87268000Y-56584592D01*
X87123228Y-56524626D01*
X86954180Y-56491000D01*
X86781820Y-56491000D01*
X86612772Y-56524626D01*
X86468000Y-56584592D01*
X86468000Y-54916000D01*
X85118030Y-54916000D01*
X85118014Y-54916001D01*
X85015304Y-54926494D01*
X84848882Y-54981641D01*
X84848877Y-54981643D01*
X84699655Y-55073684D01*
X84575684Y-55197655D01*
X84483643Y-55346877D01*
X84483641Y-55346882D01*
X84428494Y-55513304D01*
X84428493Y-55513311D01*
X84418000Y-55616015D01*
X84418000Y-56966000D01*
X86086592Y-56966000D01*
X86026626Y-57110772D01*
X85993000Y-57279820D01*
X85993000Y-57452180D01*
X86026626Y-57621228D01*
X86086592Y-57766000D01*
X84418001Y-57766000D01*
X84418001Y-59115984D01*
X84428494Y-59218695D01*
X84483641Y-59385117D01*
X84483643Y-59385122D01*
X84575684Y-59534344D01*
X84699655Y-59658315D01*
X84848877Y-59750356D01*
X84848882Y-59750358D01*
X85015304Y-59805505D01*
X85015311Y-59805506D01*
X85118021Y-59815999D01*
X86467999Y-59815999D01*
X86468000Y-59815998D01*
X86468000Y-58147407D01*
X86612772Y-58207374D01*
X86781820Y-58241000D01*
X86954180Y-58241000D01*
X87123228Y-58207374D01*
X87268000Y-58147407D01*
X87268000Y-59815999D01*
X88617970Y-59815999D01*
X88617984Y-59815998D01*
X88706632Y-59806942D01*
X88732602Y-59811769D01*
X88758990Y-59812846D01*
X88766409Y-59818053D01*
X88775325Y-59819711D01*
X88794562Y-59837812D01*
X88816179Y-59852985D01*
X88819605Y-59861378D01*
X88826209Y-59867592D01*
X88832605Y-59893218D01*
X88842589Y-59917671D01*
X88841620Y-59929334D01*
X88843130Y-59935382D01*
X88841151Y-59952935D01*
X88838916Y-59964970D01*
X88837816Y-59966752D01*
X88811442Y-60062892D01*
X88806458Y-60132584D01*
X88806575Y-60139161D01*
X88804454Y-60150588D01*
X88792881Y-60173416D01*
X88785017Y-60197765D01*
X88777348Y-60204058D01*
X88772862Y-60212908D01*
X88750788Y-60225853D01*
X88731006Y-60242088D01*
X88720434Y-60243655D01*
X88712593Y-60248255D01*
X88694424Y-60247513D01*
X88669283Y-60251242D01*
X88615871Y-60245500D01*
X88615862Y-60245500D01*
X85120131Y-60245500D01*
X85120125Y-60245501D01*
X85060518Y-60251908D01*
X84925672Y-60302202D01*
X84925670Y-60302204D01*
X84810454Y-60388454D01*
X84724204Y-60503670D01*
X84724202Y-60503672D01*
X84673908Y-60638519D01*
X84667501Y-60698118D01*
X84667500Y-60698137D01*
X84667500Y-62119556D01*
X84647815Y-62186595D01*
X84631181Y-62207237D01*
X83523681Y-63314737D01*
X83462358Y-63348222D01*
X83392666Y-63343238D01*
X83336733Y-63301366D01*
X83312316Y-63235902D01*
X83312000Y-63227056D01*
X83312000Y-54227500D01*
X83331685Y-54160461D01*
X83384489Y-54114706D01*
X83436000Y-54103500D01*
X89266357Y-54103500D01*
X89333396Y-54123185D01*
G37*
%TD.AperFunction*%
%TD*%
%TA.AperFunction,Conductor*%
%TO.N,+12V*%
G36*
X145728359Y-64770967D02*
G01*
X145731702Y-64770178D01*
X145761642Y-64780741D01*
X145792102Y-64789685D01*
X145794351Y-64792280D01*
X145797592Y-64793424D01*
X145817075Y-64818505D01*
X145837857Y-64842489D01*
X145838345Y-64845887D01*
X145840454Y-64848602D01*
X145843283Y-64880229D01*
X145847801Y-64911647D01*
X145846464Y-64915785D01*
X145846680Y-64918193D01*
X145834940Y-64951469D01*
X145806477Y-65005882D01*
X145797033Y-65023936D01*
X145777351Y-65090966D01*
X145777348Y-65090978D01*
X145767000Y-65162955D01*
X145767000Y-65662002D01*
X145772838Y-65716312D01*
X145784043Y-65767818D01*
X145784046Y-65767827D01*
X145791279Y-65794192D01*
X145791283Y-65794203D01*
X145840605Y-65880818D01*
X145840610Y-65880825D01*
X145840612Y-65880828D01*
X145867080Y-65911374D01*
X145886363Y-65933628D01*
X145886366Y-65933631D01*
X145886367Y-65933632D01*
X145919141Y-65965257D01*
X146007476Y-66011465D01*
X146007477Y-66011465D01*
X146007477Y-66011466D01*
X146057605Y-66026184D01*
X146074515Y-66031150D01*
X146074519Y-66031150D01*
X146074521Y-66031151D01*
X146086152Y-66032823D01*
X146146500Y-66041500D01*
X146146501Y-66041500D01*
X152022000Y-66041500D01*
X152089039Y-66061185D01*
X152134794Y-66113989D01*
X152146000Y-66165500D01*
X152146000Y-77092000D01*
X152126315Y-77159039D01*
X152073511Y-77204794D01*
X152022000Y-77216000D01*
X150409836Y-77216000D01*
X150342797Y-77196315D01*
X150322155Y-77179681D01*
X148744248Y-75601774D01*
X148744246Y-75601772D01*
X148585005Y-75486076D01*
X148409630Y-75396717D01*
X148222426Y-75335890D01*
X148028022Y-75305100D01*
X148028017Y-75305100D01*
X142618000Y-75305100D01*
X142550961Y-75285415D01*
X142505206Y-75232611D01*
X142494000Y-75181100D01*
X142494000Y-72898000D01*
X134998000Y-72898000D01*
X134930961Y-72878315D01*
X134885206Y-72825511D01*
X134874000Y-72774000D01*
X134874000Y-71239650D01*
X134893685Y-71172611D01*
X134946489Y-71126856D01*
X134993571Y-71115729D01*
X141986000Y-70866000D01*
X141986000Y-66418000D01*
X142005685Y-66350961D01*
X142058489Y-66305206D01*
X142110000Y-66294000D01*
X144272000Y-66294000D01*
X144272000Y-64894000D01*
X144291685Y-64826961D01*
X144344489Y-64781206D01*
X144396000Y-64770000D01*
X145725063Y-64770000D01*
X145728359Y-64770967D01*
G37*
%TD.AperFunction*%
%TD*%
%TA.AperFunction,Conductor*%
%TO.N,+12V*%
G36*
X110179039Y-96539685D02*
G01*
X110224794Y-96592489D01*
X110236000Y-96644000D01*
X110236000Y-98044000D01*
X110459028Y-98762646D01*
X110464600Y-98799399D01*
X110464600Y-102082600D01*
X113574252Y-102098070D01*
X113591262Y-102099329D01*
X113662000Y-102109500D01*
X115446000Y-102109500D01*
X115513039Y-102129185D01*
X115558794Y-102181989D01*
X115570000Y-102233500D01*
X115570000Y-112652000D01*
X115550315Y-112719039D01*
X115497511Y-112764794D01*
X115446000Y-112776000D01*
X103502000Y-112776000D01*
X103434961Y-112756315D01*
X103389206Y-112703511D01*
X103378000Y-112652000D01*
X103378000Y-103435032D01*
X103397685Y-103367993D01*
X103421302Y-103340884D01*
X105121173Y-101883852D01*
X105184884Y-101855169D01*
X105201871Y-101854000D01*
X108204000Y-101854000D01*
X108204000Y-96644000D01*
X108223685Y-96576961D01*
X108276489Y-96531206D01*
X108328000Y-96520000D01*
X110112000Y-96520000D01*
X110179039Y-96539685D01*
G37*
%TD.AperFunction*%
%TD*%
%TA.AperFunction,Conductor*%
%TO.N,/PL7*%
G36*
X122936676Y-96539685D02*
G01*
X122972811Y-96575217D01*
X123931174Y-98012761D01*
X123951982Y-98079460D01*
X123952000Y-98081544D01*
X123952000Y-102108000D01*
X128146000Y-102108000D01*
X128213039Y-102127685D01*
X128258794Y-102180489D01*
X128270000Y-102232000D01*
X128270000Y-112178625D01*
X128250315Y-112245664D01*
X128197511Y-112291419D01*
X128185212Y-112296262D01*
X126765089Y-112769637D01*
X126725877Y-112776000D01*
X120296802Y-112776000D01*
X120240507Y-112762485D01*
X120122030Y-112702117D01*
X119934826Y-112641290D01*
X119740422Y-112610500D01*
X119740417Y-112610500D01*
X116202000Y-112610500D01*
X116134961Y-112590815D01*
X116089206Y-112538011D01*
X116078000Y-112486500D01*
X116078000Y-102870000D01*
X121158000Y-102870000D01*
X121158000Y-96644000D01*
X121177685Y-96576961D01*
X121230489Y-96531206D01*
X121282000Y-96520000D01*
X122869637Y-96520000D01*
X122936676Y-96539685D01*
G37*
%TD.AperFunction*%
%TD*%
%TA.AperFunction,Conductor*%
%TO.N,/PL3*%
G36*
X139101596Y-49633185D02*
G01*
X139122238Y-49649819D01*
X142485181Y-53012762D01*
X142518666Y-53074085D01*
X142521500Y-53100443D01*
X142521500Y-59820000D01*
X142501815Y-59887039D01*
X142449011Y-59932794D01*
X142397500Y-59944000D01*
X139700000Y-59944000D01*
X139700000Y-65662000D01*
X139680315Y-65729039D01*
X139627511Y-65774794D01*
X139576000Y-65786000D01*
X136776000Y-65786000D01*
X136708961Y-65766315D01*
X136663206Y-65713511D01*
X136652000Y-65662000D01*
X136652000Y-59944000D01*
X134874000Y-59944000D01*
X134874000Y-62432638D01*
X134854315Y-62499677D01*
X134837681Y-62520319D01*
X129830319Y-67527681D01*
X129768996Y-67561166D01*
X129742638Y-67564000D01*
X124838000Y-67564000D01*
X124770961Y-67544315D01*
X124725206Y-67491511D01*
X124714000Y-67440000D01*
X124714000Y-66069272D01*
X124727091Y-66013818D01*
X124959001Y-65549998D01*
X124982229Y-65517771D01*
X126238000Y-64262000D01*
X126238000Y-60068000D01*
X126257685Y-60000961D01*
X126310489Y-59955206D01*
X126362000Y-59944000D01*
X130048000Y-59944000D01*
X131572000Y-57912000D01*
X131572000Y-49737500D01*
X131591685Y-49670461D01*
X131644489Y-49624706D01*
X131696000Y-49613500D01*
X139034557Y-49613500D01*
X139101596Y-49633185D01*
G37*
%TD.AperFunction*%
%TD*%
%TA.AperFunction,Conductor*%
%TO.N,/PL2*%
G36*
X116273539Y-49651285D02*
G01*
X116319294Y-49704089D01*
X116330500Y-49755600D01*
X116330500Y-59312000D01*
X116310815Y-59379039D01*
X116258011Y-59424794D01*
X116206500Y-59436000D01*
X106172000Y-59436000D01*
X106172000Y-65154000D01*
X106152315Y-65221039D01*
X106099511Y-65266794D01*
X106048000Y-65278000D01*
X98168000Y-65278000D01*
X98100961Y-65258315D01*
X98055206Y-65205511D01*
X98044000Y-65154000D01*
X98044000Y-60068000D01*
X98063685Y-60000961D01*
X98116489Y-59955206D01*
X98168000Y-59944000D01*
X102615999Y-59944000D01*
X102616000Y-59944000D01*
X102641095Y-49755293D01*
X102660945Y-49688304D01*
X102713862Y-49642679D01*
X102765095Y-49631600D01*
X116206500Y-49631600D01*
X116273539Y-49651285D01*
G37*
%TD.AperFunction*%
%TD*%
%TA.AperFunction,Conductor*%
%TO.N,/PL6*%
G36*
X97297677Y-96285685D02*
G01*
X97318319Y-96302319D01*
X97753681Y-96737681D01*
X97787166Y-96799004D01*
X97790000Y-96825362D01*
X97790000Y-103124000D01*
X99567998Y-103124000D01*
X99568000Y-103124000D01*
X101346000Y-100838000D01*
X101346000Y-96644000D01*
X101365685Y-96576961D01*
X101418489Y-96531206D01*
X101470000Y-96520000D01*
X107572000Y-96520000D01*
X107639039Y-96539685D01*
X107684794Y-96592489D01*
X107696000Y-96644000D01*
X107696000Y-101474500D01*
X107676315Y-101541539D01*
X107623511Y-101587294D01*
X107572000Y-101598500D01*
X105201871Y-101598500D01*
X105200812Y-101598536D01*
X105184328Y-101599102D01*
X105176849Y-101599617D01*
X105175550Y-101599707D01*
X105167037Y-101600000D01*
X104647999Y-101600000D01*
X103124000Y-103123999D01*
X103124000Y-103415730D01*
X103122739Y-103433372D01*
X103122500Y-103435034D01*
X103122500Y-111986500D01*
X103102815Y-112053539D01*
X103050011Y-112099294D01*
X102998500Y-112110500D01*
X93822500Y-112110500D01*
X93755461Y-112090815D01*
X93709706Y-112038011D01*
X93698500Y-111986500D01*
X93698500Y-103248000D01*
X93718185Y-103180961D01*
X93770989Y-103135206D01*
X93822500Y-103124000D01*
X95504000Y-103124000D01*
X95504000Y-96390000D01*
X95523685Y-96322961D01*
X95576489Y-96277206D01*
X95628000Y-96266000D01*
X97230638Y-96266000D01*
X97297677Y-96285685D01*
G37*
%TD.AperFunction*%
%TA.AperFunction,Conductor*%
G36*
X86148497Y-98814644D02*
G01*
X86178484Y-98821168D01*
X86183499Y-98824922D01*
X86186096Y-98825685D01*
X86206738Y-98842319D01*
X86302738Y-98938319D01*
X86336223Y-98999642D01*
X86331239Y-99069334D01*
X86289367Y-99125267D01*
X86223903Y-99149684D01*
X86215058Y-99150000D01*
X86134031Y-99150000D01*
X86134014Y-99150001D01*
X86031304Y-99160494D01*
X85864882Y-99215641D01*
X85864877Y-99215643D01*
X85715655Y-99307684D01*
X85591684Y-99431655D01*
X85499643Y-99580877D01*
X85499641Y-99580882D01*
X85444494Y-99747304D01*
X85444493Y-99747311D01*
X85434000Y-99850015D01*
X85434000Y-101350000D01*
X87041586Y-101350000D01*
X87009000Y-101513820D01*
X87009000Y-101686180D01*
X87041586Y-101850000D01*
X85434001Y-101850000D01*
X85434001Y-103349984D01*
X85444494Y-103452695D01*
X85499641Y-103619117D01*
X85499643Y-103619122D01*
X85591684Y-103768344D01*
X85715655Y-103892315D01*
X85864877Y-103984356D01*
X85864882Y-103984358D01*
X86031304Y-104039505D01*
X86031311Y-104039506D01*
X86134021Y-104049999D01*
X87633999Y-104049999D01*
X87634000Y-104049998D01*
X87634000Y-102442413D01*
X87797820Y-102475000D01*
X87970180Y-102475000D01*
X88134000Y-102442413D01*
X88134000Y-104049999D01*
X89633970Y-104049999D01*
X89633984Y-104049998D01*
X89736695Y-104039505D01*
X89903117Y-103984358D01*
X89903128Y-103984353D01*
X90008403Y-103919419D01*
X90075795Y-103900978D01*
X90142459Y-103921900D01*
X90187229Y-103975542D01*
X90197500Y-104024957D01*
X90197500Y-104270000D01*
X90177815Y-104337039D01*
X90125011Y-104382794D01*
X90073500Y-104394000D01*
X83436000Y-104394000D01*
X83368961Y-104374315D01*
X83323206Y-104321511D01*
X83312000Y-104270000D01*
X83312000Y-98930000D01*
X83331685Y-98862961D01*
X83384489Y-98817206D01*
X83436000Y-98806000D01*
X86119057Y-98806000D01*
X86148497Y-98814644D01*
G37*
%TD.AperFunction*%
%TD*%
%TA.AperFunction,Conductor*%
%TO.N,+12V*%
G36*
X102051039Y-46501685D02*
G01*
X102096794Y-46554489D01*
X102108000Y-46606000D01*
X102108000Y-59312000D01*
X102088315Y-59379039D01*
X102035511Y-59424794D01*
X101984000Y-59436000D01*
X96774000Y-59436000D01*
X96774000Y-64238120D01*
X96765131Y-64284172D01*
X95789179Y-66724052D01*
X95746005Y-66778986D01*
X95679984Y-66801858D01*
X95674048Y-66802000D01*
X94104000Y-66802000D01*
X94036961Y-66782315D01*
X93991206Y-66729511D01*
X93980000Y-66678000D01*
X93980000Y-59436000D01*
X92456000Y-59436000D01*
X92455999Y-59436000D01*
X89916000Y-61721999D01*
X89916000Y-67440000D01*
X89896315Y-67507039D01*
X89843511Y-67552794D01*
X89792000Y-67564000D01*
X85214000Y-67564000D01*
X85146961Y-67544315D01*
X85101206Y-67491511D01*
X85090000Y-67440000D01*
X85090000Y-65019999D01*
X85109685Y-64952960D01*
X85162489Y-64907205D01*
X85214000Y-64895999D01*
X86617999Y-64895999D01*
X86618000Y-64895998D01*
X86618000Y-63288413D01*
X86781820Y-63321000D01*
X86954180Y-63321000D01*
X87118000Y-63288413D01*
X87118000Y-64895999D01*
X88617970Y-64895999D01*
X88617984Y-64895998D01*
X88720695Y-64885505D01*
X88887117Y-64830358D01*
X88887122Y-64830356D01*
X89036344Y-64738315D01*
X89160315Y-64614344D01*
X89252356Y-64465122D01*
X89252358Y-64465117D01*
X89307505Y-64298695D01*
X89307506Y-64298688D01*
X89317999Y-64195984D01*
X89318000Y-64195971D01*
X89318000Y-62696000D01*
X87710414Y-62696000D01*
X87743000Y-62532180D01*
X87743000Y-62359820D01*
X87710414Y-62196000D01*
X89317999Y-62196000D01*
X89317999Y-60696030D01*
X89317998Y-60696015D01*
X89307505Y-60593304D01*
X89252358Y-60426882D01*
X89252356Y-60426877D01*
X89160315Y-60277655D01*
X89094792Y-60212132D01*
X89061307Y-60150809D01*
X89066291Y-60081117D01*
X89108163Y-60025184D01*
X89154068Y-60003748D01*
X89408000Y-59944000D01*
X89662000Y-53848000D01*
X89661999Y-53848000D01*
X83436000Y-53848000D01*
X83368961Y-53828315D01*
X83323206Y-53775511D01*
X83312000Y-53724000D01*
X83312000Y-49324486D01*
X84163500Y-49324486D01*
X84163500Y-49619513D01*
X84182482Y-49763690D01*
X84202007Y-49911993D01*
X84202008Y-49911995D01*
X84278361Y-50196951D01*
X84278364Y-50196961D01*
X84391254Y-50469500D01*
X84391258Y-50469510D01*
X84538761Y-50724993D01*
X84718352Y-50959040D01*
X84718358Y-50959047D01*
X84926952Y-51167641D01*
X84926959Y-51167647D01*
X85161006Y-51347238D01*
X85416489Y-51494741D01*
X85416490Y-51494741D01*
X85416493Y-51494743D01*
X85689048Y-51607639D01*
X85974007Y-51683993D01*
X86266494Y-51722500D01*
X86266501Y-51722500D01*
X86561499Y-51722500D01*
X86561506Y-51722500D01*
X86853993Y-51683993D01*
X87138952Y-51607639D01*
X87411507Y-51494743D01*
X87666994Y-51347238D01*
X87901042Y-51167646D01*
X88109646Y-50959042D01*
X88289238Y-50724994D01*
X88436743Y-50469507D01*
X88549639Y-50196952D01*
X88625993Y-49911993D01*
X88664500Y-49619506D01*
X88664500Y-49324494D01*
X88625993Y-49032007D01*
X88549639Y-48747048D01*
X88436743Y-48474493D01*
X88289238Y-48219006D01*
X88109646Y-47984958D01*
X88109641Y-47984952D01*
X87901047Y-47776358D01*
X87901040Y-47776352D01*
X87666993Y-47596761D01*
X87411510Y-47449258D01*
X87411500Y-47449254D01*
X87138961Y-47336364D01*
X87138954Y-47336362D01*
X87138952Y-47336361D01*
X86853993Y-47260007D01*
X86805113Y-47253571D01*
X86561513Y-47221500D01*
X86561506Y-47221500D01*
X86266494Y-47221500D01*
X86266486Y-47221500D01*
X85988085Y-47258153D01*
X85974007Y-47260007D01*
X85689048Y-47336361D01*
X85689038Y-47336364D01*
X85416499Y-47449254D01*
X85416489Y-47449258D01*
X85161006Y-47596761D01*
X84926959Y-47776352D01*
X84926952Y-47776358D01*
X84718358Y-47984952D01*
X84718352Y-47984959D01*
X84538761Y-48219006D01*
X84391258Y-48474489D01*
X84391254Y-48474499D01*
X84278364Y-48747038D01*
X84278361Y-48747048D01*
X84202008Y-49032004D01*
X84202006Y-49032015D01*
X84163500Y-49324486D01*
X83312000Y-49324486D01*
X83312000Y-46606000D01*
X83331685Y-46538961D01*
X83384489Y-46493206D01*
X83436000Y-46482000D01*
X101984000Y-46482000D01*
X102051039Y-46501685D01*
G37*
%TD.AperFunction*%
%TD*%
%TA.AperFunction,Conductor*%
%TO.N,/PL2*%
G36*
X152023030Y-46480979D02*
G01*
X152089903Y-46501219D01*
X152135218Y-46554401D01*
X152146000Y-46604975D01*
X152146000Y-58827498D01*
X152126315Y-58894537D01*
X152073511Y-58940292D01*
X152018848Y-58951458D01*
X150906848Y-58923187D01*
X150840331Y-58901805D01*
X150795933Y-58847855D01*
X150786000Y-58799227D01*
X150786000Y-57400000D01*
X149178414Y-57400000D01*
X149211000Y-57236180D01*
X149211000Y-57063820D01*
X149178414Y-56900000D01*
X150785999Y-56900000D01*
X150785999Y-55400030D01*
X150785998Y-55400015D01*
X150775505Y-55297304D01*
X150720358Y-55130882D01*
X150720356Y-55130877D01*
X150628315Y-54981655D01*
X150504344Y-54857684D01*
X150355122Y-54765643D01*
X150355117Y-54765641D01*
X150188695Y-54710494D01*
X150188688Y-54710493D01*
X150085984Y-54700000D01*
X148586000Y-54700000D01*
X148586000Y-56307586D01*
X148422180Y-56275000D01*
X148249820Y-56275000D01*
X148086000Y-56307586D01*
X148086000Y-54700000D01*
X146586030Y-54700000D01*
X146586014Y-54700001D01*
X146483304Y-54710494D01*
X146316882Y-54765641D01*
X146316873Y-54765646D01*
X146264588Y-54797895D01*
X146197195Y-54816335D01*
X146130532Y-54795412D01*
X146085763Y-54741769D01*
X146075494Y-54693123D01*
X146042422Y-49324486D01*
X146663500Y-49324486D01*
X146663500Y-49619513D01*
X146682482Y-49763690D01*
X146702007Y-49911993D01*
X146702008Y-49911995D01*
X146778361Y-50196951D01*
X146778364Y-50196961D01*
X146891254Y-50469500D01*
X146891258Y-50469510D01*
X147038761Y-50724993D01*
X147218352Y-50959040D01*
X147218358Y-50959047D01*
X147426952Y-51167641D01*
X147426959Y-51167647D01*
X147661006Y-51347238D01*
X147916489Y-51494741D01*
X147916490Y-51494741D01*
X147916493Y-51494743D01*
X148189048Y-51607639D01*
X148474007Y-51683993D01*
X148766494Y-51722500D01*
X148766501Y-51722500D01*
X149061499Y-51722500D01*
X149061506Y-51722500D01*
X149353993Y-51683993D01*
X149638952Y-51607639D01*
X149911507Y-51494743D01*
X150166994Y-51347238D01*
X150401042Y-51167646D01*
X150609646Y-50959042D01*
X150789238Y-50724994D01*
X150936743Y-50469507D01*
X151049639Y-50196952D01*
X151125993Y-49911993D01*
X151164500Y-49619506D01*
X151164500Y-49324494D01*
X151125993Y-49032007D01*
X151049639Y-48747048D01*
X150936743Y-48474493D01*
X150789238Y-48219006D01*
X150609646Y-47984958D01*
X150609641Y-47984952D01*
X150401047Y-47776358D01*
X150401040Y-47776352D01*
X150166993Y-47596761D01*
X149911510Y-47449258D01*
X149911500Y-47449254D01*
X149638961Y-47336364D01*
X149638954Y-47336362D01*
X149638952Y-47336361D01*
X149353993Y-47260007D01*
X149305113Y-47253571D01*
X149061513Y-47221500D01*
X149061506Y-47221500D01*
X148766494Y-47221500D01*
X148766486Y-47221500D01*
X148488085Y-47258153D01*
X148474007Y-47260007D01*
X148189048Y-47336361D01*
X148189038Y-47336364D01*
X147916499Y-47449254D01*
X147916489Y-47449258D01*
X147661006Y-47596761D01*
X147426959Y-47776352D01*
X147426952Y-47776358D01*
X147218358Y-47984952D01*
X147218352Y-47984959D01*
X147038761Y-48219006D01*
X146891258Y-48474489D01*
X146891254Y-48474499D01*
X146778364Y-48747038D01*
X146778361Y-48747048D01*
X146702008Y-49032004D01*
X146702006Y-49032015D01*
X146663500Y-49324486D01*
X146042422Y-49324486D01*
X146025374Y-46556999D01*
X146044646Y-46489843D01*
X146097167Y-46443764D01*
X146150396Y-46432243D01*
X152023030Y-46480979D01*
G37*
%TD.AperFunction*%
%TD*%
M02*
